<svg xmlns="http://www.w3.org/2000/svg" xmlns:xhtml="http://www.w3.org/1999/xhtml" width="640" height="382" stroke="#fff" stroke-width="0" version="1">
  <defs>
    <clipPath id="I">
      <path fill="#4d4d4d" stroke="none" stroke-width="5" d="M-23-41h817v821H-23z"/>
    </clipPath>
    <clipPath id="H">
      <path fill="#4d4d4d" stroke="none" stroke-width="5" d="M-23-41h817v821H-23z"/>
    </clipPath>
    <clipPath id="G">
      <path fill="#4d4d4d" stroke="none" stroke-width="5" d="M-23-41h817v821H-23z"/>
    </clipPath>
    <clipPath id="F">
      <path fill="#4d4d4d" stroke="none" stroke-width="5" d="M-23-41h817v821H-23z"/>
    </clipPath>
    <clipPath id="E">
      <path fill="#4d4d4d" stroke="none" stroke-width="5" d="M-23-41h817v821H-23z"/>
    </clipPath>
    <clipPath id="D">
      <path fill="#4d4d4d" stroke="none" stroke-width="5" d="M-23-41h817v821H-23z"/>
    </clipPath>
    <clipPath id="C">
      <path fill="#4d4d4d" stroke="none" stroke-width="5" d="M-23-41h817v821H-23z"/>
    </clipPath>
    <clipPath id="B">
      <path fill="#4d4d4d" stroke="none" stroke-width="5" d="M-23-41h817v821H-23z"/>
    </clipPath>
    <clipPath id="A">
      <path fill="#4d4d4d" stroke="none" stroke-width="5" d="M-23-41h817v821H-23z"/>
    </clipPath>
    <clipPath id="z">
      <path fill="#4d4d4d" stroke="none" stroke-width="5" d="M-23-41h817v821H-23z"/>
    </clipPath>
    <clipPath id="y">
      <path fill="#4d4d4d" stroke="none" stroke-width="5" d="M-23-41h817v821H-23z"/>
    </clipPath>
    <clipPath id="x">
      <path fill="#4d4d4d" stroke="none" stroke-width="5" d="M-23-41h817v821H-23z"/>
    </clipPath>
    <clipPath id="w">
      <path fill="#4d4d4d" stroke="none" stroke-width="5" d="M-23-41h817v821H-23z"/>
    </clipPath>
    <clipPath id="v">
      <path fill="#4d4d4d" stroke="none" stroke-width="5" d="M-23-41h817v821H-23z"/>
    </clipPath>
    <clipPath id="u">
      <path fill="#4d4d4d" stroke="none" stroke-width="5" d="M-23-41h817v821H-23z"/>
    </clipPath>
    <clipPath id="t">
      <path fill="#4d4d4d" stroke="none" stroke-width="5" d="M-23-41h817v821H-23z"/>
    </clipPath>
    <clipPath id="s">
      <path fill="#4d4d4d" stroke="none" stroke-width="5" d="M-23-41h817v821H-23z"/>
    </clipPath>
    <clipPath id="r">
      <path fill="#4d4d4d" stroke="none" stroke-width="5" d="M-23-41h817v821H-23z"/>
    </clipPath>
    <clipPath id="q">
      <path fill="#4d4d4d" stroke="none" stroke-width="5" d="M-23-41h817v821H-23z"/>
    </clipPath>
    <clipPath id="p">
      <path fill="#4d4d4d" stroke="none" stroke-width="5" d="M-23-41h817v821H-23z"/>
    </clipPath>
    <clipPath id="o">
      <path fill="#4d4d4d" stroke="none" stroke-width="5" d="M-23-41h817v821H-23z"/>
    </clipPath>
    <clipPath id="n">
      <path fill="#4d4d4d" stroke="none" stroke-width="5" d="M-23-41h817v821H-23z"/>
    </clipPath>
    <clipPath id="m">
      <path fill="#4d4d4d" stroke="none" stroke-width="5" d="M-23-41h817v821H-23z"/>
    </clipPath>
    <clipPath id="l">
      <path fill="#4d4d4d" stroke="none" stroke-width="5" d="M-23-41h817v821H-23z"/>
    </clipPath>
    <clipPath id="k">
      <path fill="#4d4d4d" stroke="none" stroke-width="5" d="M-23-41h817v821H-23z"/>
    </clipPath>
    <clipPath id="j">
      <path fill="#4d4d4d" stroke="none" stroke-width="5" d="M-23-41h817v821H-23z"/>
    </clipPath>
    <clipPath id="i">
      <path fill="#4d4d4d" stroke="none" stroke-width="5" d="M-23-41h817v821H-23z"/>
    </clipPath>
    <clipPath id="h">
      <path fill="#4d4d4d" stroke="none" stroke-width="5" d="M-23-41h817v821H-23z"/>
    </clipPath>
    <clipPath id="g">
      <path fill="#4d4d4d" stroke="none" stroke-width="5" d="M-23-41h817v821H-23z"/>
    </clipPath>
    <clipPath id="f">
      <path fill="#4d4d4d" stroke="none" stroke-width="5" d="M-23-41h817v821H-23z"/>
    </clipPath>
    <clipPath id="e">
      <path fill="#4d4d4d" stroke="none" stroke-width="5" d="M-23-41h817v821H-23z"/>
    </clipPath>
    <clipPath id="d">
      <path fill="#4d4d4d" stroke="none" stroke-width="5" d="M-23-41h817v821H-23z"/>
    </clipPath>
    <clipPath id="c">
      <path fill="#4d4d4d" stroke="none" stroke-width="5" d="M-23-41h817v821H-23z"/>
    </clipPath>
    <clipPath id="b">
      <path fill="#4d4d4d" stroke="none" stroke-width="5" d="M-23-41h817v821H-23z"/>
    </clipPath>
    <clipPath id="a">
      <path fill="#4d4d4d" stroke="none" stroke-width="1" d="M108 0h640v382H108z"/>
    </clipPath>
  </defs>
  <xhtml:defs>
    <xhtml:style type="text/css">
      <![CDATA[
body { margin: 0px; }]]>
    </xhtml:style>
  </xhtml:defs>
  <g stroke="none" clip-path="url(#a)" transform="translate(-108)">
    <path fill="#772849" d="M847 818v-924l-4-5H-93l-4 5v924l4 5h936z" clip-path="url(#b)" transform="matrix(.97898 0 0 .97391 22 40)"/>
    <path fill="#853751" d="M847 818v-924l-4-5H-93l-4 5v924l4 5h936z" clip-path="url(#c)" transform="matrix(.97898 0 0 .97391 22 40)"/>
    <path fill="#93465a" d="M847 818v-924l-4-5H-93l-4 5v924l4 5h936z" clip-path="url(#d)" transform="matrix(.97898 0 0 .97391 22 40)"/>
    <path fill="#a05462" d="M847 818v-924l-4-5H-93l-4 5v924l4 5h936z" clip-path="url(#e)" transform="matrix(.97898 0 0 .97391 22 40)"/>
    <path fill="#ac6169" d="M847 818v-924l-4-5H-93l-4 5v924l4 5h936z" clip-path="url(#f)" transform="matrix(.97898 0 0 .97391 22 40)"/>
    <path fill="#b76d6e" d="M847 818v-924l-4-5H-93l-4 5v924l4 5h936z" clip-path="url(#g)" transform="matrix(.97898 0 0 .97391 22 40)"/>
    <path fill="#bd7670" d="M847 818v-924l-4-5H-93l-4 5v924l4 5h936zM238 139l-10 2-4-5 3-9 1-1 9 1 1 3v6z" clip-path="url(#h)" transform="matrix(.97898 0 0 .97391 22 40)"/>
    <path fill="#c37e72" d="M847 818v-924l-4-5H-93l-4 5v924l4 5h936zM238 155l-10-6-3-3-6-6-2-4 2-7 1-2 8-7h10l6 7 1 9 2 10zm217 349l-9-1-9-2-1-1-3-9 3-4 10 1 7 3 2 2 4 8z" clip-path="url(#i)" transform="matrix(.97898 0 0 .97391 22 40)"/>
    <path fill="#c78774" d="M847 818v-924l-4-5H-93l-4 5v924l4 5h936zM247 159l-9 1-8-5-2-1-9-8-7-10 2-9 5-4 6-5 3-2h10l4 2 5 7 2 2 3 9v10l-2 9zm208 351l-9-2-10-3-7-4-2-8v-4l3-7 6-2 6 2 4 1 9 5 5 3 4 9 1 1h-1l-8 9zM49 613l-9 4-8-4-2-6-1-4 1-2 6-7 4-2 2 2 7 9 1 10zm217 172l-9 5-9-9-1-1-3-9 3-2 10-3 6 5 3 5 3 5z" clip-path="url(#j)" transform="matrix(.97898 0 0 .97391 22 40)"/>
    <path fill="#cb9077" d="M847 818v-924l-4-5H-93l-4 5v924l4 5h936zM238 165h-2l-8-5-3-5-6-4-5-5-4-7-3-3-2-9 5-2 9-7 9-6h10l9 6 6 9 4 9v12l-2 7-8 9-2 1zm217 349l-9-2-6-2-4-1-9-5-4-3-1-10v-19l5-3 6 3 3 2 10 5 6 3 3 2 9 7h1l4 10-5 8v1zM40 624l-3-2-7-4-4-5-5-10v-9l9-5 10-3 9 6 1 2 3 9 2 10-6 8-4 1zm226 168l-9 2-9-4-1-1-8-8-1-4-4-6 4-2 9-7h2l8-1 2 1 7 6 4 3 6 10-7 9z" clip-path="url(#k)" transform="matrix(.97898 0 0 .97391 22 40)"/>
    <path fill="#cf9a7c" d="M847 818v-924l-4-5H-93l-4 5v924l4 5h936zM-55 48h-9l-10-3-3-2-3-9 6-10h2l8 4 4 6 5 6 3 3zm302 120l-9 1-10-3-1-1-8-10-9-9v-1l-8-9-2-3-5-6 5-4 10-4 1-1 8-5 8-4 1-1 10 1 9 5 5 4 5 7 2 2 4 9-2 10-2 9-2 6-3 4zm463 81l-9-3-5-7v-9l5-3 9 2 1 1 1 9zM-26 413l-3-6 3-1 3 1zm245-1l-9-3h-10l-2-2 2-1h19l1 1zm520 10l-4-5v-10l1-9 3-3 9 1 2 2 2 9-4 7-2 3zm-275 91l-9 4-9-1-10-3-6-3-3-1-8-8-1-10-1-1-1-8-1-10 2-6 5-2 5-2 3 2 6 4 6 4 4 3 9 5 3 2 6 5 5 4 4 10-5 9zM49 627l-9 2-10-5-1-2-8-9v-1l-7-9-3-5-1-4 1-3 9-6 1-1 9-2h10l9 2 1 1 4 9 3 9 2 5v10l-2 4zm123 170l-10-2-2-5 2-5 3-4 7-5 8 5-1 9zm104-7l-10 5-9 4-10-4-6-5-3-4-10-4v-1l-2-10 2-4 8-5h2l9-4 10-1 9 4 1 1 8 9 1 2 6 8z" clip-path="url(#l)" transform="matrix(.97898 0 0 .97391 22 40)"/>
    <path fill="#d2a382" d="M847 818v-924l-4-5H-93l-4 5V24l4 10 10-9v-1l9-8 10 3 4 5 5 6 6 4 4 4 3 5 3 9-6 6-10-2-9-3-3-1-7-2-9-7h-1l-9-9-4 9v775l4 5h936zM767-54h-9l-10-5-1-1 1-7 2-2h10l7 3 4 6zM49 7l-1-1-8-9 4-10 5-5 2 5 3 10-4 9zm340 32l-9 1-8-6 8-8 2-2 7-2 9 1 2 1-2 8v2zM257 167l-10 5-9 1-10-1-5-7-4-5-3-5-6-6-4-3-6-6-6-4-3-3-4-6 4-4 7-5 2-1 10-2 9-6h1l8-4h10l7 4 2 1 9 8 1 1 9 8v1l3 8-3 7-1 3-3 9-3 10zm387 46l-9 7-10-6-1-3-2-9 3-6 10-1 7 7 2 6 1 3zm66 58l-2-4-7-8v-1l-8-9-1-2-8-8-2-7-9-2h-1l1-2 9 1 10-5 5-4 4-1h9l2 1 4 10 2 9-1 10-3 9-2 9zm10 17l-2-2 2-2 1 2zM96 314l-9 6-10-4-2-2-1-10 3-3h10l3 3zm454 19h-2l-3-10 5-6 9-2 6 8-6 6-7 4zm-576 88l-10-3-1-1-1-10 2-2 9-7h1l9-2 9-1 7 3 3 2 8 7-8 6-10-1-9 1-3 4zm245 4l-9-4-10-4h-1l-8-8-2-2 2-2 7-7 2-1 10 1 9-2 5 2 4 5 1 4-1 6v4zm520 4l-6-3-4-6-1-3 1-10v-1l2-8 8-9 9 2 7 7 1 9-4 10-4 5-4 4zm-444 77l-10 2-9-5-4-2 4-7 9 1 10 2 9 4zm378-1l-10 4-6-8 6-8 6-2h5l3 10zm-218 16l-9-1-1-1-9-3-9-4-4-2-6-6-2-3-1-10-1-9-1-10 2-8 3-6 10-3 9 7 2 2 8 6 3 2 6 4 9 6 9 9 1 4 2 6-2 4-2 5-8 7-5 2zM49 637l-9 3-8-8-2-1-5-9-4-5-4-4-6-6-3-4-5-9 4-9 4-3 10-2 9-2 10-1 9 1 6 7 4 9v1l1 8 3 10-1 9-3 6-5 4zm661 114l-9-6v-2h10zm-236 32h-10v-4h10l3 2zm-302 19l-10 2-7-4v-10l4-9 3-5 6-5 4-1h9l4 1 4 10-3 9-5 5-4 5zm85 0l-10-2h-1l-8-7-6-3-4-2-8-7-1-10 7-9 2-2 10-3 9-3 10-1 9 4 6 5 4 4 6 5 3 6 2 4-2 4-2 5-7 4-10 5-1 1z" clip-path="url(#m)" transform="matrix(.97898 0 0 .97391 22 40)"/>
    <path fill="#d6ae89" d="M847 818V333l-4-8-2-2-2-9 4-8 4-2v-410l-4-5H-93l-4 5V15l4 9 10-5 4-4 5-4 10 2 3 2 6 7 6 2 4 3 6 7 3 5 3 4 3 9-4 10-2 1-9 2-6-3-4-2-9-4-10-2-4-2-5-3-10-4-4 7v159l4 2 5 7-2 10-3 2-4 7v579l4 5h936zM767-48l-9-1-6-1-4-2-9-6-1-2-1-9 2-1 9-3h10l9 2 4 2 6 8 1 1-1 4-4 6zM59 26l-10 1-5-3-4-6-1-3-2-9-1-9 1-10 1-9 2-4 9-2 7 6 3 9v1l2 9-1 9 1 9 3 9zm330 19h-9l-7-2-3-2-4-7 4-8 2-2 8-2 9-6 2-1 7-2 4 2 6 7 1 2-1 5-2 5-8 7-3 2zm114 83l-10 7-10-6-9 1-10 5-1-8v-9l1-2 10-1 9 3h1l9 6 10 2v1zm-256 48l-9 1h-10l-2-3-7-8v-1l-8-10-1-2-8-7-2-2-9-5-5-3-4-9 6-9 3-1 9-4 10-3 2-1 7-4 9-4 10 1 9 4 4 3 6 5 4 4 5 5 5 4 3 9-4 10-4 5-1 4-3 10-5 6-6 3zm473 123l-7-4-3-5-1-4-5-9-3-5-2-5-5-9-2-3-10-6h-1l-8-9-1-1-9-6-5-3-4-7h-10l-9 3-10-2-3-4-5-9-1-4-2-5 2-7 1-2 8-4h10l5 4 4 3 4 6 5 9 1 2 9 3h10l9 2h10l9-3 9-3 8 8 2 7v3l2 9-1 10-1 9v6l-1 3 1 1 3 9 6 9v2l-2 7zm-614 26l-10 3-9-1-7-4-3-1-6-8-3-9v-1l8-9h12l8 9v1l10 8 1 1 2 9zm425 19l-1-2 1-4 2-5 6-10 2-1 5-8 4-3 9-2 10 2 9-5 1-2 8-9h1l9 9v10l-9 4-10-3-5 8-4 3-6 7-4 2-9 3-9 3-3 1zM11 420l-9 1-10-2-9 2-9 4-10-1-6-7v-10l6-8 2-1 8-5 9-4v-1h11l8 5 5 5 4 4 7 5 2 10zm208 10l-9-2-6-2-4-2-9-7h-1l-6-10 4-9 3-1 9-3 10-1 9-2 9 2 4 5 2 9-2 10-4 9zm529-1l-9 4-10-3-2-4-1-9v-10l1-9 2-5 4-5 6-3 9 2 2 1 8 8 1 2 1 9-2 8-1 2-6 9zm-75 82l-10 3-9-1-3-3-1-9 4-7 2-3 7-2 10-2 9 3 1 1 1 10-2 2-8 7zm-322 14l-9-3-4-3-6-4h-9l-10-1-9-1h-9l-10 1-9-2-4-2-6-5-7-4-1-10 8-5 10 2 9 1h10l4 2 5 4 9 3 10 2 3 1 6 5 10 3 2 1 7 4 3 5zm113-5l-9 4h-9l-10-4v-1l-9-4-8-5-2-2-6-7-2-10-1-9v-10l2-8 6-10 1-3 10-2 7 5 2 1 9 9h1l9 8h1l8 7 4 3 6 7 2 2 4 10-4 9-2 1-8 8zM49 650h-3l-6-1-7-8-3-3-3-6-6-10-8-9-2-2-9-8v-1l-9-8 1-9 8-3 9-4 8-3h2l9-1h10l9-1 7 2 3 3 1 7 3 9 1 9 3 10v9l-5 10-3 7-2 2-7 9zm576 10l-9 5-9-5-1-1v-9l1-4 1-5-1-2-2-7-3-10 4-9h1l9 7 2 2 2 10 5 6 1 3 1 9-1 9zm85 99l-9-2-4-4-2-10 4-9 2-5 5-4v-9l4-10h1l7 10 2 3 1 6-1 9v1l-2 8-2 10zm-236 33h-10l-1-2-4-9 4-10 1-1 10 1h2l7 4 9 6-9 6-4 3zm-208 10l-9 3-10-2-7-3-2-2-10-5-4-3-5-4-6-5-1-10 7-8v-1l9-7 8-2 2-1 9-3h10l9 3 1 1 9 7 2 2 7 6 4 3 4 10-4 9-4 3-9 4-4 3zm-104 8l-9-1h-10v-5l1-4 5-10 4-7 1-2 7-10h1l10-5h9l10 2 7 3v10l-5 9-2 2-7 8-3 1-9 6-6 2z" clip-path="url(#n)" transform="matrix(.97898 0 0 .97391 22 40)"/>
    <path fill="#d9b790" d="M847 818V333l-4-4-8-6-1-9 3-10 6-6 4-3v-401l-4-5H-93l-4 5V15l4 5 8-5 2-1 9-7 10 2 9 6 10 6 4 3 5 5 4 5 6 6 8 3 1 9-9 8-2 2-8 7-9 1-10-6-4-2-5-3-10-2-9-3-5-2-5-2-4 2v150l4 3 4 6 6 8 1 1v10l-1 1-10 5-4 3v579l4 5h936zM786-49l-9 2-10 3-9-1-10-2h-9l-6-3-4-9v-2l1-8 9-8h19l9 2 10 6h1l8 8 3 1v10zM68 32l-9 1-10-1-9-4-4-4-3-9-1-9 1-9v-19l4-9 3-2 9-1 5 3 5 3 3 6 1 9 3 10 2 6v3l3 9 3 9zm330 15l-9 2h-9l-10-3-4-3-4-9 4-10 4-1 10-5 5-3 4-4 9-3 10 6 1 1 5 9-3 10-3 6-4 3zm66 100l-1-1-7-10-1-2v-7l-1-9 1-5 6-4 3-1h10l2 1 7 2 10 5 10 1 2 1 4 9-6 9v1l-10 5-10-2-9 2-6 4zm-207 29l-10 4-9 2h-10l-7-8-2-3-4-6-5-7-3-3-7-6-6-3-3-2-10-5-2-3-4-9 6-9h1l9-6 9-3h1l9-3 9-5 6-2 3-1h10l2 1 7 2 9 8h1l9 8 1 1 9 8 1 1 1 9-2 6-3 4-5 9-2 5-1 5-7 9zm104 52l-1-8h1zm359 77l-2-1-8-2-4-7-4-9-1-2-3-7-3-10-3-5-4-4-6-4-6-5-3-4-9-6h-1l-9-7-10-2-9 1-4-1-6-2-9-8-6-9-3-7-2-2 2-3 2-6 7-5 9-3 10-1 9 6 2 3 7 9h1l9 8h10l9 1h1l9 1 4-1 5-1 9-5h10l6 6-2 9v10l1 9v10l-1 9v9l4 10 1 1 5 8-1 9-4 5-8 4zM96 334l-9-1h-1l-9-5-3-5-6-6-1-3-2-10 3-9 9-6 10-1 6 7 3 3 6 6 4 4 9 3 7 3-4 9-3 2-9 5-6 3zm445 18l-10 2-5-3-4-6-2-3 1-9 1-1 7-9 2-1 10-8 9-6 6-4 3-1 10-4 3-4 6-3 10-2 9 4 1 1 6 9-1 10-6 8-4 1-5 1-10 1-9 8h-1l-9 5-9 4v1l-9 8zM2 426h-5l-5-1-5 1h-4l-9 4-10-1-4-3-5-7-1-2v-10h1l5-9 4-4 9-6h1l9-4 9-1 10 4 1 1 8 8 2 2 8 6 4 3 5 8 1 2-1 2-9 3-10 2-7 2zm217 10l-1-1-8-2-10-3-6-4-3-3-6-6-4-5-2-5 1-9 1-1 10-4 9-3 8-2h2l9-2 9 1 3 1 5 10 1 9-2 10-3 9-4 8-7 1zm520 2l-10-1-2-2-4-9-1-9 1-10 1-9 3-10 2-1 10-5 9 1 6 5 4 4 4 6 2 9-3 10-3 6-3 3-7 8-3 1zm-85 82l-2-1-7-9-1-9v-1l2-9 8-3 9-3 10-2 9 3 7 5v10l-7 8-1 1-8 5-10 4h-4zm-303 16l-9 1-9-8h-1l-9-5-10-3-4-2-5-1h-9l-10 1-9-2-10-4-9-2-10 1-3-2-2-9 5-10v-1l8-8 2-1h9l4 1 6 2 9 1 10-1 9 5 4 2 5 3 10 2 9 2 6 3 4 2 9 4 5 3 5 7 1 2-1 2-6 8zm95-7h-1l-9-4-6-6-3-1-10-6-3-2-6-8-2-1-2-10 1-9v-10l1-8 2-6 2-4 5-9 2-3 10 1 3 2 6 4 7 5 3 3 4 7 5 4 6 4 3 3 9 7 1 2 6 7 3 9 1 1-1 1-3 8-6 5-4 4-6 4-9 4-8 2zm-208 99l-10 3-8-9 3-9 5-2 10-1 4 3-1 9zM59 659H49l-9-4-5-5-5-6-2-3-5-9-2-5-4-5-6-6-3-3-6-6-7-4-3-2-6-7-2-9 8-7 8-3h2l9-1 10-2 9-1 10-1 9-3 10-1 3 9 4 10 1 9v9l1 3 1 7 1 9-2 10-4 9v9l1 9zm557 12l-9-1-2-1-8-9v-3l2-7 2-9-1-9-3-7-1-3-2-9 3-5h10l9 5 9 8 1 1 3 10 1 9 2 9-2 9-5 8-3 2zm94 94l-9-2-1-1-8-9v-2l-2-8 2-6 1-3 3-9 2-9 3-7 2-3 7-8 8-1h2l3 9 1 10 4 9-1 9-4 9-2 10-1 1-7 8zm-217 28h-10l-9 2-10 1-7-6-2-5-1-4 1-10 9-7 10 1 9 3 10-1 10 2 1 2-1 6-2 4-5 9zm-321 18l-10 4h-19l-8-6v-9l7-10 1-1 6-8 4-4 4-6 5-4 9-5 1-1 9 1h2l8 2 9 3h10l4-5 5-5 5-4 4-3 10-3 8-4h5l6 1 9 5 6 4 4 3 8 6 1 1 10 7 1 1 2 10-3 9v1l-10 5-6 4-3 1-10 5-9 2-10-2-9-4-4-2-6-4-9-5-3-1-6-5-10 5-9 8-1 2-9 4-6 5z" clip-path="url(#o)" transform="matrix(.97898 0 0 .97391 22 40)"/>
    <path fill="#dbc098" d="M847 818V342l-4-9h-1l-9-6-3-4-1-9 3-10 1-3 4-6 6-2 4-7v-392l-4-5H-93l-4 5V6l4 9 10-7 4-2 5-3 10 3 9 5 8 4 2 1 9 7 2 1 8 8 2 2 7 4 9 3 7 2-1 9-6 4-9 3-3 3-6 5-5 4-5 4h-9l-4-4-6-4-9-5h-3l-7-2-9-2-10-3-4 7v131l4 6 2 3 6 9 2 3 6 6v10l-6 6-7 3-3 1-4 9v569l4 5h227l6-5-6-5-5-4-1-9 6-10 9-9h1l9-10 9-8 2-1 8-4h9l10 2 9 1 10-1 7-7 2-2 9-5 6-3 4-1 9-3h10l6 4 3 2 10 7 1 1 8 6 6 3 4 3 7 6 1 10-3 9-5 6-8 4h-2l-9 5-9 4h-1l-9 1h-10l-2-1-7-3-10-6-9-6-9-2-10 3-5 5-4 2-10 5-2 2-7 7-5 2 5 5h671zM767-41h-1l-8-1-10-1-9 1-10-3-4-5-3-10 2-9 5-8 1-1 9-4 9 1 10 1 9 2h2l8 4 9 5h1l8 7 4 2 2 10-6 5-9 2-9 1-9 1zM77 35l-9 3h-9l-10-1-9-3v-1l-10-8-1-1-2-9V6l2-9 1-9v-2l-1-8 1-5 1-4 9-6 9-1 10 3 6 4 3 6v12l2 10 3 9 3 9 1 3 5 6-1 10zm312 19l-9-1h-1l-9-3-9-7-5-9 4-10h1l9-4 10-5 9-8 3-1 6-2 6 2 4 3 6 6 3 8 1 1-1 2-2 8-5 9-2 4-10 5-3 1zm104 93h-10l-9 2-10 2-9-4v-1l-3-10-2-9-2-9 3-9 4-4 9-2 10 2 9 1 8 3h2l10 1 9 5 2 3 1 9-3 4-4 5-5 6-8 4zm-246 38l-9 2-10-1-3-3-6-6-2-3-6-9-1-3-8-7-2-1-9-5-5-3-5-3-9-7v-1l-10-4-5-4 5-8 2-1 8-1 9-4 9-4h1l9-4 10-4 4-2 5-1 9-4 10-2 9 2 4 5 6 5 4 5 5 4 6 5 4 3 5 6 2 9-5 10-2 3-5 6-3 10-2 3-4 6-5 6-8 3zm114 63l-10-3-1-6-1-9 2-10v-2l10-5 7 7v10l-4 9zm368 57l-9 6-10-3-4-4-5-8v-1l-4-9-3-9-2-7-1-3-9-8v-1l-9-8-2-1-8-6-6-4-3-3-10-2-9 1-10-3-3-2-6-5-6-5-3-4-6-5-2-9 5-9 3-3 9-7 9-3h10l7 3 2 2 7 8 3 2 7 7 2 1 10 2 9 1 10 2 9-3 5-3 4-2 10-2 9 2 4 2 1 9-5 7-1 2-1 10 1 9v10l-1 9 1 9 1 2 4 8 5 9-1 9-8 9zm-623 30l-10 2h-9l-10-4-9-10v-1l-5-8-2-10 1-9 6-8 1-1 8-3h10l3 3 6 6 3 3 7 8 6 1 3 1 4-1 6-1 4 1 1 10-5 9v1l-10 5-5 4zm435 24h-10l-9-5-4-3-5-9v-9l5-10 4-3 9-5 1-1 9-4 7-6 2-1 9-5 5-3 5-2 9-5 8-2h3l8 3 7 6 3 5 2 4-1 10-1 5-4 4-6 3-9 2-10 1-4 4-5 3-10 5-2 1-7 5-4 4zM40 430l-10-2-9-1-10 1-9 2H-8l-9 1-9 2-10 1-9-5-3-3-2-9 1-10 4-7 1-2 8-8 2-2 8-5 8-4h13l7 3 6 6 3 4 7 6 3 2 9 7h1l7 10 2 3 3 6zm188 13l-9-2-9-3-10-1-2-2-7-5-4-4-6-6-2-3-4-10-3-9 9-6 10-3 3-1 6-1 10-3 9-3 9 1 8 6 2 3 3 7 1 9-3 10-1 2-2 7-3 9zm520-5l-9 3-10 2-9-7v-1l-1-9v-19l1-5v-4l4-10 5-5 7-4 3-1 6 1 3 1 10 8h1l7 10 1 7 1 2-1 4-1 6-6 9-2 4-6 5zm-822 68l-7-5 5-10 2-2 2 2v10zm737 17l-9 1-9-5h-1l-2-9-1-9-2-10 5-6 10-3h2l7-1h19l3 1 7 4 4 5-1 10-3 4-4 5-6 4-9 5h-1zm-208 8l-9 1-10-2-1-1-8-7-3-3-7-4-7-5-2-2-7-7-2-10 2-9 1-10 1-8 2-10 3-7 1-2 7-10h5l6 3 9 6 2 1 8 6 2 3 7 9 1 1 8 8h2l8 8 2 2 7 9v1l6 9-4 9-2 1-9 8v1l-10 6-5 3zm-104 13l-9 4-10-7-2-3-7-6-8-3-2-1-9-4-9-2h-19l-9-3h-1l-9-1-6 1-4 1-9-1-3-9v-9l3-9v-1l4-9 5-5 10-1 9 1 10 3 9 1 10-1 7 2 2 1 9 7 8 1 2 1 9 3 10 4 4 2 5 3 10 4 2 2 4 9-5 10-1 2-5 7zm-113 92l-10 2-8-6-1-2-6-8 2-9 4-2 9-4 10-1 9 6 1 1-1 3-1 6-5 10zM68 675l-9-6h-2l-8-3-9-6-1-1-8-9-1-1-5-8-4-8-1-1-7-10-2-2-9-7v-1l-10-6-4-3-5-5-2-4-1-9 3-8 1-2 8-2 10-1 9-1 10-2 9-2 8-1 2-1 9-5 8-3 2-2 1 2 5 9 2 9 1 2 2 8 1 9v9l1 10 1 9-2 10-2 9 1 9 4 9 2 10zm557-4l-9 4-9-1-10-5h-1l-4-10 2-9 2-9-1-9-3-10-2-9 2-10 5-1 8 1 2 1 9 5 6 4 3 3 8 6 2 5v12l-1 2 1 1 1 8-1 9-7 10zm-84 48l-6-3 6-10 4 10zm169 52h-9l-8-9-1-2-5-7v-10l2-9 1-9 2-6 1-3 4-10 4-6 3-3 6-4 10-2 9 5 1 1-1 4v10l1 5 3 9-1 9-3 8v1l-3 10-6 8-1 1zm-217 30l-6-1-4-1-6 1h-13l-9-6-3-4-3-9v-10l6-5 5-4 4-2h10l9 2 10-1h10l1 1 4 9-2 10-2 9-1 4-7 6z" clip-path="url(#p)" transform="matrix(.97898 0 0 .97391 22 40)"/>
    <path fill="#dfc9a0" d="M847 818v-9l-4-6-7-3v-10l7-9h4V342l-4-5-8-4-2-1-7-9-1-9 2-10 3-9 3-2 10-4 4-3v-392l-4-5H-93l-4 5V6l4 4 6-4 4-3 9-4 10 2 6 5 3 2 10 4 3 3 6 4 7 5 3 3 9 6 3 1 6 2H2l6-2 3-2 6-8 3-9h1l2-9 2-9 1-10-1-9v-10l5-4 10-5 9-1 4 1 6 2 9 4 4 3 1 10-1 9 2 10 2 9 1 2 3 7 7 8 3 1 6 9v3l-9 5-10 1-8 1h-2l-8-1-10-2-9-3-10-3-9-2-5 2-5 2-2 7-5 9-2 4-10 6-9 4-6 5-3 3-10 6h-9l-10-9-9-5-10-3-9-1-10-3-4 3v131l4 1 6 8 4 7 2 2 7 8 1 1 1 10-2 3-7 6-2 1-10 4-4 5v569l4 5h218l8-5-8-8-3-1v-9l3-4 4-6 5-6 3-3 6-5 5-5 5-3 6-6 3-3 10-5 9 1 10 1 9 2 10-3 1-2 8-7 5-3 4-1 10-5 9-3 10 1 9 5 3 3 7 6 6 4 3 2 10 6 2 1 7 6 5 3v10l-4 9-1 2-7 8-2 1-10 2-9 6-10 5h-9l-10-1-9-3-1-1-9-6-6-3-3-2-9-3-8 5h-2l-9 5-6 4-4 2-7 7 7 5h662zM436-74l-9 3-8-7v-9l4-10 4-1 7 1 2 1 5 9-2 9zm359 35l-9 1h-9l-10 1-9-1-10-1-9 2-10-3-2-1-7-8-2-1-4-10 2-9 4-4 3-5 6-5 10-3 9 2 10 1 9 1 10 4 9 4 9 5 10 8 3 1 1 10-4 4-6 5zM512-2l-5-1-4-3-3-7 3-5 4-4 5-4 10-1 2 5 1 9-3 5-7 5zm170 41l-9-3-3-2-7-8-1-2 1-5 10-3 9 2 10 6v3l-3 7zM408 53l-10 4-9 1-9-1-10-2-7-3-2-1-6-8-4-9v-1l3-9 7-4 9-3 3-2 7-4 6-5 3-3 9-4 10 5 3 2 6 7 2 2 2 9-2 10-2 4-3 5-5 9zm56 103l-1-1-8-4-4-5-3-10-2-9v-1l-2-8 1-9 1-2 9-8h12l7 2 9 1 10 1 10 1 9 3 2 2 6 9-2 9-5 9-1 2-9 8-10 5-10 1-9 2-5 1zm-207 28l-10 6-9 2-10-2-9-7-5-9-4-7-3-2-7-6-5-4-4-2-10-5-3-2-6-5-10-1-9 4-3 2-7 2-9-2v-1l4-9 5-4 4-5 6-9 9-9h3l7-1h9l10-4 9-4 2-1 8-2 9-3 9-3 3-1 7-7 2-2 7-5 6 5 1 9 3 5 1 4 8 10h1l9 8 1 1 8 9 3 9-3 6-2 4-7 8-1 1-4 10-5 9-9 9zm104 70h-10l-3-5-3-10 1-9 2-10 3-9 10-4 7 4 2 2 3 7 1 10-2 9-2 3-3 7zm-189 33l-10 2-1-3 1-3 10 2v1zm-189 10l-2-2-1-9 3-3 2 3v9zm737 19l-7-2-3-1-9-7-1-2-4-9-3-9-1-5-1-4-4-10-5-5-5-4-4-5-6-4-4-3-9-5-6-2-4-1h-9l-10-3-8-5-1-1-9-6-4-3-6-4-3-5-1-9 4-7 2-2 8-8 2-2 7-6 9-3 10 2 9 4 5 3 5 6 4 4 5 4 10 3 9 2h2l8 1 4-1 5-1 9-6 9-2 1-1 9-3 10 3v1l4 9-3 9-1 1-6 8-2 10v9l1 10-1 9 2 9 4 10 2 2 4 7-1 9-3 4-4 5-6 7-5 3zm-265 9l-2-2-7-9-1-10 1-1 9-4 5 5 4 9 1 1-1 2-5 7zm-340 9l-9 4-10 3-9-1-10-4-5-3-4-5-3-5-6-9v-7l-1-3-1-9 1-9 1-1 9-6 9-2 10 1 9 8 7 9 3 3 9 3 10-2 9 1 6 4-4 10-2 4-3 5-6 6-7 4zm510 2l-3-3 3-2 3 2zm-84 28l-10-1-7-2-2-1-10-8-1-1-8-8-2-1-3-9 5-3 7-7 2-1 9-8h1l9-3 10-5 2-2 7-4 7-5 2-1 10-5 5-3 4-2 10-3 9 4 2 1 8 7 1 2 5 9v10l-1 9-5 4-10 2-9 1-7 3-3 1-9 5-5 3-5 3-9 6v2l-6 8zm-294 12l-4-6 3-9 1-2 10 1v6l-1 4zm-19 85l-4-7-5-6-3-3-6-3-10-1-9-5v-1l-9-9-1-1-5-8-4-7-1-3-4-9v-10l5-4 9 3 10-1 9-3 9-4h1l9-3 9 1 8 2 2 2 6 7 2 10-1 9-3 10-3 9-1 8v12l-3 8zm-160 3l-9 2-4-2-2-10v-9l-4-4-9-3-6-3-4-2-9-2-10 1-9 3h-14l-5 1-9 2-10 2-7 5-2 4-10-3-2-1-1-10 1-9 2-5 1-4 2-10 4-9 3-3 5-7 4-4 8-5h2l9-4h9l10 3 2 1 7 8 1 1 9 8 3 2 6 5 5 4 5 6 3 4 6 7 1 2 2 9 7 7 2 3 7 6 1 3zm-142 55l-9-4-9-5 1-9 7-10 1-2 7-7 2-2 3 2 7 7v6l-2 6-3 9zm747 4l-10 4-9 1-10-5-3-4-3-9-1-9-2-5-1-5 1-7 1-2 8-4h19l10-1h19l8-5h1l5-8 4-6 3-4 1-9v-10l2-9 1-9v-10l1-9 2-8v-2l8-9 1-1 10-6 9 3 4 4 6 5 4 4 5 7 2 3 2 9-1 10-3 6-2 3-7 9v1l-10 5-9 4h-1l-9 5-5 4-4 9-1 1-8 8-1 1-7 9v9l-2 10-6 9-3 3-10 5-2 1zm-209 7l-9 4-9 2-10-2-5-5-4-4-7-6-3-1-9-6-9-2-1-1-4-8-2-10 5-9 1-7 1-3v-8l3-10 3-9 2-10h1l9-4 10 2 4 2 5 4 7 6 3 2 7 7 2 3 4 7 5 4 7 4 3 4 6 6 3 5 4 4 6 10-1 9-9 6-3 3-6 5-8 5zm-113 19l-9 5-10-5-2-1-7-8-2-2-8-5-9-4h-2l-7-3-10-1h-19l-9-2-10 2-9 3-10-5-3-4 3-8v-1l2-9 1-10 4-9 2-10h1l9-2 10 1 6 1 3 1 10 4 9 1 10-2 9 3 4 3 5 4 10 3 9 2h1l9 5 9 4 3 1 7 3 8 6 1 4 3 5-3 4-3 6-5 9-1 1-7 9zm208 40l-5-4-4-6-1-4-2-9 3-4 6 4 3 4 2 5 5 10zm189 9l-9-4v-9l9-3 4 3 1 9zm-510 44l-10 1-6-2-3-2-7-7-2-4-5-6 3-9 2-2 9-5 9-3h1l9-1 4 1 5 3 8 7-3 9-5 8-1 2-6 9zm198-1l-9-7-3-2-3-10 6-4 9 2 3 2v10l-1 9zm180 37h-12l-7-2-9-5-1-2v-10h1l2-9 3-9-1-9-3-10-1-4-4-5-2-10 6-4 9-2 10 2 5 4 4 2 9 6 3 2 7 5 3 4 2 10-1 9 2 9-1 9-5 7-2 3-8 6zM87 707l-2-1-7-9-1-4-2-6-7-3-8-6-1-1-10-5-4-3-5-4-4-6-6-6-2-3-6-9-1-2-5-7-5-8-3-2-6-5-6-4-4-3-9-6-1-1-5-9-1-9 2-10 5-3 9-3H2l9-1 9-2h1l9-2 10-3 6-4 3-5 5-4 5-7 4 7 5 4 2 5 1 9 1 9 3 10v9l-1 9 1 10v9l-1 10-1 9 1 9 3 7 1 2 5 10 2 9 2 2 9 7h1l6 10-7 7-4 2zm454 22l-10 2-1-6-2-9 3-6 3-4 7-5 9-3 3-1 6-1 10-2 5 3-3 9-2 2-10 4-3 4-6 4-6 5zm-199 42l-10 2-3-2 3-2 10-1 2-6 5-9 2-3 10-3 9 6-1 9-8 2-10-1zm359 14l-7-4-1-10-1-1-5-8-4-9 1-10 1-9 1-9v-9l6-8v-2l6-9 3-3 9-6 3-1 7-2h9l3 2 3 10-1 9 1 10 2 9-1 9-2 9-3 10-2 2-4 7-5 5-5 4-5 9v1zM2 792H-8l-8-2-1-1-2-8 2-4h9l9 4 1 1 5 8zm501 10l-10 3-10-1h-9l-10-1-9-3h-1l-6-10-2-5-1-4-1-10 2-2 8-7 1-1 9-5 10-1 9 2h10l10-1 9 6 1 9-1 4-2 6-3 9-2 10z" clip-path="url(#q)" transform="matrix(.97898 0 0 .97391 22 40)"/>
    <path fill="#e2d1a9" d="M261 818h-4l-10-2-9-3-6-4-4-2-9-6-8-1-1-1-1 1-9 3-9 6-10 7-2 2 2 5h76zm586 0l-4-8-3-1-7-5-4-4-2-10v-9l1-10 5-6 10 1 4-4v-65l-4-9-1-1v-9l1-1 4-8V351l-4-9-10-6-4-3-5-6-3-4-1-9 2-10 2-7v-2l9-6 9-3h1l4-9V-41h-4l-10 5-9-5-10-2-2 2-7 3-10 3-9 1h-9l-10 1-9-1h-19l-10-2-8-5-1-2-7-7-3-4-4-6-4-9 8-6 4-3 6-4 7-5 2-2 10-1 7 3h2l10 1 9 1 10 2 9 4v1l9 6 6 3 4 3 9 5 10 1 9 2 10 1 4-3v-46l-4-5H455l-5 5-2 9v10l-2 4-1 5-6 9-3 2-9 1-10-3-5-9-1-9-3-7-2-3 2-1 9-4 10-4v-5H172l-6 5-4 4-9 3-10-4-4-3-5-5H-93l-4 5V-3l4 8 10-7 4-1 5-2 7 2h3l9 7 4 2 6 3 8 6 1 1 10 7 3 1 6 5 9 2 10-2 5-5 4-6 2-3 4-9 4-9v-1l1-9-1-6-1-3-1-10 2-2 8-7h1l10-4 9-1 10 2 8 3 1 1 9 8v11l-1 8 1 8v2l3 9 4 9 3 3 9 5 3 1 4 10 3 8v1l4 9-4 4H96l-6-4-3-2H77l-9 1-9-3-10-4-2-1-7-2-10-2-9 2-4 2-6 6-3 3-6 9-1 1-9 5-7 4-2 3-9 7h-1l-9 4h-9l-5-4-5-5-5-5-4-3-10-2h-9l-10-3-4 8v112l4 7 3 3 6 9 1 1 6 8 3 4 5 5 1 10-6 9h-1l-8 5-10 3-4 2v242l4 5 4-5 4-9 2-4 5-6 4-6 9-2-8-10 2-9 1-10 2-9 4-4 4-5 4-10 1-1 3-8 7-8 1-2 7-9 1-1 10-5 9-2h9l10 3 7 5 2 3 5 6 5 4 8 6 1 1 9 8 1 1 8 9 1 1 7 8 3 6 2 3 7 7 2 3 5 9v10l-7 7-7 1-2 1-1-1-9-8-3-10-4-9-2-2-10-5-9-3h-1l-9 1-9 2H-8l-9 2-9 2-6 3-4 4-4 5-5 7-10 1-9 2-5 8 5 4 3 6 2 9-2 10-3 9v4l-3 5-7 8-9-4-10-4h-4v299l4 5h218l2-5-2-3-10-5-4-1 4-8 1-1 7-10 2-1 6-8 3-3 9-7 10-8 1-1 8-8 4-1 6-3h9l9 3h12l8-5 5-5 4-1 9-4 8-4 2-1 9-2h10l8 3h1l7 9 3 2 9 6 2 2 8 5 8 4 1 1 9 5 10-2 5-4 4-3 10-6 7-10 2-2h10l3 2 6 5 4 5 2 9-6 8-4 1-5 3-10 2-9 4-3 1-7 3-9-1-10 3-1 4-8 10-9 3-10 4-3 2-6 6-6 3 6 5h416l5-5 4-6 9 4 1 2 9 5h123zM522-1l-10 3-10-2-6-3-3-8v-3l4-8 5-6 5-4 5-4 5-5 4-2 5 2 5 5 2 4 1 10-2 9-1 2-6 8zm160 50l-9-2-3-4-7-7-2-2-6-10v-9l8-7 10 1 9 3 10 3 4 9-2 10-2 7-4 2zM389 63l-8-1h-1l-10-3-9-2-6-5-4-6-1-3-8-9 4-10 5-3 10-5 4-1 5-1 10-6 2-2 7-7 7-2 2-2 4 2 6 2 9 7h1l4 9 1 9-1 10-3 9-2 4-2 5-7 6-10 4h-1zm104 93l-10 1-9 1-10 1-9-4-7-9-2-7-1-3-3-9-2-9v-9l6-8 2-2 7-4h9l10 2 9 2 10-2 9 2h5l5 2 10 3 5 5 1 9-5 9-1 2-4 7-6 7-3 3-7 5-7 4zM21 199H11l-2-6 2-4 10-3 4 7zm226-5l-9 1-10-2h-1l-8-6-3-4-5-9-1-2-9-7-1-1-9-6-4-3-6-4-9-5-10-1-1 1-8 4-9 5-1 1-9 3-9-1-5-3-5-8-2-1 2-1 10-7 1-2 8-5 4-4 5-3 5-6 5-8 1-1 8-7 10-1 9 1 10-2v-1l9-3 10-3 9-2 2-1 7-4 6-5 3-10 1-1 9-4 10 5 3 10 1 9 3 9 2 2 6 8 4 3 5 6 4 4 4 5 4 9-5 10-3 3-6 6-3 5-2 5-4 9-4 4-5 5-4 5-6 5zm114 65l-10 2-3-3-5-9-1-5-1-5 1-9 3-10 3-9 3-7 6-2 4-2 2 2 7 4 5 5 3 9 2 8 1 2-1 9v1l-7 9-3 2-8 7zM-8 297l-9 6-9-8-2-9 2-8 1-1 8-2 2 2 7 8 1 1v9zm737 20l-9 5-10-4-5-4-4-3-6-7-3-9v-1l-2-8-2-9-5-10-1-1-8-8-1-1-10-8h-1l-8-5-10-3h-9l-7-2-3-1-9-4-6-4-3-3-10-5-2-2-6-9-1-9 6-9 3-4 6-6 4-4 5-5 4-5 9-2 10 4 4 3 5 2 10 6 1 1 8 9 2 1 8 2 9 3 10 2 9-4 6-3 3-2 10-5 5-3 4-2h10l4 2 5 10 1 9-1 3-2 6-7 7-2 2-3 10 1 9v19l2 9 2 3 5 7 4 7 1 2-1 2-2 7-7 9v1l-7 9zm-623 25l-10 3-9-1-3-2-7-3-9-6h-1l-6-10-2-4-3-5-2-10-1-9v-9l5-9h1l9-3 9-2 10 2 4 3 5 4 5 5 5 8 3 1 6 2 7-2h3l9-1 9 1 9-9 1-3 4-6 5-4 10 3 1 1 8 8 1 1 3 9-4 5-9 4h-5l-5 1v-1l-9-2-2 2-8 7-1 3-6 9-2 6-4 4-5 1-10 3zm435 26l-10-1-9-4-7-2-3-2-10-7v-1l-9-6-6-3-4-5-9-4h-10l-9 1-9 2-10-1-4-2 4-3 3-7 1-9 1-10 4-9 1-1 9-2 4 3 5 8 3 1 7 7 9 2 3 1 7 7h9l10-5 2-2 8-3 9-3 6-4 4-1 9-6 2-2 7-4 8-5 2-1 9-5 10-3 9 2 6 7 4 3 5 6 4 8 1 1 2 10 6 8 2 1 8 5 9 4 5 1 5 2 3 7-3 4-10 4-9-2-10-2-5-4-4-4-9-5h-10l-9 1-10 3-8 5-1 1-10 5-4 3-5 10h-1zm122 163h-9l-8-2-2-1-7-9-2-9v-1l-1-8-4-10 1-9 4-6 9-3 10 1 9 1 10-1h9l4-2 6-3 4-5 5-6 4-4 3-9 2-10v-3l2-6 2-9 1-10v-9l3-10 2-3 4-6 5-8 3-1 7-5 9 5 8 9 2 1 8 8 1 1 6 9 2 9v10l-6 9-2 3-5 6-4 4-9 6h-1l-9 4-7 5-3 5-3 5-6 8h-1l-8 10-1 4-2 5-3 10-4 9v1l-9 7-3 1-7 4-9 5-2 1zm-321 29l-5-3-5-2-8-7-1-2-9-8h-1l-9-5-9-3-9-1h-2l-8 1h-10l-9-1-10 1-9 2h-10l-8-3-1-2-9-6-1-2 1-1 9-8v-1l4-8 1-10 4-9 2-10-2-1-6-7-3-4-3-6-6-6-10-2-2-1-7-6-5-4-5-5-4-4-5-9-5-10-5-8v-1l-2-10 2-4 6-5 4-1 5 1 4 2 10 1 8-3h1l10-5 9-3h9l2-1 7-9 1-1 8-9 1-5 10-3 5 8 3 10-4 9-4 9-5 9v10l-3 9-2 5-2 5-2 9-1 9 2 10v9l2 10h1l10 2 9 3 8 3 2 1 9 1 7-2h5l7 3 9 7 10 4 9 3 7 2 3 2 9 4 10 2 3 2 6 3 10 4 4-7v-10l5-4 3-5 4-10v-8l1-10 1-3 3-6 3-10 4-5 9-2 10 2 9 5h1l9 7 2 3 7 7 2 2 7 10 10 8h1l8 10 7 9 3 5 3 5v9l-3 5-6 4-4 3-9 7-10 4-9 4-4 1-5 2-8-2h-2l-9-9-10-8-3-2-6-3-10-1h-9l-6 4-3 2-7 8-3 3-3 6-6 7-2 3-8 7-4 2zm406 46l-6-3-3-1-10-6-1-2-1-9 2-3 10-4 7-3 2-1 9 1h1l4 10-2 9-2 4-7 5zm-510 40l-10 1-9-3-7-3-2-3-8-6-2-4-2-6 2-9v-1l10-5 6-4 3-1 9-2 10-1 9 2 6 2 4 4 7 6-3 9-4 2-4 8-6 6-2 3zm208 4l-10 1-1-1-8-7-2-2-8-8-1-1-2-10 3-6 6-3 4-1 9 1 10 8 1 1 1 10 3 9zm-340 57l-10 4-9 3-10-7v-1l-6-9-3-5-6-5-3-3-10-6-9-9h-1l-7-10-2-2-5-7-4-6-3-3-6-9-1-2-9-8-10-7-1-2-8-6-5-4-4-9-2-9v-10l2-1 9-6 8-2h1l10-1h9l10-2 9-2 9-4 1-1 7-8 2-6 3-4 6-9 1-1 9-1 2 2 2 9v10l4 9v18l1 5 2 5v9l-2 7v5l1 7 1 9-2 10v1l-1 8 1 5 1 4 4 9 5 8 1 2 8 9 8 9 2 3 4 7-3 9zm595 87l-9-2-3-2-7-8v-3l2-8-2-4-1-5-2-9 1-10 2-9v-1l-1-8v-9l1-4 4-6 6-7 1-2 8-9v-1l9-3 10-3 9-2 10 7v18l-1 2 1 3v7l3 9-1 9-2 8-1 1-3 10-5 9-1 1-9 8v1l-6 9-4 7-3 2zm-680 8l-10 3-9-4-4-1-6-2-9-2-6-6-3-9 4-10 5-8 9 6 3 2 7 4 9 5 1 1 6 9 3 7 1 3zm472 7l-10 1-7-1h-2l-10-3-9-3-7-3-2-4-3-6-3-9-1-10 7-8 1-1 8-4 8-5 1-1 10-1 9 2 10-1 9-1h10l4-8 4-9 1-5 2-4 1-9 6-10 1-1 10-8 9-6 9-2 7-2h3l6-9 3-5 2-4 3-10 4-9 1-3 2-6-1-9-1-5-3-5-6-9-1-2-5-8-4-4-10-4-2-1-7-6-2-3-4-10-3-9 2-9 7-2 5 2 4 3 4 6 3 9 3 3 6 7 3 3 10 3 9 1 7 2 3 1 9 6 2 2 7 5 9 5 1 1 6 8 2 10v9l1 6 1 3-1 9-6 10-3 3-9 6h-1l-9 3-9 1h-10l-7 5-2 2-5 8-5 9-9 8-3 2-7 3-7 6-2 3-5 6-4 7-3 2-7 5-10 3-6 2 2 9-1 9-2 10-2 7-1 2-1 10-8 8-6 1z" clip-path="url(#r)" transform="matrix(.97898 0 0 .97391 22 40)"/>
    <path fill="#e5d9b2" d="M241 818l-3-1-10-7-1-1-8-5-9-2-10 5-3 2-6 4-7 5 7 5h47zm606 0l-4-5-10-3-3-1-6-9-4-10-1-9 1-10 4-8 1-1 8-7 10 4 4-6v-37l-4-8-4-2-5-9-1-1-2-9 2-5 2-4 8-8 4-1V351l-4-3-8-6-2-1-9-8-8-10v-9l1-10 2-9 5-4 7-5 2-1 10-2 4-6V-22l-4-6-10 1h-9l-10-4-3-1h-10l-6 2-9 1-9 1h-10l-9-1h-19l-7-3h-3l-9-6-3-3-7-7-2-2-7-8-2-2-7-8-1-1-3-9 3-9 1-1h9l2 1 7 2 6-2 4-2 9-5h10l9 3 10 2h9l7 2h3l9 4 7 5 2 2 10 6 3 1 6 3 10 1 9 2 10-1 4-5v-37l-4-5H464l-7 5-1 9-1 2-1 8-4 9-4 8-1 1-9 8h-9l-10-2-8-6-1-1-5-8-5-6-9 2-9 4-3-9 3-2 9-1 8-7 1-1 10-7 2-1-2-5H181l-9 5v1l-7 8-3 2-9 1-9-3h-1l-9-7-3-2-6-5H-8l-9 5v1l-2-1-7-5h-67l-4 5V-3l4 1 3-1 7-4 9-3h10l5 7 4 2 10 7 9 7 4 2 6 4 9 5h1l8 2 5-2 5-2 5-7 4-7 1-2 4-9v-10l-3-9-2-8v-2l8-9 2-1 9-3 10-4 9-1 10 3 9 3 5 3 4 4 4 5 1 10-2 9 1 10 2 9 4 7 3 2 6 3 10 6 4 10 4 9 1 2 4 7-4 8-4 2-5 1-10-1h-4l-5-2H77l-9-1-9-5-2-2-8-4-9-3-10-1-9 3-7 5-3 4-4 6-5 5-7 4-3 3-8 7-1 1-9 3-10 4-9 1-10-9-9-9-2-1-8-2h-9l-10-2-4 4v112l4 3 7 7 3 5 3 4 6 8 2 1 7 9v10l-4 9-5 4-9 4-4 2-6 3-4 6v224l4 8 4-8 3-10 3-7 1-1 4-10 1-9 1-10 2-9 7-9 3-3 4-7 4-9 1-2 6-8 4-5 2-4 7-8 4-1 6-2h18l7 2 3 1 9 7 2 1 8 9v1l9 7 4 2 6 6 3 3 6 6 4 4 6 6 2 3 6 9 1 1 7 9 2 5 2 4 1 10-3 7-1 1 1 9v1l8 9 2 5v7l-10 6-9-1-4-7-2-10-3-7-1-2-7-10-2-1-4-7-3-10-2-4-7-5-3-2-9-2H2l-10 1-9 3h-1l-8 2-8 7-2 3-5 7-4 6-6 2-3 10v9l-1 4-1 6-3 9-2 9-3 9-1 1-9 3-9-2h-10l-4 8v280l4 5h208l3-5-3-1-9-6-6-2-4-4-5-5 5-4 10 1 9-3 4-4 6-7 1-2 8-8 2-2 7-4 6-5 4-3 6-6 3-4 10-4h9l10 3h9l7-5 3-1 9-4 9-4h1l9-5 9-2 10 1 9 2 4 4 6 7 2 2 7 6 7 4 3 1 9 6 8 2 1 1 2-1 8-2 9-7h2l8-8 1-2 8-8 10 1 9 7h1l7 10 2 5v7l-4 6-6 7-5 3-4 2-10 1-9 5-3 1-7 7h-9l-10 2v1l-9 3-9 4-6 2-4 2-7 7 7 5h397l5-5 3-9-3-9-5-3-3-7-2-9 2-10-2-9-2-9 1-10 1-9-1-9v-9l4-10 2-3 5-6 5-7 2-3 7-3 9-3 7-3 3-3 9-3 10 1 3 5 1 9v19l2 10 1 9v9l-3 9-4 10v1l-5 8-5 6-3 3-6 7-2 3-5 9-3 9-1 1 1 1 3 8 4 9 3 5h123zM663-76l-9-1-3-1-3-9 6-3 9 2 1 1 3 9zM522 3l-10 3-9-1-10-4-3-4-2-10 2-9 3-5 5-5 5-5 3-4 6-5 10-4 9 5 7 4 3 6v15l-3 7-7 9-1 1zM323 9l-10 3-4-6-5-7-1-2 1-5 9-1 9 6 1 2 2 7zm-123 7l-9 2-5-3 5-3 9 2 1 1zm482 42l-9-1-7-5-3-5-1-4-8-9v-1l-10-8v-1l-4-9 4-5 10-4 9-3 10 1 7 2 2 1 10 1 5 7 3 9-1 10-5 9-2 7-3 2zm-274 4l-10 4-9 1-9-1-10-2-9-2h-1l-9-7-1-3-7-9-1-2-5-7V24l5-3 9-5 1-1 9-3 9-2 7-4 3-2 8-7 1-2 9-4 10 2 5 4 4 3 6 6 4 9-1 9-2 10-2 9-2 9-3 4-8 6zm95 94l-10 4h-9l-10 2h-10l-9-4-4-3-5-7-2-2-2-10-3-9-3-9v-6l1-3 5-10 4-2 9-5 9-1 10 3 10 1 9-2 10 1 9 2h10l9 3h1l9 7 1 3-1 5-2 4-8 6-2 3-6 9-1 3-7 7-3 3-8 6zm-246 37l-10 5-9 1-10-3-6-3-3-2-6-8-3-6-4-3-6-6-6-3-3-3-10-7-9-6h-10l-9 5-1 1-9 6-7 4-2 1-9 1-10-1-2-1-7-6-4-4-6-9 8-10 2-1 9-3 7-5 3-1 9-2 8-6 1-1 6-8 4-6 5-4 4-2h10l9 1 10-3 9-3 10-2 9-3 9-6h1l4-10 3-9 2-3 9-2h10l8-5h2v10l-1 7v15l1 6 4 9 5 6 2 4 7 8 1 1 7 9 2 3 4 6-4 7-1 3-9 8-1 1-6 10-2 2-4 7-6 8-1 1zM21 204l-10 1-4-3-3-9 6-10 1-1 10-5 9 6h1v10l-1 1-6 8zm340 59l-10 3-9-8v-1l-3-8-1-10 1-9 3-9v-1l3-9 4-9 2-8 6-1 4-3 2 3 7 5 4 4 6 7 1 2 3 9 5 8 2 2 3 9-5 3-9 5-1 2-9 7-2 2zm-95 7l-5-3v-9l5-1 1 1 1 9zm-283 41l-9-2-3-5-1-9-2-9v-9l6-6 9-2 9 8 5 9 1 9-6 8-1 1zm746 12l-9 4-8-4h-2l-9-6-3-3-6-8-1-2-2-9-2-9-2-9-3-6-3-4-6-6-4-3-6-6-6-3-3-2-10-3h-9l-10-2-6-3-3-2-9-4-7-3-3-2-7-8-2-3-5-6-2-9 7-8 1-1 8-8 1-2 8-9 1-1 5-8 4-3 9-1 7 4 3 1 9 6 3 2 7 4 6 5 3 3 10 6 3 1 6 1 10 2 9-3 9-6 7-4 3-2 9-5h10l9 5 3 2 3 10 1 9-3 9-4 3-6 6-3 6-2 4v9l1 10 1 6v3l3 9 6 7 3 3 4 9-4 9-3 4-4 5-5 9-1 1zm-623 23l-10 3-9-2-10-4-1-1-8-5-5-4-4-7-2-3-5-9-2-10-1-9v-10l4-8 6-5 9-3 9-1 10 2 9 7 8 9 2 2 9 5 10-3 9-1 9-2 1-1 7-9 2-3 9-5 10 2 7 6 2 2 7 7 3 6 2 3-2 3-6 6-4 2-9 4-10 2h-9l-2 2-8 6-1 3-3 10-5 4-9 1-10 3-1 1zm274-3l-3-1-7-4-7-5 7-5 7 5 3 6 1 3zm161 29l-10-1-1-1-8-3-10-4-6-2-3-3-10-6-2-1-7-5-10-1-10-1-8-2h-1l-9 3h-10l-5-3-4-2-10-1-9-2-1-4 1-2 9-7 2-1 8-3 7-6 2-8 1-2 3-9 6-7 8-2h2l8 8 1 1 9 9h2l8 4 9 4 9 2h1l9-3 10-4 7-3h2l10-3 7-6 2-1 9-7 3-1 7-4 8-5 1-1 10-7 9 3 2 5 8 7 1 2 8 9v1l5 8 4 9 1 1 9 6 3 3 6 4 10 2 9 2 2 2-2 5-1 4-6 9-2 2-10 3-9-1-10-3v-1l-9-7-2-2-7-5h-10l-9 1-10 3-2 1-7 4-9 5-1 1-5 9-4 6-5 3zm132 161l-10 3-9-1-10-4-3-2-6-8-1-2-1-9-2-9-5-10 1-9 5-10 3-2 9-3 10 3 9 1h10l9-2 7-5 3-4 6-6 3-4 2-5 2-10 4-9 1-5 2-4v-10l1-9 2-10 5-9 5-9 2-9 2-3 10 1 5 2 4 1 5 8 5 6 2 3 7 6 4 3 6 9v1l1 9v10l-1 3-4 6-6 9-9 9-2 1-8 4-9 5h-1l-7 10-2 2-5 6-4 5-4 5-4 9-2 9v1l-3 9-6 7-3 2-6 4-10 5-1 1zm-322 29l-9 3-10-5-3-3-6-5-3-4-7-6-7-4-2-1-9-4-10-1-9 1-10 1-9-1-10 1-9 3-10-1-9-4-9-1h-10l-9-2h-1l1-3 8-7h1l8-9 2-2 5-7 1-10 3-6 2-3 1-10-3-3-4-5-5-9-1-1-9-4-8-5-1-1-9-9h-1l-7-9-2-3-4-6-5-10-1-2-3-7-2-10 3-9 2-1 10-5 9 2 10 2 9-4 8-3 2-1 9-4 9-4h1l7-10 2-3 2-6 2-9 4-10-1-9-7-8-1-2 1-6v-3l9-5 10 1 9 1 3 3v9l-1 10-2 8-1 1-1 10 2 4 2 5 4 9 1 10-6 9-1 1-4 8-3 9-2 10-4 9-4 10-2 5-1 4v9l1 3 2 7 2 9 6 6 6 4h3l10 5 9 2 10-2 9 2 3 1 6 7 7 3 3 1 9 3 10 4 4 1 5 3 10 1 9-2 1-2 9-4 5-5 4-4 3-6v-8l2-10 3-9 1-5 2-5 8-9h1l8-1 6 1 4 1 9 4 5 4 5 4 7 6 2 2 5 7 4 6 4 4 6 4 5 4 5 6 4 4 5 7 1 2 6 10v9l-5 9-2 3-9 6-2 1-8 4-10 4-2 1-7 3-9 3-10-2-5-4-4-4-5-5-5-4-9-6-10 1-9 3-8 6-1 1-8 8-2 2-6 8-3 2-7 7zm397 52l-5-1-4-1-10-5-1-4-6-9-1-9 6-10 2-2 10-4 6-3 3-2 10-3 9 4 1 1 1 9v10l-2 6-1 3-7 9-1 1-9 9zm-397 9l-1-1-8-9-10 4-9 5-10-8-9 1h-9l-1-2 1-1h9l9-1 10-2 9-3 4-3 6-3 2 3-1 10 8 4 3 5zm378 10l-1-1 1-4 5 4zm-491 17l-10 1-3-1-6-2-9-5-5-2-5-5-4-4-3-10 1-9 6-6 7-4 3-1 9-4 9-2h10l9 2 10 3 6 2 3 3 8 7-2 9-6 8-2 2-7 2-5 7-5 3zm208 5h-10l-9-2-3-3-6-9-1-1-6-8-3-10 4-9 5-4 10-1 9 1 10 3 1 1 6 9 2 10 1 9-1 6-1 3zM96 717l-9 2-9-3-1-1-5-9-4-6-3-3-6-5-6-5-4-3-5-6-4-4-4-5-6-8-1-2-7-9-1-2-6-7-4-6-4-3-5-5-6-5-4-3-6-6-3-3-9-7v-1l-5-8-2-9-1-10 8-8 2-1 7-2 9-2H2l9-1 10-2 9-2h1l9-7 2-2 5-10 2-4 3-5 6-10 1-1 9-4 3 5 6 4 3 6-1 9-1 10 4 9v9l-1 9 3 10-1 9-2 9 1 10v9l-1 10-1 9 2 9 4 9 1 2 6 8 3 4 5 5 5 6 3 3 6 9 1 1v9l-1 2-9 5-5 3zm-66 93l-9 2H11l-8-3-1-1-10-3-9-2-5-3-4-6-2-4-1-9 1-10 1-9 1-9 9-7 9 5 1 2 3 9 6 6 6 3 3 3 7 7 3 4 4 5 5 10v1l2 8zm482-1l-9 3-10 1-9 1-10-1-10-3-2-1-7-2-9-5-2-2-5-10-3-8v-1l-1-10 1-3 4-6 6-3 9-5 3-1 6-4 10-1h10l9-2 8-3h2l9-8 1-1 4-9 4-9 1-2 4-8 5-5 5-4 5-5 6-5 3-3 9-3 7-3 3-2 5-7 4-6 2-4 3-9 3-9v-9l-5-10-3-4-6-5-3-5-4-5-6-3-8-6-1-1-6-8-3-9-1-1-5-9-1-9 7-5 9-2 9 4 3 3 5 9 2 4 4 5 5 5 8 5 2 1 9 2 10 2 5 4 4 3 7 6 2 2 10 5 3 3 6 8 1 1 2 10 1 9 4 9-1 9-7 8-1 2-8 9h-1l-9 3-9 3-9 1-9 2-1 1-9 9-6 9-4 5-5 5-4 2-10 7-7 9-2 3-6 6-3 4-8 6-2 2-8 7-1 4-2 5-3 10-2 9-1 10z" clip-path="url(#s)" transform="matrix(.97898 0 0 .97391 22 40)"/>
    <path fill="#e7dfba" d="M847 734v-9l-4-5-7 5 3 9 4 9zm-739 84l-2-1-10-5-9-3-10 4-6 5 6 5h29zm125 0l-5-3-7-6-2-2-9-1-7 3-3 2-9 7h-1l1 5h37zm614 0l-4-1-10-2-9-3-2-3-5-9-3-6-2-4v-19l2-9v-19l5-9 5-6 5-3-3-9-2-3-4-7v-9l4-5 2-5 4-9 3-4 5-5 5-5 4-5V361l-4-7-4-3-6-5-3-4-6-5-5-4-5-6-2-4-1-9 1-10 2-9 10-9 9-4 10-2 4-3v-66l-4-7-4-2-1-9 5-5 4-5V-22l-4-1-8 1h-2l-9 1-6-1-4-2-9-3-10 2-9 2h-38l-9-1-10-2-6-6-3-1-8-8-2-2-7-7-2-2-9-8v-1l-9-8-1-1-9-1-6 2-4 1-3-1-6-2-10-6-2-1-7-9 9-7 10-1h9l10 1 7-3h2l10-1 4 1 5 2 9 3 10-4 2-1 7-1h10l3 1 6 3 10 1h9l10 1 9 5 9 7 3 2 7 5 9 3 10 1h4l5 1 10-1 4-9v-28l-4-5H464v9l2 5-2 8v2l-8 9h-1l-5 9-4 6-4 3-6 4h-9l-10-2-7-2h-2l-10-9-9-1-9-1-10-4-5-3-2-9 7-6 10-1 8-3h1l9-7 3-2-3-5H181l-4 5-5 9h-1l-9 5-9 1-10-3-7-3-2-1-9-8h-1l-9-5H-8l-2 5-6 9-1 2-6-2-3-1-6-8-4-5h-57l-4 5v93l4 6 10-4 5-2 4-1 10-3 6 4 3 5 2 5 8 5 4 4 5 3 9 6 1 1 9 3 9 1 8-5h2l6-9 3-9v-10l-3-9-3-10 4-9 2-3 10-4 9-2h1l9-3 9-1 10 3 1 1 8 3 9 5 2 1 6 9 1 10-2 9v10l2 9 1 1 9 7 3 1 7 4 6 5 3 6 5 4 4 9 1 4 1 5v10l-1 3-10 1-9 1H96l-9 1-10 1-9-3-5-4-4-3-9-7h-1l-9-3-10-1-9 4h-1l-8 10-1 1-8 8-1 1-10 9-9 5-9 4h-1l-9 2-9 1-7-3-3-2-5-7-4-4-10-4-9 1-10-2-4 9v93l4 9h1l9 10 7 9 2 2 6 7 4 4 3 5 1 10-4 9h-1l-9 8-4 2-5 2-10 7h-4v214l4 9 2-9 4-8 3-10 1-1 2-8 2-10v-9l4-9 1-1 10-9 4-9 5-9 1-1 7-9 2-3 4-6 5-8h10l9 1 9 1 10 3 4 3 5 4 5 5 5 5 4 4 5 4 9 6 1 1 8 8 1 2 9 8 1 1 9 8 7 9 2 3 3 7 3 9 2 10 1 8 1 1 1 9 2 9 2 10-2 9-3 9 1 10-1 3-2 6-1 10 3 5 1 4-1 9v5l-1 4 1 2 2 8-1 9-1 3-2 6v10l1 9-1 10-1 9 1 9 2 4 3 5 6 8 2 2 8 9 6 9 3 4 5 6 2 9-5 10-2 1-9 4-10 3-9 1-10-4-4-5-5-10-9-8-2-1-8-6-3-4-6-8-1-1-6-9-3-4-4-6-5-7-2-2-8-9-9-8-3-1-7-8-1-2-8-8-1-1-8-7-5-3-5-9v-1l-2-8-1-10 3-5 3-4 7-3 9-4 9-1h19l7-1 3-1 9-4 5-4 5-5 2-5 6-9 1-3 4-7 3-9 1-9-1-10-3-9-4-5-2-5-6-8-1-3-5-7-5-5-9-2-10-2H2l-10 1-9 3-9 4-2 1-7 10h-1l-7 8-2 8-2 2-3 9-2 10-3 9v1l-1 8-3 10-5 5-10 3-9-2-10 2-4 1v65l4 5 2 5 2 9-3 10h-1l-4 9v46l4 10 3 9-1 10-2 6-4 3v93l4 5H59l2-5-2-1-10-5-9 2-10 2-9 1H11l-9-1-10-2-9-4-2-1-7-6-2-3-3-10-1-9v-10l1-9v-9l1-10 4-4 9-3 9 2 4 5 4 10 2 4 2 5 7 6 4 3 6 7 3 3 6 8 2 1 8 6 9-3h10l8 7 1 1 9 1 1-2 6-10 3-2h9l5 2 5 2 6-2 3-1 7-8 3-4 5-6 4-3 9-6 10-9 9-9 2-1 8-2h9l10 2h9l10-5 9-4 9-4 10-4 5-1 4-1 10 1h1l8 1 9 8 1 1 6 8 3 3 10 5 3 2 6 3 9 2 10-3 3-2 6-6 4-4 6-4 5-5 4-3 10 1 3 2 6 4 5 5 5 6 2 4 2 9-3 9-1 3-7 7-3 4-9 3-8 2-2 1-7 9-2 5-10 1-9-1h-10l-9 2-6 2-3 1-10 6-1 2 1 5h189l4-5h-4l-10-4-9-4-4-1-5-3-7-6-3-7-1-3-3-9v-10l3-9 1-2 10-4 6-3 3-2 9-6 10-1h9l2-1 8-4 9-5h1l9-9 4-9 6-7 1-3 8-8 1-1 9-9v-1l8-9h1l9-3 9-6 1-1 6-9 3-4 2-5 3-9-1-9-4-8-2-2-7-6-4-3-6-7-2-3-7-5-4-4-5-9v-2l-5-8-5-8-1-1-3-9 4-7 5-2 5-1 9-1 2 2 7 2 7 7 3 4 3 5 6 7 5 2 5 4 9 4 5 2 5 1 9 7 1 1 8 7 3 2 7 4 7 6 2 2 4 7 2 10 3 9h1l3 9-1 9-2 5-4 5-6 6-2 3-7 5-10 1-9 2-8 1-1 1-10 4-5 5-4 6-3 3-7 10-9 6-4 3-6 8-1 1-8 9-9 10-10 7-2 2-5 9-2 6-2 4-2 9-1 10 1 9-6 6-9 1h-10l-7 2 7 5h180l3-5 2-9-1-9-3-10-1-7-1-2 1-2 1-8-1-9v-2l-2-7 1-10 1-6v-6l-1-6-1-9 2-3 3-7 6-9v-1l6-9 4-3 9-4 5-2 4-2 10-7 2-10 1-9-3-9v-1l-2-8v-10l2-4 3-5-2-10-1-1-2-8v-9l1-10 1-2 2-7 5-9h12l9-2 10-1 9 1 4 2 6 7v9l-1 2-2 10-2 9-5 5-4 4-5 7-3 3-3 9-1 10-2 9-1 6-2 3 2 4 1 5 2 10-2 9-1 5-1 4-1 10 2 9v3l2 7 1 9-1 9-2 7-1 2-4 10-4 9-9 9-1 2-6 8-3 4-2 5-3 10 4 9 1 1 2 8 7 5h114zM578-18h-9l-7-4v-10l7-5 3-4 6-5 8 5-1 9-3 10zM522 7l-10 2h-9l-10-2-1-1-7-9-2-7v-7l2-5 5-10 3-8 1-1 9-8 1-1 8-3 10-1 9 3 5 1 5 2 9-1 5 8-4 9-1 2-1 8-5 9-3 3-6 7-4 2-8 7zM191 26l-5-2-5-2-6-7 5-9 1-1 10-4 9-1 10 4 1 2-1 4-2 5-8 9h-1zm198 46l-5-1h-4l-10-2-9-2-9-5h-1l-5-10-4-4-4-5-6-8-1-1-4-10-4-3-10 1-6-7-3-3-3-6-6-9v-12l4-7 5-5 4 5 5 5 4 4 6 4 5 6 3 9 1 8 10 1 9-5 10-2 9-1 1-1 9-6 3-3 6-6 9-4h5l5 1 9 6 4 3 6 7 1 2 2 9-1 9-2 9v1l-2 9-2 9-6 9v1l-9 4-10 5h-4zm303 20h-10l-4-2-4-9 6-10-7-5-4-4-6-4-4-6-5-9v-1l-10-8-7-10-2-3-3-6V6l3-6 9-1h10l9-1 10 1 9 2 10-1 4 6 5 7v2l3 9-2 10-1 4-2 5-3 9 2 10v9l-4 10v9zm94 1h-9l-4-3-6-8-1-1 1-4 3-6 7-4 9-1 5 5-3 10v9zm-293 72h-1l-9-1-3 1-6 1h-10l-1-1-8-4-8-6-1-1-5-8-2-10-3-6-1-3-2-9v-9l3-10h1l9-7 5-2 4-2 9-1 9 3h1l10 1 6-1 3-1 5 1 5 1 9 1 9-2h2l8 2 10 2 9-3 9 4 10 1 9-4 6 7 1 10-5 9-2 1-9 2-4-3-6-9v-1l-2 1-7 2-3 7-6 6-5 3-5 4-4 5-4 10-1 4-10 5h-1l-8 6zM21 208l-10 1-9-6-2-1-2-9 4-4 4-6 5-8 2-1 8-6 9 3 4 3 6 4 2 5-2 4-4 6-6 8-1 1zm226-6h-9l-10-3-9-5-1-1-8-10-8-9-2-2-9-6-3-1-7-6-5-4-4-2h-10l-4 2-5 3-8 7-2 1-9 5-9 3h-2l-8 2-4-2-5-4-4-5-6-6-5-4v-9l5-10 10-5 5-4 4-2 10-5 7-2 2-1 9-7 2-1 6-10 2-2 9-4 10-1 9 1 10-3h1l8-3 10-1 9-3 4-2 5-9 1-1 2-9 4-10 3-1 9-2 10-5 4-1h6l9 9-3 10-2 9 1 10 3 9 1 1 2 8 4 10 3 3 5 6 5 5 4 4 5 8 1 1-1 2-4 8-5 5-5 4-5 5-3 5-6 9-7 9-3 3-5 7-4 5-9 4zm114 66l-10 6-9-5-1-2-3-9-2-9-2-10 2-9 3-10 3-9 3-9 2-9 1-10-1-9-1-9 4-10 1-1h10l2 1 6 10v9l1 8 1 1 2 10 7 6 1 3 5 9 3 7 2 2 7 7 4 3 3 9-7 5-9 4v1l-9 4-6 5-4 3-9 6zm-378 50l-9-3-2-1-5-10-1-9-2-7v-2l-1-9 1-3 6-7 4-3 9-1 8 4 1 1 5 9 4 9 1 7v3l-5 8-5 7-3 3zm746 10l-9 4-10-3-9-6-9-8-1-1-4-10-2-9-1-9-2-9v-1l-6-9-3-3-7-6-3-2-9-6-4-1-6-2-9-1h-10l-9-2-7-5-2-1-10-3-4-5-5-6-3-4-7-8-1-1-8-5-10-4h-1l-4-9 5-5 10-2 9 5 10-5 2-3 7-6 3-3 6-9 1-1 9-8h9l10 4 4 5 5 3 10 6 9 7 3 2 7 5 9 3 10 2 9-4 9-5 1-1 9-7 5-2 4-2h10l5 2 4 2 9 7 1 2 1 8 1 9-2 9-10 8-2 1-5 10v9l1 10 1 9 5 9v1l9 9 1 1 3 8-3 6-2 3-6 9-2 4-3 6-6 6-4 3zM96 353l-5-2-4-1-10-4-7-4-2-1-8-8-1-2-6-8-4-7-1-2-3-10-1-9-1-9 5-9 1-2 10-8 9-2 9-1 10 2 1 1 8 6 5 4 5 6 5 3 4 2 10-2h2l7-1 9-4 3-4 7-9v-1l9-3 9 3 1 1 9 6 4 3 6 6 4 3 5 8 2 1-2 2-6 7-3 2-10 5-6 3-3 1-10 2-9 2-5 4-3 10-2 3-9 6-9 1-10 3-9 5h-3zm454 20l-9 4-10-3-9-3-2-1-8-3-9-4-4-2-6-4-10-5h-9l-3-1h-7l-9-2-7 2-2 1h-10l-1-1-8-5h-10l-9 1-10-2-9 2-9 3-10-4-7-4-2-2-7-7 4-10 3-3h9l4 3 6 5 8 5 1 1 9 1 1-2 9-9 1-1 8-3 10-6 6-10 3-9v-1l6-8 4-7 6-2-6-6-3-4-7-4-3-5 3-8 10 1 9 4 5 3-3 9 4 10 3 2 3 7 4 9 3 3 9 5 5 1 5 3 10 3 9-2 8-4h2l9-2 10-4 3-3 6-3 7-6 2-1 10-6 3-2 6-7 4-3 6-4h9l3 4 4 10 3 2 5 7 4 5 3 4 6 9 10 10 9 8 4 1 6 2 9-1 10 5 3 4-3 1-6 8-4 6-2 3-7 7-9 3h-11l-9-3-7-7-2-2-8-7-1-1-10-1-9 1-2 1-8 3-9 5-3 1-7 7-2 3-5 9zm28 67l-9 1-10-2-2-4-5-9 5-9 2-1h10l7 1h2l5 9 1 9zm85 100l-9-2h-1l-9-4-8-5-1-2-4-8-1-9-2-9-3-6-1-4v-9l1-6 2-4 8-8 9-1 4 1 6 1 9 2 10-1 9-2h1l8-10h1l7-9 2-7v-3l5-9 3-9 1-10v-9l3-10 4-9 2-9-1-9 2-5 5-5 4-1 2 1 8 3 9 4 4 3 5 9 1 1 7 8 2 2 9 7 1 1 4 9 1 9v10l-5 9-8 9-2 4-6 6-3 2-10 5-3 2-6 6-3 4-7 8-9 10-5 9-2 10-2 9-1 2-5 7-4 4-8 6-1 1-10 3-9 5h-2zM436 660l-8-1h-1l-10-9-6-9-3-4-7-5-3-6-9 3h-9l-10-2-9 4-4 1h-9l-6-3-10 2-9-1-10-6-9 1-9 2-10-2-8 7h-1l-10 6-7 3h-2l-10 7-2 2-7 4h-10l-9-2-5-2-4-2-10-6-1-1-8-9v-2l-2-8v-9l2-5 6-5 3-1 10-5 6-3 3-1 9-1 10 1 4 1 5 1 10 3 9 2 10 3h2l7 4h10l9-4 9-4h10l6-5 3-3 9-6 1-10-7-9-3-1-9-8-8-9-2-2-9-6-7-2-2-1-10-1-9 2h-3l-7 1-3-1-6-1-10 1h-1l-8 2h-10l-6-2-3-1-9-2-10 3-9-2-10-4-3-3 2-10 1-1 10-4 9-3 1-1 7-9 1-10 1-3 2-6 2-10-4-8-10-10-9-7-3-2-7-7-3-3-6-7-2-2-5-9-3-5-2-5-4-9-3-10 2-9 7-6 8-3 2-1h9l6 1 4 1 2-1 7-2 10-6 4-1 5-3 9-7 7-9 1-9 1-10-1-9-4-10v-9l6-8 3-1 6-5 9-4-4-10 1-9 3-9 1-4 9 3 1 1 6 9 2 9-5 10 2 9 4 6 1 3-1 9-2 10-2 9-1 10 3 9 2 3 3 6v10l-3 5-3 4-6 9-1 2-2 7-3 10-3 9-1 2-4 8-3 9 1 9 4 10 2 5 3 4 6 4 7 6h3l9 3 10-1 9 1 7 5 2 2 10 7 4 1 5 2 10 3 9 3h10l9-4 6-4 4-2 7-8 1-8 1-8v-2l3-9 4-10 2-3 6-6 4-3 9-1 10 2 6 2 3 2 10 7 9 8 2 2 7 9v1l10 9 9 8 1 1 8 9 1 1 6 8 4 7 1 3v9l-1 5-3 4-7 8-2 2-7 4-10 5h-1l-9 4-9 4-6 2-3 1-7-1-3-1-9-7-1-2-8-9h-1l-9-6-10 1-9 3-2 2-7 9-10 8-1 2-8 7-3 2-4 9-1 9-2 5-7 5 7 9h1l9 5 9 3 1 1 9 6 9 4 9 5 5-5 5-5 9-4 10 1 9 1 10 2 9 5v1l4 8 1 10 1 9-1 9-5 4-9 5h-3z" clip-path="url(#t)" transform="matrix(.97898 0 0 .97391 22 40)"/>
    <path fill="#e9e4c0" d="M683 314l1-10-2-9-1-9-3-9-5-9-1-1-9-7-3-2-6-4-10-4-9-1-10 1-9 2-9 6h-1v9l1 2 2 8 6 9h1l6 9 3 5 6 4 4 4 6 6 3 3 10 3h9l10-1 9-3zM98 818l-2-1h-9l-2 1 2 5h9zm129 0l-8-7-9-2-10 7-3 2 3 5h19zm113 0l-8-5-9-2-10-1-9 1-9 2-7 5 7 5h37zm478 0l-2-9-2-3-4-6-4-10v-37l1-10 4-9 3-6 3-3v-9l-3-6-1-4v-9l1-2 6-8 4-3 3-6 6-9v-1l9-9 1-1 4-8V361l-4-2-10-7v-1l-7-9-2-2-10-7-6-10-1-9v-10l2-9 5-5 5-4 5-4 9-4 10-1h4v-57l-4-9h-1l-9-5-5-4-1-9 6-5 4-5 6-3 4-6V-13l-4-5-10 1-9 1-10-2-9-3-10 2-9 2h-28l-10-1h-19l-3-4-6-5-4-5-6-5-3-4-6-6-4-3-5-5-6-5-4-3-9-2-10 1-9-2-7-3-3-1-9-4-10-2-1-2 1-8v-1l7-10 3-3 9-1 10 1 9-1h10l9-2h10l9 2 9 3 10-3 9-2 10 1 9 2 10 2h9l10 1 9 4 5 6 4 3 7 6 3 2 9 3h10l9 1 10-4 4-2v-28l-4-5H474l-5 5 4 9v10l-9 9-8 9-1 1-6 8-3 3-10 5-9 1-3 1-7 5h-9l-2-5-8-3-9-6-1-1-8-5-10-3-2-1-7-4-7-5-3-9-3-10 3-3 10-1 9 1h10l9-2 6-4-6-5H191l-8 5-2 2-5 7-4 4-10 5-6 1h-4l-9-3-9-4-5-3-4-4-8-5-2-5H2l-7 5-3 7-1 2-3 10 4 7 1 2-1 3-9 2-6-5-3-4-6-5-3-10-1-2-3-7-6-5h-48l-4 5v93l4 1 2-1 8-2 9-3 10-4 9 4 3 5 4 10 3 2 8 7 1 1 10 5 9 2h9L2 8l1-2 5-9-1-10-4-9-1-3-2-7 1-9 1-1 7-8 2-2 10-2 9-1 10-3 9-1 10 4 8 5h1l9 5 6 4 4 6 2 3 2 10-2 9-2 10 4 9 5 4 10 4 2 1 7 6 5 3 5 4 6 6v9l1 9 2 6 3 4 3 9-6 7-9-3-9-4h-13l-7 1-9 3H77l-9-3-1-1-8-7-3-2-7-5-9-5H30l-9 6-4 4-6 8-1 1-8 7-3 3-7 4-8 5h-1l-9 3-10 3-9 1-10-4-4-3-5-7-3-2-7-3h-19l-4 3v93l4 4 5 5 5 6 4 4 5 6 4 3 6 7 2 2 5 9 2 9 1 1-1 1-2 8-7 6-5 4-5 3-9 4-3 2-7 6-4 3v197h4l5-10 3-9 2-7v-10l-1-2-1-9 2-1 9-6 3-3 6-9 1-1 4-9 5-4 4-5 5-9 1-3 3-6 6-8 8-2h2l9 6 9 3 1 1 9 3 9 6 9 9 1 1 9 8h1l9 6 4 4 5 5 3 4 7 6 5 4 4 3 9 5 1 1 4 9 2 10 3 9v1l4 9 2 8v10l1 9 2 9v3l-1 7-2 9v10l-2 9-1 10 4 9-1 9-1 9 3 10-2 9-3 9v10l2 9-1 10-3 9 2 9 4 9 2 3 6 7 4 4 3 5 6 8 1 1 9 10 2 9 1 10-2 9h-6l-5-1-1 1-8 3-10 2-9-2-10-2-3-1-6-9v-2l-5-8-4-4-10-5-8-10-1-2-4-7-6-9-7-10-2-3-5-6-5-5-6-4-3-3-9-6-1-2-5-8-4-4-6-5-3-4-10-6-6-9-1-9v-10l3-9 4-4 10-4 3-1 6-4 9-1 10 1h9l10-3 7-2 2-1 8-9 2-2 4-7 4-10 1-2 3-7 1-9-1-10-3-7-1-2-5-10-3-5-4-3-6-9-5-1-4-1-10-2-9-2-10 1-9 4v1l-9 3-5 6-5 6-2 2-5 10-2 9h-1l-2 10-2 9-1 9v10l-4 3-7 6-2 1-10 3-9-1-10 2-4 5v46l4 5 10 4v5l-1 5 1 8v1l-2 10-8 5-4 4v46l4 4 6 6 4 9v2l-1 8-3 9-6 4-4 5v84l4 5h67l8-5-8-8-2-1-4-9-2-10-1-9v-19l-1-9v-1l-3-9-2-9 1-9 4-7 2-2 8-3 7 3 2 2 8 7h1l5 9 4 9 1 1 3 9 6 9 9 9 1 1 8 9 1 2 10 4 9-1h10l9 3 9-2 10-6 9 2 10 4 9-3 2-3 7-10h1l9-9h1l8-5 5-4 5-9v-1l9-4 10-2 9-1 10 2 9 1 9-5h1l9-4 9-4 3-1 7-5h9l10 2 9 1 4 2 6 5 2 4 7 9h1l9 5 9 4 1 1 8 1 3-1 7-6 4-4 5-3 8-6 2-1 9-6h10l9 7h1l9 9 6 10 2 9-3 9-5 8-2 2-7 9h-1l-9 4-10 5v3l3 7 7 8 1 1 8 5h94l1-5h-1l-9-4-9-4-2-1-8-9-4-10-3-9-1-10 2-9 6-6 9-3 1-1 9-6 6-3 3-2 10-1 9-2 7-4 3-2 9-6 2-1 8-8 1-1 6-10 2-2 8-7 2-3 6-7 3-4 5-5 5-4 9-5 10-7 2-3 4-9 3-8 1-1-1-8v-1l-9-9-1-1-9-9v-1l-7-9-2-2-8-7-2-3-3-6-5-10-1-1-6-8-4-8v-4l3-6 7-8h19l9 5 2 3 8 7 2 2 7 9 10 6 4 3 5 3 10 4 4 3 5 3 5 6 4 4 9 5 1 1 9 6 3 3 5 9 2 7 1 3 4 9 3 9-1 9-4 10-3 9-10 7-9 2h-12l-7 2-9 3-10 5-8 9-1 2-6 8-4 3-7 6-2 2-6 7-4 4-4 5-5 4-6 6-4 4-6 5-3 5-3 4-4 10-3 8v13l2 7-2 6-2 3 2 5h142l5-5 2-9 2-9-2-10-1-9 1-10-1-9-2-9v-37l3-10 3-4 3-5 6-10 10-7 3-2 6-3 9-5 3-1 1-10 2-9v-9l-3-9 1-10 3-9-1-10-2-9v-9l2-10-1-9-5-9v-2l10-7 9 1h19l10-1 9 2 10 4 3 3 3 9-2 9-2 10-2 9v1l-8 8-2 2-7 8-2 7-1 2-1 10-2 9-2 9 2 9 1 10-2 9-2 9-1 10 2 9 3 10v9l-1 9-2 9-4 6-2 4-4 9-3 5-4 4-6 7-2 3-5 9-2 10 4 9 3 9 2 5h85zM521 10l-9 3-10-1-9-1-8-5-2-2-2-7-3-10 2-9 3-10-1-9v-9l1-2 10-4 9-2 10-1 9 1 10 3 9 1 10-2 9 2 10 2 9-3 10 3 3 2 6 8h10l1 1v9l-1 5-10-2-2 7-7 6-4 3-6 2h-9l-9-2h-3l-7 1-10 7-1 2-8 6-4 3zM200 29l-9 1-10-2-5-4-4-4-9-5 7-9 2-1 9-8h1l9-4 9-1 10 2 1 3 5 9-3 9-3 7-2 2zm198 46h-28l-9-2-3-2-7-4-4-5-5-8-1-2-8-9-1-1-7-8-2-3-10-2-9-2-5-3-1-9-3-6-3-3-5-9 2-10 2-9 3-10h1l9-5 9 5h1l5 10 4 5 2 4 7 8 2 2 8 9 9-3 10-1 9-1 8-4 2-2 8-8 1-1 9-8h1l9-8 1 8 8 9v1l10 8v1l4 9 2 9-2 9-1 10-2 9-1 9v2l-4 8-6 5-9 4h-1zm294 25h-10l-1-1-8-5-3-4-2-9V71l-5-6-2-3-7-9-1-1-7-9-2-2-5-7-4-5-3-5-6-9-1-9 5-9 5-7h9l10 3h9l10 1 9 1 10-3 5 5 4 4 2 5 3 9 1 9-2 10-3 9v9l3 10v9l-3 10 1 9-2 5-5 4zm94 1h-9l-4-2-6-5-3-4-5-9 1-10 7-5 7-4 3-2 9-1 5 3 4 4 4 5-2 10v9l-2 4-4 5zm-284 66l-9 3-10-2-9 2h-10l-8-5-1-1-9-6-3-3-5-9-2-7v-3l-5-9-1-9v-9l1-10 5-6 6-3 4-2 9-5h9l10 3 9 1 10-2 9 1 10 1 9-2 10 1 9 2 10-3 9 2 10 1 9-3 7 5 3 3 3 6v10l-3 8-1 1-9 8-3 1-6 2-7-2-3-2h-9l-2 2-8 3-8 6-1 2-3 8-3 9-4 5-9 2-5 3zm-245 35l-10 4-9-1-8-3h-2l-9-6-5-3-4-6-4-4-6-7-4-2-5-4-8-5-2-2-9-6h-10l-9 5-3 3-7 6-4 3-5 2-9 2-10 3-9-4-4-3-6-7-4-2-5-5-5-5 3-9 2-2 5-8 4-3 9-6 1-1 9-7 3-1 7-4 9-2 4-3 5-6 3-4 7-8 4-1 5-1 10-1h9l10-3 9-2h10l6-2 3-2 5-8 2-9-1-10 3-5 10-2 4-2 5-2 10-4 9 1 10 3 4 2 1 9-3 10-1 9 2 10 2 9 2 9 2 5 2 5 8 8v1l9 7 2 2 7 8 3 1-3 7-1 3-8 4-6 5-3 3-8 7-2 1-6 8-3 4-4 5-6 8-2 2zm-236 9l-10 2-6-2-3-1-10-7-1-1v-9l1-1 9-9 1-1 5-8 4-8 2-1 8-3 9 1 7 2 3 1 3 8 3 9-4 10-2 2-6 7-4 3zm330 73l-9-6-1-1-6-10-2-9-1-8v-1l-1-10 1-6 1-3 4-10 2-9 2-9 1-9-3-10-1-9v-19l4-2 9-4h10l9 5 1 1 3 10v9l2 9 4 7v3l6 9 3 7 1 2 8 9h2l8 8 1 2 5 9-6 9v1l-10 2-9 2-9 5-10 7-3 2-6 8-3 2zm-368 41l-4-2-5-3-6-6-4-8v-2l-2-9-2-9-2-9 5-10 1-6 2-3-2-3-5-6-1-10 6-1 1 1 7 10 2 1 9 8 9 5 5 4 4 10 1 2 4 7 2 9-6 9H1l-6 10-3 6-5 3zm123 31l-10 2-9-3-7-4-3-1-9-5-3-3-6-6-2-3-7-10-1-1-7-8-2-8-1-2-6-9 4-9 3-2 3-7 6-7 4-3 6-4 9-2 9-1 10 2 6 5 3 3 9 7 1 1 9 6 10-2 9-2 7-3 2-2 6-8 4-5 9-2 10 3 6 4 3 3 9 7 1 1 9 7 4 1 6 5 7 4-7 7-3 2-7 2-9 4-8 4-2 1-9 4-10 2-5 2-4 3-3 7-4 9-3 3-9 3h-9l-10 3h-1zm501 90l-10 6-9-4-10-1-9 1h-10l-5-3-4-7-1-3-3-9-1-9 5-5 9-2 10 2 9 1 9 4 1 1 3 8 6 9v1l10 9zm85 93h-10l-9 3-10 2-9-2-9-4h-1l-9-7-2-2-5-10-1-9-2-9-4-10v-9l2-10 2-5 3-3 7-6h9l10 3 9 2 10-1 9-7 1-1 9-7 1-2 5-10 3-5 2-4 4-9 1-10 1-9 1-9v-1l4-9 1-9-1-9 2-10 2-9-8-5-9-2-9 2h-10l-8 5h-1l-7 9-3 4-6 6-3 3-10 4-9-1-10-4-4-2-5-6-3-4-6-5-10-2-9 1-10 4-5 2-4 3-7 7-3 3-3 6-5 9-1 2-10 1-7-3h-2l-10-5-9-3-2-1-8-3-9-6h-1l-9-5-9-1-10 1-9 1-9 1h-10l-9-4-10-2-9 2h-10l-9 1-9-1-10-2v-1l-9-5-7-4-3-4-2-5 2-10v-1l10-7h9l10 6 3 2 6 4 9-1 4-3 6-3 9-5 3-1 7-5 3-5 2-9 4-9v-4l3-5-3-3-3-7-6-8-1-1-7-9 8-4 9-1h10l9 2h9l3 3 1 9v9l2 10 3 9 1 2 4 7 5 4 10 4 5 1 4 2 10-1v-1l9-2 10-3 9-4h1l9-6 4-3 5-5 8-4 2-2 6-8 3-3 9-6 1-1 9-4 5-4-5-5-3-5-6-8-1-1-6-10-3-2-9-6-3-1-7-3-7-6-2-5-5-4 5-7 3-3 6-2 10-2 9-1 10-2 2-2 7-5 3-4 7-7 2-3 7-3h9l10 3 9 7 3 3 7 4 6 5 3 2 7 7 3 2 9 3 10 1 9-3 5-3 4-4 7-5 3-2 9-3 10-1 9 3 4 3 6 5 3 4 3 10 1 9-2 9-5 6-6 3-4 4-4 6-1 9 2 10 2 9 1 2 4 7 6 6 5 4 4 8 1 1h-1l-5 9-4 7-2 2-4 10-4 3-6 6-3 3-8 7-2 8-1 1h1l10 7 3 2 6 3 9 7 1 1 4 8 5 6 3 3 7 5 4 4 5 10v9l-1 10-6 9-2 4-4 5-6 8-1 2-8 6-6 3-4 2-7 8-2 2-5 6-5 4-6 6-3 6-2 3-2 10-2 9-3 9-1 1-8 9-1 4-8 5zM455 659l-9 5-10 1-9-2-7-4-3-2-6-7-3-3-9-6h-1l-9-5-9-1-10-1-9 1-10 1h-9l-10 2-9-2-8-4-2-2-9 1-3 1-6 1-10 1-9 5-4 2-6 2-9 2-6 5-4 2-9 6-10-1-9-2-9-4-3-1-7-4-7-5-2-3-4-6-2-10-1-9 2-10 5-3 9-3 6-3 4-3 9-3h9l10 2 9 2 10 2 9 3 10 1 9 2 10 1 9-3 7-4 2-3 10-1 6-5 3-6 2-4-2-2-5-7-4-3-5-6-5-6-3-3-6-4-9-3-10-1-9 2-10 1-9-2-10 1-9 3-10-1-9-3-9-1-10 1-9-1-10-1-7-1-2-9 4-10 5-9 10-3 9-4 2-2 2-10 2-9 1-10-3-8-4-4-5-6-4-3-6-6-4-3-7-7-2-2-5-7-5-9-5-10-4-8-1-1-2-10v-9l3-4 7-5 2-2 10-4 9-1 10 1 9-3 10-6 7-4 2-1 9-7 1-1 3-9v-10l-2-9-2-5-2-5-4-9 6-3 5-6 5-6 5-3 3-10 1-5 1-4 3-9 3-10 3-4 9 2 1 2 5 10 4 5 2 4 2 9-2 10 2 9 2 9-2 9-1 10-1 9-1 10 3 9 4 9 1 10-5 9-4 5-4 4-3 9-3 7-1 3-4 9-4 10-3 9 1 9 2 4 3 6 6 7 3 2 7 5 9 5h19l9 7 3 1 7 6 9 3 2 1 8 3 9 3 10-2 6-4 3-2 10-7v-1l2-8 3-10 3-9 1-4 2-6 7-9h1l9-6h9l10 1 9 3 3 2 7 5 4 4 5 5 6 5 3 5 4 4 6 5 6 5 3 3 5 5 5 6 5 4 4 7 1 2 4 10 1 9-2 9-4 4-4 6-5 3-9 6h-1l-9 5-9 5h-1l-9 4-9 5-10-4-7-5-2-2-6-8-4-4-6-5-3-2h-10l-3 2-6 4-4 5-5 6-5 4-5 2-7 7-2 5-2 4 1 9 1 5 1 5 8 5 4 4 6 7 3 2 6 4h9l5-4 5-2 9-1 10 1 9 1 10 1 9 4 6 6 3 9v2l1 8 1 9-1 9-1 1-8 8z" clip-path="url(#u)" transform="matrix(.97898 0 0 .97391 22 40)"/>
    <path fill="#e8e7c3" d="M387-106l-7-5h-19v5l9 1 10 1zm286 0v-5h-29v5l10 2 9-1zm163 28l7-7 4-2v-19l-4-5H701v5l9 3 10-2 9-1h29l9 1 10 3 9 5 9 9 1 1 9 8 3 1 6 2 10-1h9zM-3 6l5-5 2-4-2-10v-1l-3-8-4-10v-9l4-9 3-9 1-1-1-4-10 2-9-1-9-3-5-3-5-4-6-5-3-9 3-10-2-9-1-5h-48l-4 5v84l4 6 10-2 9-4 10-4 9 1 3 3 4 9 3 6 2 4 7 6 4 3 6 3 9 1 9-1zm194 75l9-3h10l9-6 1-1 1-9-2-7-1-3-2-9 3-9 9 2 10 2 9-4 10-2h9l10 2h9l5-10-1-9-4-6-1-3-2-9 3-10v-2l2-7 3-10 5-8 1-1 8-3 9 3h1l9 8 1 1 3 10 4 9 1 2 10 8h4l5-1h10l9-1 10-5 2-3 7-9 6-10 3-7 1-2-1-1-6-8-3-2-9-7v-1l-10-5-9-2-7-2-3-2-5-7-4-9-4-10-6-9v-5h-28v5l-9 3-10-2-6-1-3-5h-85v5l-10 8-1 1-8 8-3 2-7 1-9 1-10-2h-1l-8-4-9-4-3-2-7-5-9-3-4-1-6-5H2l-3 5-3 9v10l4 9 2 8v1l9 7 10 1 9 1 10-2h9l9 2h1l9 7 6 3 3 2 10 6 1 1 5 9 3 10v9L92-3l4 9h1l9 3 9 6v1l10 7 6 1 3 4 7 6-1 9 3 9v1l1-1 5-9 4-8 4 8-3 9-1 3-4 7v19l4 2 9 1h19zm19-47h-19l-10-2-9-4h-10l-8-4h-1l-2-9 2-4 5-5 4-3 10-6 9-8 4-2 6-1h9l4 1 6 3 7 7 2 5 2 4-2 7v2l-3 9zm459 280l4-1 5-9-1-9-1-9-1-9-2-3-6-7-4-3-9-6-10-4-9-1-10 2-7 3-2 2-5 7 2 10 3 4 3 5 6 9 10 8 2 1 7 7 5 3 5 2 9-1zm-502 47l5-2h9l10-1 9-4 5-3 5-3 9-4 3-2 6-9-1-10-6-9-2-3h-19l-9 3-10 5-9 4h-1l-9 4-7 6-2 8v1l-3 9-1 10 4 3 9-2zm-260 93l4-9 1-10-5-9h-4v28zm315 364l-3-2-9-2-6 4 6 5h9zm108 0l-7-2-10-1h-9l-9 2-2 1 2 5h28zm125 0l-9-3-7-6-3-3-3-6-3-10-3-6-2-3-1-10 1-9 2-4 6-5 3-1 10-4 7-5 2-2 10-6 9-1 10-3 9-5 2-1 8-5 4-4 5-5 3-5 7-5 3-4 6-6 3-4 6-9h1l9-8 2-1 7-4 7-6 3-7v-2l1-9-1-9v-1l-5-9-5-5-3-4-6-7-2-3-7-7-2-2-6-9-2-5-3-5-6-8-2-1-4-9 2-9 2-10 2-4 9-1 10 2h9l6 3 3 2 8 8 2 1 7 8 2 2 10 7 9 7 3 2 7 4 9 4 1 2 8 9 10 6 6 3 3 2 7 8 3 5 3 4 3 10 3 6 1 3 2 9v9l-2 10 4 9 5 6 9-2 5-4 5-3 9-6h1l5-10 3-6 1-3v-9l-1-4-2-5 1-10 1-4 2-5v-10l-1-9v-19l-1-4-1-5-8-9h-1l-8-7-5-2-5-3-9 1-9 2h-1l-9-3-10-4-5-3-4-3-6-6-4-10v-9l-2-9-4-10-1-9 1-10v-8l6-7 5-3 5-1 9 1 10 2h9l6-2 4-1 9-4 5-4 5-4 2-6 6-9 1-1 4-8 1-10 1-9 1-10 2-8v-10l-1-9 1-7 1-3-1-3-9-6-9 2h-10l-9 4-3 3-6 10-1 1-9 8h-1l-9 3-9-1-6-2-4-2-9-6-1-1-7-10-1-1-10-2-9 2-5 1-5 2-9 5-3 3-6 9-1 1-3 8-3 9-3 8-9-8-10-3-7-6-2-1-10-4-9-3-1-1-9-5-7-4-2-1h-10l-4 1-5 1-10 1-9-1-10 1-9-1-5-1-5-2h-9l-8 2h-11l-9-2-10-3-9-5-10-6-4-3-3-9 2-10 5-9h1l9-6 9 1 10 5 9 6h9l10-4 4-2 5-3 9-7 1-2 2-7 2-9v-9l-4-10-7-9-3-3-9-1-10 2-7 2-2 1-9 4-6 4-4 5-4 5-5 9h-1l-8 9h-1l-9-6-2-3-4-9-4-5-2-5-2-9v-19l2-9 2-5 2-5 2-9 1-9v-9l-3-10-2-9-2-9-7-7-10-3-9 3-9 7-10 6-2 3-7 9h-1l-7 10-2 3-4 6-5 6-10 1-9-1-10-4-3-2-6-3-8-6-1-1-8-9-2-2-9-7-10-7-4-2-5-5h-10l-7 5-2 2-7 7-3 2-9 4-9 3h-2l-8 2-8-2h-1l-10-9-9-7-6-2-4-4-4-6 4-5 2-4 8-9v-1l9-7 3-2 7-5 5-4 4-4 10-5h2l7-3 6-7 2-9-8-4-9-4-2-1-8-5h-9l-10 2-9 3h-4l-6-1-9-4-7-5-2-3-8-6-2-2-9-3-10 1-6 4-3 4-5 5-5 4-6 6-3 2-10 6-1 1-8 3-9 3-10 3h-2l-7 1-4-1-6-2-9-7h-1l-9-7h-19l-4 7v84h4l8 9 2 2 8 8 1 1 10 8 7 9 2 5 3 4 7 8 9 2 10 5 2 4 4 10 3 2 9 7 10 9 4 10 5 8 10 1 9-4 7-5 3-2 8-8 1-1 10-7 2-1 7-1 9-1 9 2h1l9 8 2 1 8 6 6 4 3 1h10l8-1 1-1 9-7 1-2 8-9h1l9-2 7 2 3 1 9 6 4 2 6 5 6 5 3 1 10 4 8 4h3l7-2 7-7 3-5 3-5 3-9 2-9 1-4 2-6 6-9 2-3 9 1 1 2 5 9 4 7 1 3 5 9 2 9 1 10v1l2 8v9l-2 5-1 4-1 10v9l1 10 1 3 2 6 1 9v10l-1 9-2 3-7 6-2 3-3 6-4 10-3 5-2 4-3 10-3 9 1 9 6 10 1 2 10 6 1 1 8 4 10 1h9l5 5 4 2 7 6 3 3 9 4 9 3h1l9 2 10-2 9-9 1-1 6-8 3-10 3-9 1-10 5-5 3-4 6-4 10-5h9l10 2 9 2 8 5 2 1 8 8 1 1 9 9h1l9 9 10 8 1 2 8 8 10 9 1 1 3 9 3 10 2 9-1 9-5 10-3 2-10 7-9 6-7 4-3 1-9 5-6 3-4 1-9 4-10-3-2-2-7-6-5-3-5-7-3-3-6-6-10-1-8 7-1 1-7 9-2 1-10 5-2 3-4 9 2 9 4 6 4 4 6 6 2 3 7 6 9-1 10-3h9l10 1 9 1 10-2 9 4 3 3 7 6 2 4 3 9 1 10 2 9v9l-8 8-1 1-9 5-9 4-9 1h-1l-9-2-10-6-3-2-6-5-5-4-5-3-9-6h-2l-7-2h-10l-9 1-10 1h-1l-8 1-10 1-9-2h-1l-9-6-9 1-9 3-10 2-9 2-10 4-9 3h-1l-9 6-6 3-3 2-10-1-4-1-5-1-9-3-9-5h-1l-9-7-2-2-5-9-2-10-1-2-1-7-1-10 2-4 10-5 9-3 10-6h1l8-3 9 1 4 2 6 1 9 3 10 2 9 1 10 2h2l7 1 10 1 5-2 4-3 7-6 2-6 10-1 2-3-2-2-5-7-5-7v-2l-9-9-9-4h-10l-9 4h-13l-6-3-10 1-3 2-6 2-10-2h-1l-8-3-9-1-10 1-9-1-10-1h-9l-5-5v-9l4-10 1-2 4-7 5-4 10-4 3-1 6-10v-2l1-7-1-8v-2l-1-8-8-10-10-9-9-8-2-2-7-9-1-2-3-7-5-10-1-2-4-7-3-10-1-9-2-5-2-4-7-7-3-2-6-7-10 2-9 5-10 1-7-1-2-1-10-4-5-5-4-2-7-7-2-2-6-7-4-6-4-4-5-6-3-3-7-8-2-2-7-4H11l-3 4-6 8-2 2-4 9-4 5-9 3-9-3-3-5-7-9-3-10-2-9-3-9-1-7-1-2 1-3 2-7v-9l-2-2-8-7-2-2-3 2-6 2-10 5-3 2-6 3-6 6-4 2-4 8v121h4l10 8 9-3 3-5 5-10 2-1 8-8 1-1 4-8 3-9 3-6 2-4 7-6 10-2 9 4 5 4 4 2 10 7 1 1 8 6 4 3 6 6 4 3 5 6 9 3 1 1 9 8 1 1 8 9 1 1 9 6 7 3 2 1 8 8 2 7v2l1 10 4 9 4 8 1 2 3 8-2 10v9l2 10-1 9-1 9v10l-2 9-1 10 1 1 3 8-1 9-1 9 3 10-2 9-2 8v11l1 9 1 10-1 9-1 4-1 5 1 2 3 7 7 9v1l6 9 3 4 5 5 5 5 3 5 4 9 2 6 2 4 7 9-9 9-9-2-10-1-9 3-10 1-4-1-5-1-10-2-9-4-2-2-2-9-5-9-1-1-9-5-7-4-2-4-3-6-4-9-3-4-4-5-5-9-1-1-7-9-2-1-9-7-3-1-7-6-2-3-7-10-9-9h-1l-9-6-6-4-3-6-2-3-1-9v-10l2-9 1-1 7-8 2-4 10-3 4-2 5-2h9l8 2h4l7-1 10-3 9-4 2-2 8-8 1-1 4-10 3-9 1-9-1-10-3-9-5-9-1-1-7-8-2-3-9-3-10-3-5-1-4-1-6 1-4 1-9 4-9 5-8 8-2 4-3 6-4 9-1 10-1 8-1 1 1 7v2l1 10 1 9-2 5-10-2-9 4-10 2h-9l-1 1-9 1-4 8v37h4l10 1 6 8-2 10v9l-2 10-2 3-8 6-2 1-4 8v28l4 8 1 1 9 8 2 2 6 9 1 3 4 7-4 3-5 6-4 1-10 8h-4v84l4 5h67v-5l-6-9-3-9-1-4-1-6-1-9v-19l-2-9-4-10-1-2-3-7-5-9 8-6 2-3 7-6 10-3 9 3 9 3 3 3 5 9 2 4 1 5 2 9 4 10 2 3 5 6 5 5 4 4 5 6 8 4 2 1 9-1h10l9 2 7-2 2-1 10-4h9l8 5h3l8-4 4-6 6-6 2-3 7-6 6-3 3-5 3-5 7-9h9l10-1 9-1 10 2h10l9-4 9-4 3-1 6-5 8-4 2-2 4 2h5l10 3 9 1 10 5 6 9 3 4 7 5 3 2 9 3 9-2 4-3 6-4 9-5 10-6 6-3 3-2 10 1 2 1 7 4 8 5 2 2 5 7 4 10 4 9-4 9-7 10-2 4-4 5-6 7-7 3-1 9 7 9 1 5h76zM21 215l-10 2-9 1-10-3-4-4-5-3-2-6 2-7 1-2 8-7 3-3 7-7 1-2 5-9 3-4 10-2 9-1h10l6 7 3 9 1 9-1 4-3 6-6 8-1 1-9 8-3 1zm586 245l-10-3-9-3-10-2-9 1h-10l-9-6-2-2-3-10-4-9-2-9 2-4 5-6 4-7 9 2 10 5h1l8 1 10 4 7 5 2 4 4 5 6 6 1 3 5 10 3 9zm55 358l1-4 2-5 2-9-1-10-1-9 2-10-1-9-2-9-1-2-1-8v-27l1-5 2-5 1-9-3-3h-9l-10-2-9-2h-10l-9 2-9 3-4 2-6 4-4 5-5 6-3 4-7 7-2 2-7 9-9 9-1 1-9 7-2 2-7 8-1 1-8 9-1 3-3 7-3 9v10l3 9-1 9 4 5h123zm148 0v-9l-5-7-2-2-1-10v-9l-1-10v-28l4-9 5-9v-9l-3-10v-9l7-9 1-1 8-9 1-1 5-8 4-6 4-4 6-8 4-1V370l-4-7-5-2-5-4-4-6-5-7-3-2-7-5-4-4-5-8-1-2-1-9v-10l1-9h1l8-9 1-1 10-7 4-1 5-3 10-2 4-5v-47l-4-3-10-3-6-3-3-1-4-8v-9l4-8 2-2 7-3 10-5 4-1V-13l-4-1-7 1-3 1-9 1-5-2-5-1-9-2-10 2-4 1-5 1-9 2h-10l-9-2h-10l-9 1-10 1-9 1-4-4-1-9-5-7-1-2-8-10v-1l-9-7-1-1-9-7-6-3-3-1h-10l-9-1h-10l-8 2-1 1-1-1-9-2-6-7-3-9 2-9 6-10 1-3 5-6-5-5h-9v5l-9 2-5-2-5-5h-9v5l-10 3-9-2-7-1-3-5h-85v5l4 9v10l-4 9-9 9h-1l-8 9v1l-10 7-4 2-6 4-7 5-2 6-2 4-3 9 4 9 1 1 4 9 4 9 1 9-2 9-2 10-1 9v10l-1 9-3 6-5 3-5 4-9 2-10 3h-9l-9-2-10 2-9-1-10-6-1-2-7-9-1-1-5-8-5-5-3-5-6-6-10-2-9-1h-9l-6 9-1 10-3 5-1 4-2 9 3 9 1 1 1 9 1 9 4 10 3 3 8 6 1 1 9 7 1 1 9 7 5 2 4 5 10 3h19l3 2 6 3 7 6 1 10 1 9 1 3 2 6 4 10 3 7 1 2 5 9 3 4 10 5h1l6 10 2 3 10 5 9-1 10 1 5 1 5 1 9 2 9 7-1 9v9l1 4 2 6 3 9 5 8 1 1 8 5 10 3 9-1 10-2 9-3 4-2 6-2 9-7 9-8 3-1 7-7 2-3 7-8 2-1 8-8 2-1-2-8-1-2-4-9-5-7-4-3-5-3-10-4-2-2-7-6-5-3-4-5-10-3-2-1-7-8-2-2-3-9-5-3-9 3-10 2-4-2-5-1-10 1-9 1-1-1-8-6-6-3-4-3-7-7-3-5-1-4-3-10-5-9v-1l-1-8 1-9-2-10-1-9 3-7 9 2 10-3 4-1 6-2 9 1 4 1 5 1 10 1 9-1 10 1h9l10-2 9 1 10 1 8-2h1l9 1 10 1 5-2 4-2 3 2 7 3 3 6 4 9 2 10-2 9-7 7-3 2-7 6-9 1-10-1h-9l-9 1-4 2-4 10-1 9-1 4-3 6 3 9 10 5 9-3 9-2 10-2 9-4 10-1 3-2 6-3 6-7 4-3 9-4h9l10 3 8 4 1 1 10 8v1l9 6 3 3 7 7 3 2 6 2 10 1 7-3 2-1 9-8 10-6 9-3h10l9 3 10 6 8 9 1 3 2 7 2 9-3 9-1 1-8 8-1 2-10 7v1l-1 9 1 6 1 4 3 9 5 9 1 2 9 7 2 1 6 9-6 9-2 2-6 7-3 10-9 9-1 1-9 7-2 2-1 9 3 2 9 6 3 1 7 5 3 5 6 9v1l10 8 9 9 4 10v9l-2 10-2 4-3 5-6 8-1 1-7 10-2 2-9 7-10 7-3 3-6 8h-1l-9 8-2 2-6 9-1 5-1 5-1 9-3 9-5 9v7l1 3 9 4 9 2 10 1h19l9 1 5 2 5 1 9 7 1 1 1 9-2 7v2l-3 10-2 9-4 7-2 2-8 7-3 3-3 9-1 10-1 9-1 9 1 9 1 10-2 9-3 9-1 10 4 9 2 10-1 9-1 9-2 9-5 10-3 4-2 5-6 9-1 2-7 8-3 4-2 5-1 10 3 9 4 9 6 5h66zM512 16h-9l-8-1h-2l-9-2-5-7-3-9-2-6-1-4 1-9 3-9-1-10-2-9 5-10 5-1 9-2h19l10 2 9 1 10 1v-1l9-1h9l10 1 9-2 10 2 9 6 10 2 9 2 5 9-3 10-2 9-7 9-2 2-10 1-9 1-10 2h-9l-10-1-9 2-4 3-5 2-10 7-9 8-7 1zm189 86l-9 2-10 1-9-3-3-3-5-9-2-7-1-2V71l-5-9-3-4-6-5-4-5-3-5-6-7-1-2-6-10-3-4-3-5-2-9 2-9 3-6 3-4 7-4 9 2 7 2 3 1 9 1 10 1 9-1 4-2 6-4 9 4 7 10 1 9 1 9v10l-1 9-3 9 1 10 3 9 1 9-1 8v4l1 7-1 3-2 6zm94 0l-9 3h-9l-10-3-3-3-5-9-1-1-4-8-1-10 5-4 7-5 2-1 10-6h9l9 4 4 3 6 8v4l-2 7 1 9-4 9z" clip-path="url(#v)" transform="matrix(.97898 0 0 .97391 22 40)"/>
    <path fill="#e6e7c2" d="M838-87l5-7 4-3v-9l-4-5h-57l-8 5 8 4 5 5 4 4 4 6 6 5 9 3 10-1 9-3zM610-69v-9l1-9-4-10h-1l-9-4-9 1-10 2-9-2-10-2-9-2-5-2-4-5h-57l-3 5 2 9-1 10-1 9 2 9h1l9 1 10-1 9 2 10 2 9 1 10-1 9-1 9 1 10-1 9-3 10 2 9 5h10zm74 47l8-8 1-2v-9l-1-1-10-6-2-2-7-3-10-2-9-1-10 3-3 3-6 6-3 3-6 9 9 8 2 2 7 2 10 3 9 1 10-1 9-3zM-1-3l-1-10-3-9-3-6-2-4-3-9-1-9-3-2-9-3-10-4-1-1-8-8-2-1-4-9-1-9 3-10-1-9-5-5h-28l-5 5-1 9-4 6-4 4v65l4 3 9-3h1l9-5 10-3 9 1 9 7 1 3 1 6 6 10 2 2 10 7h9l9-2zm281 27l2-9-4-9-1-9 1-10 3-9 4-8 1-2 4-9 5-4 9-3 9 2 9 5 1 1 8 8 1 6 1 4 5 9 4 3 9 1h10l9-2 3-2 7-4 3-5 5-10 1-4 2-5-2-3-4-6-5-4-7-6-3-1-9-2h-10l-7-6-2-3-9-6-1-1-3-8v-10l-6-7-10-1-9 5-9 2-10-3-9-2-10-1-4-2-5-5h-57l-3 5-6 5-5 4-5 4-5 6-4 1-10 3-9 1-10-2-9-3-9-5-9-5h-1l-9-4-10-2-9-1-10-1-2-1-7-5H11l-6 5-3 6-1 3v10h1l5 9 4 8 3 1 7 2 9 1h19l10 3 5 3 4 3 9 5 3 2 7 4 6 5 3 8 1 1 4 10 1 9-4 10 8 7 1 2 8 5 5 4 5 3 9 3 9-5 1-1 5-9 4-5 8-4 1-2 10-7 1-1 8-4 10-1h9l10 2 2 3 7 7 3 3 4 9-1 9 2 9 1 3 10 3 9-2 10-1 9 1 10-1zM173 81l8-2 10-4 9-3h10l1-1 2-9-3-9-1-1-4-9-5-3-9-1-10-2-9 1-4 5-5 9-1 2-4 8-2 9 6 8 9 2h1zM-15 230l-2-4-1 4 1 5zm241 47l2-2 6-8 4-4 2-5 3-9 2-10 2-6 2-3 5-10-7-6-5-3-4-1-10-3-8-5h-1l-9-7-3-2-7-8-3-2-6-5-6-4-4-3-9-6h-2l-8-1v1l-9 8-1 1-9 7-6 2-3 1-9 2-10 2-9-2-5-3-5-4-5-5-4-3-10-3-8-3-1-2-5-8 5-4 5-5 4-5 4-5 6-5 5-4 4-3 9-6 1-1 8-8 1-2 10-4 7-4-4-9-3-2-10-6-9 1-10 3-9-1-10-1-9-3h-1l-8-8-3-2-7-6-7-3-2-1-6 1-4 2-7 7-2 2-10 7v1l-9 5-5 4-5 3-9 4-9 2-10 2-9 1-10-1-4-2-5-4-9-5-1-1-9-2-10-1-4 4v75l4 5 4 4 6 7 2 2 7 7 4 3 6 5 5 4 4 5 3 4 7 9 9 3 10 2 8-5-6-9-2-9 5-9 4-4 7-6 2-3 6-6 4-7 1-2 8-8 7-2h3l9-1 10-1 9 1 3 1 2 10v18l-4 10-1 2-6 7-3 4-7 5-3 3-9 5-8 1-2 1-9 6-7 3-3 1-9 8 5 10 4 3 6 6 10 9 3 8 5 2 5 1 3-1 6-2 10-5 3-3 6-6 4-3 6-4 9-1 9-1 10 3 4 3 5 4 7 5 3 2 9 4 10 1 9-2 5-5 4-5 4-4 6-4 9-1 10 2 8 3 1 1 10 7 2 1 7 5 10 4 2 1 7 2zm303 18h2l10-4 6-5 3-3 7-6 2-3 7-7 3-2 5-7 4-5 5-4v-10l-5-9-9-8-5-2-5-1-9-8v-1l-9-5-8-3-2-1-9-6-4-2-6-8-9-2h-10l-10-5h-9l-10 1-8-5h-1l-9-7-2-2-8-8-2-2-4-9-2-10-1-1-4-8-1-9v-9l-2-10-3-6-3-3-6-5-10 2-9-2-9-2-10 1-9-1-5-2-5-4-6-6-3-3-4-6-6-10-9-9-10-3h-9l-7 3-2 8v1l-3 10-2 9 1 10v9l1 9 3 6 3 4 6 4 6 5 3 3 9 6 1 1 9 5 8 3 2 1 9 3 10 1 9 3 2 2 8 6 2 3 1 10 1 9 4 9 1 3 1 7 4 9 4 8 3 1 7 5 7 4 2 3 8 7 2 1h9l10-1 9 5 9 2 7 2 3 2 5 8-1 9v9l3 10 2 8 1 1 7 9 2 1 10 4h9l10-3zm142 9l-1-9v-9l-1-9-6-8-2-2-7-4-10-4-7-1h-3l-9 2-8 7v10l5 9 3 5 5 4 5 5 9 4v1l10 5 9-1zm-272 10l9-2 9-5 4-3 5-9v-9l-1-9-3-10-5-5-9-2-10 1-9 3-6 3-3 3-6 7-4 6-2 3-3 9 5 6 7 3 3 2 9 6 9 2zm-205 37l6-4 9-5h1l9-6 2-3-2-7-2-3-7-3-10-3-9 2-10 3-2 1-7 5-10 4-1 1-1 9 2 5 5 4 5 2 9 1 10-1zm-277 47l9-8 1-2 9-8v-1l9-8v-1l2-9 2-10 6-5 5-4 4-4 6-5-4-10-2-3-3-6-3-10-2-9-1-4-3-5-3-9 1-10-2-9-3-2-9 1-2 1-8 4-8 5-1 1-10 6-4 3v56l4 7 1 2 1 9 2 10 1 9v9l-1 9 5 10zm762 47l3-1 9-9h1l5-9 4-6 1-3 2-10 1-9 1-10 2-9-2-9-4-9-1-10-9-1-10-1-4 2-5 3-5 7-5 7-3 2-6 5-10 4-9-2-10-5-4-2-5-4-6-5-3-5-10-3-9 1-10 4-5 3-4 3-4 6-4 9 1 9 3 10 4 3 9 3 10 3 9 6 8 4 2 1 3 8 4 9 2 4 6 6 3 2h10l9 2 10 3 9-2 10-3zM20 538h1l9-3 6-6 4-5 2-5 3-9 1-9-1-10-3-9-2-3-5-7-5-6-6-2-3-2-10-2-9-2-10 2-9 4-9 4-5 4-5 10-4 9-2 10-1 9 1 9 3 10 3 6 3 3 7 4 9-2 9 2 10 1 9-2zm672 131l5-10 4-4 3-5 2-9-4-9 2-10 4-9v-10l-1-9 1-9-1-10-4-9-2-2-9-6-2-1-8-6h-19l-9-2-4-1-6-3-9-6-1-1-9-9-3-10v-9l-2-9-3-10-1-3-1-6v-10l-8-7-6-1-4-2-9-4-10-3-9 2h-10l-8-3-1-1-6-8-3-10-5-9-1-9 2-10-1-9-5-4-5-6-4-4-6-5-4-2-9-4-7-3-3-1-10-5-9 1-10 3-9-1h-9l-10 1-9 1-10-4-9-1-10 3-9-1-9-3-10-2-9-4-9-6h-1l-9-8-1-1-2-9 3-10 3-9 2-10-5-4-3-5-4-9-3-5-2-4-6-10-1-9v-9l1-10 4-9 3-10 1-8v-1l1-9-1-9-3-10-1-9-5-9-10-1-1 1-8 1-9 3-7 5-3 2-6 7-3 4-4 6-4 9-2 9 2 9 4 10 4 6 2 3 4 10 3 6 2 3 3 9 3 10 1 9-3 9-3 9v10l4 9 3 6v7l-2 6-1 9v19l-5 9-2 1-8 8-1 2-4 8-4 9-2 4-2 6-3 9 2 9 3 6 4 4 6 4 9 4 10 1 9-2 2 2 7 7 2 3 8 8h2l7 4 10 3 9 2 10-5 4-4 5-8h1l3-10 4-9v-10l2-5 3-4 6-3 9-5 3-1 7-3 9-1 10 2 6 2h3l10 6 2 3 7 7 4 2 5 5 6 5 4 3 7 6 2 1 7 9 3 4 7 4 3 2 5 8 3 9 1 2 3 8 2 9 2 9 3 4 9 3 7 3h12l9 4 4 5 6 5 5 5 4 4 5 5 5 2 7 7 2 2 9 7h1l9 5 7 5 2 3 6 6 4 2 9 4 4 3 6 7 2 3 6 9 1 2 2 8 3 9 2 9-1 9v10l4 5 9 2zM108 771l7-2 6-7 4-5 4-4 5-10-9-4-10-2-9 2-10 2-9-4-10-2-3-1-6-1-8-8v-9l-1-3-9-7h-1l-9-6-3-3-4-10-3-7-1-2-7-9-1-3-5-7-5-6-3-3-6-4-9-5-1-1-6-8-3-6-3-4-6-6-7-3-3-2-9-5-3-3-4-9-1-9v-10l1-9 1-9-4-6-9 1-10 4h-19l-4 1v28l4 5h10l9 2 2 2 1 9-3 5-1 5-1 9-1 10-6 9h-1l-9 6-4 3v28l4 3 6 6 4 4 8 6 1 2 6 7 4 4 9 4 10-2 7-6 2-1 10-2 9 2 9 1h1l9 7 1 3 4 9v9l1 9 3 7 2 3 7 9h1l8 9 1 2 10 4h9l10-1 9 2 9-2 9-5 1-1 9-2 8 3 2 1zm-139 47l-4-9-1-1-3-8-2-10v-19l-1-9-1-9-2-4-3-6-6-9-1-2-9-6-10 1-9 4-4 3-6 5-4 4v57l4 7 2 2 2 9 6 5h47zm475 0l-8-7-1-2-4-9-4-8-1-2-5-9-1-10-2-9v-9l9-3 9-2 10-5 8-9 1-1 9-7h10l9-1h1l9-4 8-5 1-2 10-8 10-9 9-10 6-9 4-4 6-5 3-2 9-7 1-1 4-9-1-9 1-9-5-9v-1l-8-9-1-2-7-8-2-3-7-6-3-6-2-3-6-10-1-2-5-7-5-9 1-9-1-10v-1h-10l-1 1-8 5-6 5-4 1-9 6-3 2-7 2-9 4-6 3-3 3-6-3-4-1-8-8-1-1-10-7-2-1-7-8-3-2-7-1-1 1-8 7-2 3-7 5-7 4-3 4-2 5 2 5 3 4 7 7 3 3 6 7 9 1 10-2 9 1 10 1 9-2 10-6v-1 1l9 6 1 3 8 8 1 1 8 10 1 5 1 4 1 10 3 9v9l-5 8-1 1-9 5-9 4v1l-9 5-10-1-9-3-2-1-8-4-9-6-10-7-3-2-6-4-9-3h-10l-9 2-10 1h-9l-10 1-9-2-10-4-9 1-9 3h-10l-9 2-8 3h-2l-9 3-9 6h-1l-9 7-10-2-9-2-6-3-3-1-10-5-5-3-4-3-6-6-4-8-1-1-3-10-2-9-2-10 5-9 3-4 10-4 9-1h1l9-7h9l9 1 10 3 7 3h2l10 2 9 1 10 1 9 2h10l6-6 3-6 2-4 3-9-2-9-3-4-9-5h-10l-9 5-10 2-9-3-10 2-9 2-10-3-9-3-9-1h-10l-9-1h-10l-9 1-3-1-7-8-1-2 1-9v-1l3-9 5-9 2-2 9-7 10-4 4-6 1-9v-10l-2-8-3-5-4-5-6-6-4-3-5-6-5-4-5-6-2-3-4-9-3-6-2-4-5-9-3-8v-2l-4-9-5-7-2-2-7-7-10-1-9 4-10 1-9-2-10-2-5-2-4-4-2-6-7-6-2-3-7-9-1-2-8-8-1-1-9-8-1-2-9-6-10 1-6 7-3 7-2 2-5 10-2 9 5 9 4 3 6 7 3 2 7 7 3 2 7 7 2 2 10 4 7 3 2 2 6 8 4 5 5 4 4 3 9 3 7 4 3 3 3 6 2 9 1 10 3 7 2 2 7 10v8l-3 10-1 9 2 10v9l-2 9 2 10-2 9v10l2 9-1 9-1 9 2 10-1 9-2 9 1 10 1 9v10l1 9-2 9 2 9 3 4 3 6 6 9 8 9 2 2 8 8 1 3 3 6 6 10 10 9 9 3h19l10 2 9 1 10-5 3-1 6-3 7-6 2-3 10-5 9 3 9 5h1l9 1 10 4 4 4 5 8 2 1 8 7 9 2 9-4 7-5 3-1 9-3 9-5 1-1 9-5 10 1 9 4 1 1 9 5 4 4 5 9 6 10 2 9-3 9-5 5-3 5-5 9-1 4-5 6-5 8v1l7 9 3 5h56zm214 0l2-9 3-9v-3l-1-7-1-9 2-10-1-9-3-9-2-10 1-9 1-9-2-9-3-10-10-9-9-4h-10l-9 2-6 2-3 2-10 6-1 1-8 10-8 9-2 3-4 6-5 6-3 3-7 4-7 6-2 2-7 7-2 5-5 4-4 10-1 2-2 7 1 10 1 4 1 5 3 9 6 5h113zm144 0l2-9-7-9v-10l1-9-2-10v-28l2-9 5-9 1-9-2-10-1-9 4-6 2-4 7-4 5-5 5-6 2-3 6-10 1-2 5-7 5-6 4-3V370l-4-3-10-5-1-1-6-10-2-3-8-6-2-1-9-8v-1l-5-9-1-9-1-10 1-9 6-7 2-2 7-6 6-3 4-5 9-3 8-2h2l4-9v-28l-4-6-10-1-3-3-6-3-5-6-5-9-1-9 1-2 5-8 5-5 9-3 1-1 9-6 4-3V-3l-4-5-10 4-9-2-10-4-9-2-10 2-9 2-9 3h-10l-9-3-10-1-9 1-9 5h-1l-9 8-1 1-2 9-1 9-4 10-2 7v5l2 6 4 10v9l2 10 1 9-3 9-6 6-9 2-9 1-5 1h-5l-9 1-3-1-5-10-2-3-3-6-2-9-1-10-3-6-2-3-8-8-1-2-8-9v-1l-5-8-5-8-1-2-7-9-1-4-2-5-7-9h-48l-9 1-9 4-6 4-4 3-7 6-2 2-10 5-9-2-10-1h-10l-5-4-4-7-1-2-2-9-3-10 1-9 3-10-1-9-4-9-3-6-9 3-5 3-4 3-9 6-1 1-3 8-1 10 2 9 2 10v1l3 8 1 9-4 8v1l-1 10v18l1 10v1l10 8h1l8 3 9 2 10 1h19l10 1 9-1 10-1 9 1h10l9-1 9 1 10 1 9-4 10 4 2 3 6 9 1 2 3 7 4 10 2 9-9 8-1 1-8 7-6 2-4 3-9 1-10-1h-9l-9 2-3 5-1 9 1 10 3 3h9l9-1 10-2h1l8-4 10-2 9-4 10-9h1l8-3 9 1 8 2h2l9 5 6 4 4 3 8 7 1 1 7 8 3 2 9 6 10 1 9-7 3-2 6-6 7-3 3-2 9-3 10-1 9 5 1 1 9 5 4 4 5 5 3 4 4 10 3 8v2l-4 8-6 7-2 2-7 7-4 3-3 9 2 10 2 9 3 4 3 5 6 4 10 6 5 9-2 9-3 3-9 6-1 1-4 9-5 7-2 2-8 6-5 4v9l5 3 10 5 1 1 7 10 1 1 6 8 4 3 5 6 4 4 5 5 3 10-1 9-2 10-5 9-7 9-2 4-4 6-6 6-5 3-4 4-8 6-2 2-5 6-4 4-8 6-2 1-6 8-2 10v9l-1 5-1 4-3 10 4 6 5 3 4 1 10 1 9 1h10l9 1 10 4 6 2 3 1 7 8-1 9-2 9-3 10-1 4-1 5-6 9-2 3-8 7-2 3-2 6-1 10-1 9-1 9 1 9v10l-2 9-2 9v10l4 9 2 10-2 9-1 9-2 9-2 6-2 4-5 9-3 2-5 7-4 7-3 3-5 9v10l4 9 4 7 2 2 7 5h47zm-16-709h-9l-10-1-9-9-5-9-4-9-1-6v-5l8-8 2-1 9-6 4-3 6-4 9 1 5 3 4 3 10 6 1 1 6 9-2 10v9l-3 9-2 1-10 6z" clip-path="url(#w)" transform="matrix(.97898 0 0 .97391 22 40)"/>
    <path fill="#e2e6be" d="M831-87l2-2 6-8 3-9-9-5h-47v5l9 9 8 10 2 1 9 3 10-1zm-228 9v-9l-6-6-9 2-8 4 2 9 6 2 9 5zm-68 9l6-2 9-1h9l10-4 5-2v-9l-5-2-10-8-9-1-9-5-3-3-7-5h-38l-6 5v9l-1 10 1 9 6 5 9 1 10 1 6 2 4 1h9zm125 47l3-2 5-8-2-9-3-4-9-5-10 6-3 3-4 9 7 6 8 4 2 1zM-6-3v-10l-2-5-2-4-7-9-2-1-4-9-3-5-8-4-2-1-9-6-3-3-6-9-1-1-2-8-2-9 3-10 1-8v-6h-19l-7 5-2 4-1 5-4 10-5 8-4 1v46l4 9 10-4 9-3 3-2 7-3h9l10 3h3l6 10-2 9 2 4 3 6 7 4h9l9-3zm282 18l-2-9-2-9-1-10 4-9 1-1 4-9 5-9 10-9 9-2h9l5 2 5 2 9 7h1l4 9 1 10 4 5 9 3h10l9-2 8-6 2-4 2-6 3-9-5-7-2-2-8-6-9-2-10 2-9 1-5-5-5-4-3-5-6-6-1-3-2-9-7-10-9 3-9 2-9-5h-1l-9-3-10-1-9-3-3-2-7-5h-37l-8 5-2 2-7 7-2 2-10 7v1l-9 4-10 3-9 1-10-1-9-3-9-4-10-5-9-4-4-1h-6l-9-1-10-2-9-3-3-3-6-5H11v5l-4 9 1 10 3 6 4 3 6 3 9 4 10 2h12l7 1 9 7 1 1 8 5 9 5h1l9 7 2 2 4 9 4 9v1l3 9-2 10 8 9 10 8 4 1 5 1 1-1 7-9 1-4 5-5 5-4 7-6 2-1 10-3 9-4 8-1h2l9-1 6 1 4 1 8 8 1 2 8 8 1 3 5 6 1 9 4 5 9 2 10 1 9 1zm-89 56l4-4 8-5 1-10-9-9-10-1-1 1-8 6-3 3-5 10-1 9 9 4 9-1zm403 75h-4 2zm-16 9v-9l-5-1-10-1h-9l-3 2-3 9 6 5h9l10-2zm-607 56l2-9 5-7v-2l9-9 1-1 8-9v-1l6-8 4-4 6-6 3-1 10-2 9-1 10-1h9l10 1 6-5 3-2 7-8 2-3 7-6 3-2 9-6 2-1 6-9-2-10-6-2-9-7-10-2-9-4-5-3-4-4-8-6-2-1-9-4-10 4-1 1-8 7-4 3-6 3-9 6-10 6-8 3-1 1-9 2-10 2-9 1-10-1-9-4-1-1-9-5-9-3-10-1-4 9v66l4 1 8 8 2 2 6 7 3 3 9 7h1l9 8 2 1 6 9 2 2 9 2zm255 56l6-2 7-7 3-6 1-3 2-10 3-9 2-10-8-5-5-4-5-1-9-6-3-2-6-4-7-5-3-3-8-7h-1l-10-7-4-2-5-3h-10l-3 3-6 5-5 4-5 2-9 3-9 2-10 2-9-3-10-5-1-1-8-7-4-2-6-2-9-2-9 4-1 9-4 10-5 9-9 9-10 9h-1l-8 5-10 2-3 3-6 6-5 3-2 10 7 6 2 3 7 7 5 2 5 3 9-1 5-2 5-1 8-8 1-1 10-8h18l10 2 8 7 1 1 10 6 8 2 1 1 10 1 9-2 8-9 1-2 10-5 9-1 10 1 9 2 10 5 9 7 5 2 5 2h9zm577 19l6-3 8-6 1-1 7-9 3-2 9-5 5-2 3-9-2-10-6-6-1-3-8-7-4-3-6-6-2-3-4-9v-9l5-10 1-1 9-8 1-1 9-5 6-3 4-3 4-7V99l-4-3-2-6-3-9-5-9-4-1 4-1 10-5 4-3V6l-4-7-10 3-9-1-6-4-4-2-9-3-10 2-9 3-9 5h-10l-9-5-10-2-9 1-1 1-9 6-3 3-3 9-3 9v2l-3 8-2 9 4 9 1 1 2 9-1 9 3 10 2 9-3 9-3 6-4 4-6 3-9 1-9-1-10 1-9 1-10-3-2-2-1-10-4-9-2-7-1-2-1-10-5-9-3-4-6-6-3-3-3-6-5-9-2-3-5-7-4-4-4-5-5-9-10-5-9-1-10-1h-19l-9 2-9 4-2 1-8 7-4 2-6 7-5 2-4 4-10-3-2-1h-17l-9-6-3-3-4-9-2-9-1-3-1-7 1-9v-2l2-8-1-9-1-2-9-4-9 5-2 1-4 9 1 10v19l3 9v9l-4 9-1 10v18l5 10 2 2 9 5 5 2 4 2h10l9-1h19l2-1 8-2 9 2 10 2h10l8-2h1l9 2 10 1 4-3 5-2 8 2 2 1 8 9 1 2 5 7 4 9 1 2 3 8 2 9-1 9v9l5 1 9 2 10 3 8 4h1l10 6 4 3 5 5 4 5 6 7 2 2 7 4h10l5-4 4-4 5-5 4-4 10-3 9-3h1l9-3 4 3 5 2 6 8 4 2 9 7 8 9 2 3 5 7 4 9-7 9-2 2-8 7-2 4-6 6-3 7-1 2 1 10 1 9 8 9 10 4 6 6 3 6 4 3 5 5zm-4-176l-9 3h-19l-9-4h-2l-4-10-4-9-4-9-1-10 4-9 1-1 10-6 2-3 7-8 1-1 9-4 9 4 9 7 4 2 6 5 8 5 1 3 8 6-5 10v9l-2 9-1 1-9 5-6 4zM519 295h2l10-3 10-4 2-2 7-7 3-2 6-8 1-2 9-8v-1l7-9 1-10-6-9-2-2-10-3-7-5-2-2-9-7v-1l-10-3-7-5-3-1-9-8h-4l-6-2-9-1-10-6-3-1h-16l-9-4-8-5h-1l-8-9-2-2-7-8-2-5-1-4-3-10-4-9-1-9 1-9-2-4-3-6-6-5-10 2-9-4-4-2-5-2-10 1-9-1-10-6-1-1-8-7-3-3-6-9-1-1-5-9-4-3-10-4-9 4-2 3-3 10-1 9v10l-3 9 1 9 8 9 1 1 8 6 3 3 7 6 9 2 6 1 4 2 9 5 10 2 9 4 10 6 8 9v10l1 3 3 6 3 9-1 10 3 9 1 2 10 7h1l8 4 9 5 1 2 7-2h8l4 1 9 7 2 2 7 3 10 3 5 3 4 10-1 9v9l1 3 3 7 3 9 4 5 5 4 4 2h10zm138 0l4-9 1-9-8-8-5-2-5-2-9-1-10 3-3 10 3 9 9 9 1 1 9 4h10zm-242 9l2-1 5-8v-9l-3-9-2-5-3-5-6-2-10 1-4 1-5 2-8 8-1 4-3 5 1 9 2 1 8 8 1 1 9 4 10-1zm-218 38l3-5 5-4-5-9-5-1h-4l-10 5-9 4-1 1-2 9 3 3 9 4 10-3zm-261 28l2-9 2-10 5-3 7-6 3-2 7-7v-10l-5-9-2-10v-2l-2-7-4-9-4-8-1-1-4-10-4-1-4 1-6 2-9 4-5 4-5 2-4 7v37l4 9 1 1 6 9 2 9 1 10 5 9 4 3 10-2zm728 75l9-2 9-3 5-5 5-5 2-4 6-9 1-4 1-6 1-9 1-10 1-9-4-9v-1l-6-8-3-4-10-3-9 7-7 9-3 2-9 7-10 3-9-1-4-2-6-3-9-5-1-1-8-8-3-1-7-5-9 2-7 3-3 1-9 8v1l-3 8 2 9 1 3 4 7 5 3 10 3 9 3h1l9 5 5 5 4 9v1l5 8 4 4 10 1 9 4 1 1 9 2 9-2zM4 538l17-4 9-4 2-1 7-10 1-1 2-8 1-9-1-10-2-6-2-3-7-10h-1l-9-6-10-2H4l-2-1-3 1h-7l-9 3-9 5h-1l-6 10-3 7-1 2-2 10v9l1 9 2 5 2 5 8 7h9l9 2h4l6 1zm-89 47l2-1 9-5 10 3v-9l-10-4-3-3-6-2-10-2-4 4v19l4 1zm518 0l3-7 3-3-3-1-4-8-5-5-7-4-3-2-9-7h-2l-8-5-4 5-5 2-9 7h-1l-5 9 6 8v1l9 8 4 2 5 2h10l9 1h10zm251 84l3-10 5-7 1-2 5-9-3-9 4-10 2-3 2-6v-10l-1-9 1-9v-10l-2-3-6-6-3-2-10-7h-1l-8-2-10 1-9-2-10-5-3-1-6-4-6-6-4-4-4-5-2-10v-9l-2-9-1-4-2-6-3-9-2-10-2-1-10-5-5-2-4-3-10-2-10 2h-9l-10-3-5-4-4-8v-1l-4-10-4-9-1-7v-2l-1-10-4-9-5-6-2-4-7-7-2-2-8-3-9-4-6-2-4-1-7 1-2 1-10 2-9-2h-9l-10 1-9 3-10-3-9-2-10 3-9-2-4-1-5-2-10 1-9-5-3-3-7-5-7-5-2-1-5-8-2-9v-10l1-9-1-10-3-7v-2l-2-9-5-9-2-4-5-6-2-9v-9l5-10 2-4 1-5 4-10 1-9v-9l-1-9-2-10-3-9-10-4-9 1-9 3-10 7-2 2-7 10-4 9v9l1 9 3 7 1 3 5 9 3 5 5 5 4 9 1 3v6l6 10-1 9-5 9v3l-2 6 2 10 7 9v10l-4 9-3 9v10l1 9-1 6-2 3-8 7-2 2-7 9v1l-5 9-3 10-2 4-1 5 1 9 10 9 2 1 7 2 7-2 3-2h9l2 2 7 7 1 2 5 10 4 3 8 5 1 1 10 3 9 1 7-5 3-3 3-5 5-10 1-3 2-6 1-10 2-9 5-5 9-3 2-1 7-4 10-3 9-1 10 2 9 2 5 4 5 3 6 6 3 3 9 6v1l10 7 3 2 6 5 4 4 6 8 1 2 8 6 6 2 4 7 1 3 2 9 4 10 2 5 3 4 4 9 3 2 9 3 9 1 10 3 1 1 8 9h1l9 8 3 2 7 5 3 4 6 5 3 4 7 5 9 4 9 6 3 4 7 6 6 3 3 1 10 7 1 1 8 10 7 9 1 10 2 7v2l3 9v9l3 10 3 1zm-250 74h2l10-9 9-9v-1l9-5 10 2h9l10-5h1l8-7 3-3 7-5 5-4 4-4 5-6 5-5 2-4 7-8 2-1 7-6 6-4 3-9v-9l1-9-4-10-6-6-2-3-7-8-1-2-8-8-1-1-5-9-4-5-2-5-6-9-1-2-4-7-4-9-2-2-3 2-6 1-10 5-3 3-6 3-10 4-4 2-5 4-6 5 6 6 2 4 5 9 2 3 7 6 3 4 4 6 3 9 2 10v1l2 8-1 9-1 2-3 7-6 6-9 4h-1l-9 6-7 3-2 1-5-1-5-1-9-4-8-4-2-1-9-6-6-3-4-2-9-6-3-1-6-2-10 1-6 1h-34l-7-1-10-2-8 3h-1l-9 1-7-1h-7l-5 1-10 3-9 3-4 2-6 6-6 4-3 1-6-1-4-1-9-2-9-4-4-3-6-3-9-6h-1l-9-9-4-9-3-10-2-6-2-3-2-10 4-6 1-3 6-9 2-8 6-2 4-1 9 1 10-7 9 1 9 4 7 2 3 1 9 4 10 2h9l10 2 1 1 8 1 6-1 4-2 4-8 4-9-2-9-6-4-10 1-6 3-3 3-10 4-9-4-10 3-9 2-10-6h-9l-9 3-3-5-7-3h-9l-10 1-9-2-10-5h-1l-4-10 1-9 2-10 2-6 2-3 8-8 1-1 8-4 10-6 2-9-1-10-1-6-1-2-6-10-3-2-7-7-2-2-9-8-1-1-5-8-4-9h-1l-5-10-4-7-1-2-5-10-3-9-9-9-10-2-6 2-3 1-10 2-7-3h-2l-10-2-9-1-4-6-4-10-1-1-5-8-5-7-2-2-7-7-5-3-5-5-6-4-3-3-10 2-1 1-5 9-3 8-1 2-2 9 3 4 2 5 7 8 1 2 9 8 1 1 8 7 5 2 5 2 9 3 6 4 4 7 1 3 8 7 7 2 2 1 10 5 3 4 5 9 1 9v1l3 9 7 8v1l3 10v8l-3 10v3l-1 6 1 3 2 7-1 9-1 8v2l3 9-2 9-1 8v2l2 9-1 9-1 7-1 2 1 2 1 8-1 9v3l-2 6 1 10 1 5v4l1 10 1 9-1 9 1 9 4 10 3 4 3 5 7 7 2 2 7 7 2 3 5 9 2 3 9 7 1 1 9 5 10 2 5 1h4l10 1h9l4-1 6-3 9-5 2-1 7-9 1-1 9-4 9 4h1l9 5 9 4 2 1 8 2 8 7 1 1 7 8 3 2 9 1 6-3 3-1 10-4 9-3 2-1 8-5 9-4 10 1 9 3 10 5 9 8 1 1 7 9 1 5 10-1 9-1 10-2zm-319 19l6-9-2-10-4-1-6 1-3 1-10 6-9 3 9 4 5 5 5 3zm-38 9l7-9 3-9v-2l1-8h-1l-10-3-9-2-5-4-4-5-4-4-1-9-5-5-9-4-1-1-7-9-2-9v-1l-6-9-3-5-4-4-4-10-2-1-9-8-10-6-3-3-6-9-7-10-2-3-10-4-7-2-2-1-9-9-1-2-9-2-1 4-5 10-2 9-2 10-5 9-4 4-7 5-3 4-4 5v10l4 4 2 5 8 9h1l8 6 5 4 5 5 5 4 4 3 10-2v-1l9-4 10-2 9 1h9l10 4 1 1 5 10 3 6 2 3-2 8v10l6 10 4 4 4 5 5 6 7 3 3 2 9-1h10l9 2zm719 38l-1-1-3-8 2-10v-9l-1-10-1-9v-9l-4-10 2-9 5-6 2-3 1-9-3-9v-1l-1-9 1-2 5-8 5-3 8-6 1-1 8-8 2-2 5-8 4-9 7-9 3-3 4-6v-66l-4-8-1-1-1-9v-10l2-6 4-3v-10l-4-7-1-2-2-9 1-10 1-9 1-1 4-9v-8l-4-9-1-1v-9l1-2 4-8v-56l-4-8-1-1-9-3-5-6-4-7-2-3-8-6-3-3-6-5-4-4-5-10-1-4-1-5-3-10-5-5-9 5v1l-8 9-2 3-5 6-4 5-7 5 1 9 6 3 6 6 3 3 5 7 5 5 2 4 7 9 9 9h1l2 10-1 9-2 4-1 6-5 9-3 4-4 5-5 10h-1l-9 9-9 8-3 2-7 8h-1l-8 8-4 2-6 5-3 4-2 10-1 9-1 9v10l7 5 10 3 9 1h11l8 1 10 3 9 3 8 3 1 1 2 8v9l-2 5-1 4-3 10-3 9-2 5-3 4-6 7-3 3-5 9-1 10-1 9v2l-1 7 1 9v10l-2 9-2 9 2 10 2 5 3 4v10l-3 9-1 9v9l-4 10-4 8-1 1-9 9-7 10-2 4-3 5 1 10 2 3 4 6 5 5 10 2 9-2 10-1h9l9-3zm-831 9l-1-2-4-7-3-9-1-10v-19l-1-9v-3l-2-6-4-10-4-5-6-4-3-2h-10l-6 2-3 1-10 8h-5v57l5 1 6 8 2 9 2 5h47zm472 0h-1l-5-9-3-9-1-2-5-8-5-8-1-1-4-10-4-4-7 4-3 1-9 9-4 9-3 10-2 8v1l2 9 7 5h47zm217 0l2-9 2-9-1-10v-9l1-10-1-9-2-9-1-6-1-4 1-4v-5l1-9-1-5-2-4-4-10-4-3-9-6h-1l-9-1-4 1-5 1-10 4-4 4-5 3-6 7-4 4-3 5-6 9-7 9-3 2-9 6-3 2-7 6-2 3-6 9-1 1-5 9-2 9 1 10 5 9 1 2 9 4 10 3h4l5 5 5-5 5-1 2 1 7 5h67z" clip-path="url(#x)" transform="matrix(.97898 0 0 .97391 22 40)"/>
    <path fill="#dce2b9" d="M823-87l1-1 9-7 1-2 2-9-3-5h-38l-4 5 4 3 4 6 6 7 4 3 5 1zm-283 9l1-2 4-7-4-8-1-2-7-9-2-5h-29l-8 5-1 2-2 7-1 10 3 9h1l8 1 10 2 10 3 9-1zM-81-32l7-8 6-1 4-2 3 2 6 1 5-1v-9l-5-6-5-4-1-9-1-9-2-7-3-2-7-4-3 4-5 9-1 6-2 3-8 3-4 6v28l4 5 10-3zm738 0l-3-9-6 9 6 3zM372-22l5-10 2-9-8-9-1-1-9-1-5 2-5 3-5 6-3 9 2 10 6 4h10l9-3zm-385 9l-4-7-9 5-2 2 2 6 9 2zM456-3v-19l2-10-3-7-5 7 3 10-1 9v10l3 6zM270 15l-1-9-2-9-1-4-3-6 2-9 1-2 8-8 2-1 5-8 4-9v-2l10-4 9-1 9-1 6-2-1-9-3-9-2-4-9-4-9 3-5-4-5-3-9-5-7-2h-3l-9-3-7-6-3-5h-37l-3 5-7 7-2 2-7 6-5 4-5 2-9 5-8 2-2 1-9 1h-10l-7-2h-2l-9-5-10-3-6-1-3-1H87l-10-5-8-4h-1l-9-9v-5H21l-3 5-4 9 2 10 5 3 7 6 2 1 10 4h9l10 1 4 3 5 4 9 5v1l10 5 6 4 3 2 8 7 2 6 1 3 6 10 2 5 3 4-1 10 5 9 3 2h9l1-2 3-9 5-4 8-6 2-1 9-5 10-2 2-1 7-3 10-1 9-1 10 1 5 4 4 4 3 5 6 6 8 4 2 1 5 8 4 9v1l10 2h9zm577 37V6l-4-2-7 2-3 1-9 1-4-2-6-4-9-5-10 1-9 6-3 2-5 9-1 2-3-2-7-3-5-6-4-3-10-4-9 2-6 5-4 7-1 2-2 9-4 10-1 9 6 9 2 6 10 2 9-7 2-1 8-7 1-2 8-6 5-3 5-4 5 4 4 2 8 7 1 1 10 8h1l8 6 10 3 9-1 10-2zM185 62V52l-4-1-2 1-7 9-1 1 1 2 9 2zm547 9l-3-3v5zm74 112l8-7 3-2 7-7 4-2 5-5 10-4 4-1v-37l-4-9h-1l-6-10-1-9-2-4-6 4-1 9-2 1-10 5-7 4h-2l-10 6-9 2h-19l-9-1-8-7-2-5-2-5-6-9-1-8-3 8-7 9-5 10-4 7-3 2-7 5-9-4-2-1-7-1h-10l-6 1h-14l-5-9-1-10-2-4-6-5-3-9 2-10-3-5-2-4-7-6-2-4-5-9-3-6-2-3-7-9-1-1-7-9-1-2-9-7h-1l-9-3-10-1h-9l-10 1-9 1-4 2-5 2-9 7-1 1-7 8-2 5-7 5-3 6-9-6h-1l-9-3h-9l-9-7h-1l-10-8v-1l-9-8-3 8-6 5-2 4-1 10 1 9v9l2 4 6 6 3 2 9 3 10-2 10-3 9 4 10-2 5-2 4-3 3 3 7 2 9 3 10-1h9l9 2 10 1 9-3 10 2 4 3 5 5 8 5 2 2 3 7 2 9 3 10 1 1 2 8 2 9 5 6 9 3 1 1 9 4 7 5 3 1 9 7 1 1 8 10h1l9 9h2l8-2 7-7 2-2 9-8 10-6 6-3 3-2 10-3 9 3 1 2 3 9 6 7 2 3 7 5 5 4 5 5 7 4 2 2 9 6 10-5zm-843 19h1l6-9 4-3 6-7 3-5 4-4 5-9 10-9 1-1 8-4 10-1 9-1 10-3 9-1h10l9-8 1-1 5-9 3-6 9-3 1-1 8-8-5-10-3-3-10-3-4-3-5-2-9-7h-2l-8-6-9-3-10 5-5 4-4 1-10 5-3 3-6 4-9 5-1 1-9 3-9 1-10 3-9 1-10-1-9-5-8-3-2-1-9-4h-10l-4 5v56l4 7 4 3 6 6 2 3 7 8 1 1 9 7 4 3 5 3 8 6 2 2zm353 37l5-9 2-3 2-7 1-9v-9l-2-9-1-5-2-5-8-8-9 1-9 3-7 4-3 4-4 6-3 9v18l4 10 3 5 6 4 4 4 9 3 9-2zm-87 19l6-9 2-10 1-4 1-5v-10h-1l-10-6-1-3-8-4-7-5-2-2-10-7h-2l-7-6-6-4-4-2-9-4-10 1-5 5-4 2-10 3-9 3-5 2-4 1-10 1-9-2-10-5-5-5-4-3-10-4h-9l-6 7-3 8-1 2-5 9-4 6-3 3-6 7-3 2-7 8-5 2-4 1-10 4-5 4-4 10 8 9 1 2 10 4h9l10-3 3-3 6-7 3-2 7-5 9 1 9 1 10 2 2 1 7 5 6 4 4 2 9 2 10 2 9-3 2-3 7-6 7-3 3-1 9-2 10 2h9l2 1 8 2 9 7 10 5h9l9-5zm577 19l8-8 1-2 9-8 1-1 6-9-1-10-5-9-1-2-10-7-1-1-8-9v-1l-10-3-5 4-4 1-9 6-3 2-7 10-5 9v10l2 9 3 4 10 4 1 1 8 7 4 3 5 4 10-3zm-267 9l2-1 8-8 1-2 5-8 4-5 4-4 6-7 1-2 1-10-2-2-10-6-2-1-7-5-6-5-3-3-10-6h-1l-9-6-4-3-5-4-10-2h-9l-8-3-2-2-9-3-10-1-9-2-5-2-4-2-8-7-2-2-5-7-4-5-6-5-1-9-1-10-2-2-2-7-1-9-1-9-5-7-10 1-9-1-6-3-3-2-10-2-9-3-4-2-6-4-7-5-2-3-10-7-6-9-3-5-7-5h-4l-6 10-2 9 2 10-2 2-2 7v9l2 2 8 8h1l8 9 2 1 9 3 10 1 7 4 2 1 10 2 9 4 2 2 8 6 6 4 3 4 7 5 2 7 2 3 2 9-1 9-3 8v3l4 8 6 4 9 3 10 1h9l3 1 7 3 9 6h1l8 9 4 1 6 2 9 7h1l3 10v9l1 9 3 10 2 7 1 2 8 8 10 1 9-3 10-2zm116 0l-1-9-10-6-9-1-9 7 4 9 5 5 9 4 10-8zm-237 9l-1-3v-6l-4-9-5-6-10-1-9 5-1 2-5 9 3 9 3 4 9 4 10 1 9-8zm-101 19l6-10 3-9-1-9-2-3-8-6-2-3-1 3-6 9-2 2-3 7-2 9 5 10h1l8 7zm-374 28l2-1 10-7 1-1 1-10-2-9v-1l-3-9-3-9-4-9-8-9-1-2h-10l-4 2-5 1-10 6-4 2v37l4 4 7 6 3 4 5 5 4 4h10zm117 28l-1-9v-1l-3-9-6-9-1-2-7-7-2-3-10-6v-1l-9-6-10 3-2 3-3 10-1 9 3 9 3 3 5 7 5 3 5 6 4 3 10 5h9l10-4zm623 65l9-8v-1l6-9 2-10 1-9v-21l-4-7-5-6-9-3-1-1-1 1-8 6-3 3-7 6-4 3-5 4-10 3-9-1-10-5v-1l-9-4-7-5-2-2-9-7-1-1-3 1-6 1-10 8-5 9v9l5 8 3 2 7 2 9 3 10 3 2 1 7 6 2 4 3 9 4 6 10 1 4 2 5 3 10 4 9-1 10-1 9-4zM22 529l8-4 5-6 5-8v-1l1-9-1-6-2-4-5-9-3-4-5-6-4-2-10-2H-8l-9 2-5 2-4 4-4 6-4 9-2 10v10l2 8 6 10 2 2 9 2 9 2H2l9-3 10-3zm-107 46l-8-3-4 3 4 3zm342 0h-1zm33 0l5-5 1-4-1-6-10 2-4 4-1 9 5 3zm141 0l-4-9-10-6-7-3-2-1-10-6-9 4-3 3-5 9 8 9 9 5 10 2 9 1 10-2zm252 66v-9l4-10 5-1 5-8 1-10-1-9v-9l-1-10-4-4-8-5-2-1-9-2h-10l-9-1-7-5-3-1-9-6-2-2-8-8-1-2-7-9-1-9v-11l-1-8-4-10-3-9-1-4-6-6-4-1-9-6-8-1-2-1-3 1-6 1h-10l-9-1v-1l-9-2-5-7-2-9-2-10-1-4-2-5-2-9-2-10-4-7-1-2-5-10-3-3-9-6h-1l-9-4-10-2-9 4-10 2-9-3-9-1-10 3-4 1-5 6-10-3-3-3-6-1-10 1-9-1-9-3-10 1-9-2-4-4-6-7-2-2-7-6-4-4-6-9-3-9-6-9h-10l-4 9-5 7-1 2-3 9-1 10 2 9-2 9-4 6-5 3-5 5-4 5-5 8-1 1-2 10-3 9 2 9 4 3 9 2 8-5 2-1 2 1 7 3 9 6 1 1 6 9 3 9v1l9 5 8 3 2 1 5-1h4l6-8 4-6 2-4 5-9 1-10v-9l1-2 6-7 4-3 9-3 9-2 6-2 4-2 9-3 10 3 3 2 6 2 10 7 1 1 8 8 1 1 8 6 6 3 4 3 9 6 1 1 8 9 1 1 7 9 2 1 10 5 4 2 1 10 2 9 2 5 4 5 5 9 1 1 9 8 1 1 9 1 9 3 7 5 3 3 5 6 4 3 10 6 1 1 8 8 1 1 8 9 1 1 9 3 9 1 7 4 3 6 3 4 6 2 10 7 6 9 3 4 8 6 2 2 7 7 1 10 1 9zm108 46l4-3 8-6 2-1 9-4 4-4 6-7 2-3 3-9 4-6 3-3 7-8 4-1v-57l-4-6-5-3-5-9v-9l2-10 2-9 2-10-1-9-1-9v-19l2-10 1-8-3-10v-9l5-10 1-1 4-8v-47l-4-4-10-4-2-1-7-9v-1l-7-9-3-2-9-7v-1l-8-8-2-4-5-6-4-9v-1l-3 1-6 2-7 7-3 3-7 7 1 9 6 5 2 4 8 9 1 1 7 9 1 1 6 8 3 3 5 6 2 10-1 9-4 10-2 2-3 7-6 8-1 1-5 10-3 4-6 5-4 4-7 6-2 2-6 6-4 4-8 6-1 1-10 8-2 10-1 9v9l2 10h1l10 4 9 1h10l9 2 7 2 3 1 9 1 9 3 7 5v9l1 9-2 9-6 9v1l-3 9-6 9v1l-8 9-1 3-4 6v10l-1 9v18l-1 10-2 9-1 9 9 8 9-2zm-2 38l1-9-4-7-9 3-1 4-2 9 3 6 9-3zm-350 9l7-7 2-2 7-9h2l7-5 9 5h1l9 1 2-1 8-6 5-4 4-3 10-6 9-8 2-2 7-9 1-1 7-8 3-2 9-7 1-1 4-9-1-9 1-9-4-10-1-2-7-7-2-4-7-6-3-3-6-6-4-7-1-2-5-10-3-5-3-4-6-9-1-2-9-1-5 3-5 2-9 6-4 1-6 3-6 6 3 10 3 5 3 4 7 7 2 2 6 10 1 2 3 7 4 10v9l-2 9-3 9-2 3-5 7-4 4-10 4-1 1-8 5-9 2-10-4-4-3-5-3-10-4-3-2-6-3-10-6-2-1-7-3-9-3-10 2-9 1-10-1-9-1h-10l-9-1-10-1-9 3h-9l-10-2-9 1-10 4-5 1-4 3-8 7-2 1-9 5-10-2-9-3-3-1-6-3-10-6v-1l-9-5-5-4-5-5-4-4-4-9-1-4-4-6-3-9-1-10 4-9 4-7 1-2 2-10 2-9-5-9h-1l-9-4-5-5-4-10 1-9v-10l4-9 4-5 4-4 6-4 9-4 3-2 4-9v-10l-1-8-6-9-1-1-8-8-2-1-8-7-2-3-7-9v-1l-4-8-6-10-7-9-2-5-4-5-3-9-2-2-10-2-9 3-10 1-9-4-10-2-9 2-7 4v9l5 10 2 1 9 3 8 5 2 1 7 9 2 3 5 6 2 9 3 7 1 3 5 9 2 10-1 8-2 10-1 9 2 10-1 9v9l4 10v9l-3 10 1 9-2 9-1 9 1 10-1 9-2 9 1 10v9l1 10 1 9-1 9 1 9 4 8 1 2 6 9 3 3 6 6 3 3 5 7 4 6 3 3 7 6 8 4h1l10 4 9 1 10 1h9l10-4 4-2 5-4 5-6 4-5 9-4 1-1v1l9 3 8 6 2 1 9 4 10 4 2 1 7 4 4 5 6 6 9 1 9-3 10-3 1-1 8-3 10-6v-1l9-3h10l7 4 2 1 10 4 6 4 3 2 7 7 2 3 10 4h9l10-1 9-3zm-332 19l-1-1-1 1h1zm-31 9v-9l-6-10h-2l-9-7-2-2-7-9-1-5-6-4-3-2-10-4-1-4-3-9-2-10-3-5-4-4-6-9v-1l-3-9-6-4-6-5-4-2-6-7-3-5-3-4-6-9-2-1-8-4-9-2-10-3-9 2-2 7-3 10-5 6-2 3-7 9h-1l-6 9-1 10 4 9 4 4 7 5 2 2 10 7 1 1 8 6 10-1 9-3 7-2 3-1 6 1h12l10 2 6 7 3 4 6 6 4 5 3 4-3 2-3 7-2 9 5 8v2l8 9 1 1 10 5 9-1 10-1 9 2zm711 38l3-10 1-9-2-10-1-9-2-9v-2l-9-6-8 8-2 6-1 3-8 8-2 1-8 5-4 5-3 9 3 10 4 4 10 1h9l10 2 9-4zm-827 18l-3-9-2-7-2-2-1-10 1-9-2-10v-9l-2-9-4-9v-1l-9-7h-10l-9 4-5 3-5 8-4 2v37l4 3 4 7 6 8v1l4 9 5 5h29zm472 0l-5-9v-2l-3-7-5-10-2-2-8-7-1-2-10-1-3 3-6 8-1 1-2 10-2 9 3 9 2 5h38zm216 0l3-9 2-9-1-10v-28l-2-9-2-10 2-9 1-9-3-9-4-7-2-3-7-5-10-1-9 2-8 4-1 1-10 6-2 3-7 9-5 9-5 9h-1l-9 5-7 5-2 1-8 8-2 2-5 7-4 7-1 3-2 9 3 9v1l9 9h1l9 3 9 2 10-1 10 4 2 1 7 5h47z" clip-path="url(#y)" transform="matrix(.97898 0 0 .97391 22 40)"/>
    <path fill="#d5deb5" d="M827-97l1-9-4-5h-19l-8 5 6 9 2 3 9 3 10-3zM531-78l5-9-2-10-3-4-3-5-6-5h-19l-4 5-4 9-1 10 9 6 9 2 2 1 8 2zm-227 9zM-91-32l8-7 1-2-1-9-10-7-4 7v18l4 1zm453 10l8-6 2-4-1-9-1-1-9-2-4 3-6 5-3 4 3 8 6 2h4zm-108 9l3-6 1-3 8-9 1-1 9-8 1-1 2-9 2-10 1-9 1-9-4-9-3-3-10-3-9-2-3-2-7-6-3-3-6-5h-19l-6 5-3 2-8 7-2 3-8 7-1 1-10 4-7 4-2 1-10 2-9 2-10 1-9-1-9-4-2-1-8-3-9-1-10 2-4 2-5 4-5-4-5-5-3-4-6-4-9-6v-1l-7-8-3-5H30l-4 5-5 9 4 10 5 3 6 6 4 1 9 1 10-1 9 5 7 3 2 1 9 8 1 1 9 6 5 3 5 5 3 4 4 9 2 4 6 6 4 4 8 5 1 2 4-2 5-1 10-6 5-2 4-2 10-2 9-2 10-1 9-1h10l9 6 1 2 8 9v2l10 3 9 2zm8 19l-4-9-1-4-4 4v9l4 6zm488 37l8-6 4-3 5-8 2-2-2-1-7-8-2-3-7-6-3-1-8 1-1 1-5 8-2 9-3 6-1 4-1 9 2 2 10 4 9-4zm-276 9l7-9-2-9-5-3-6-7-4-2-9-1-4 3-2 10 2 9v9l4 5 9 4zm19 0zm343 0l7-4 4-5V15l-4-7-10 4-7 3-2 1h-10l-1-1-6-9-2-2-10 1-1 1-3 9-3 9 5 10 2 2 7 7 3 2 8 7 1 1 10 3 9-3zM316 71l-3-5v6zm323 0l-4-8-1-1-5-10-4-8v-1l-7-9-2-3-6-7-3-4-4-5-6-6-9-2-5-1h-5l-9-1-10 1h-1l-8 1-9 4-5 4-5 6-3 3-5 10-1 6-2 3 2 7v2l9 8h10l9-1 6 3 3 1 10 1 9-2 10 3 9 5 3 1 7 4 9 2 9 1 10-2zm-272 47l3-9h1-1l-4-10-5-1-10-6-1-2-8-7-7-2-3-2-9 1v1l-8 9-2 7v3l5 9 5 5 9 3h10l2 1 7 3 10-1zm283 0l1-9-2-10-5-4-9-3-6-2-4-5-2 5-4 9 2 10 3 9 1 3 10 4 9 2zm-238 28l2-10-4-9-1-9-1-4-10-5h-9l-9 1-9 8 2 9 6 9 1 1 9 6 6 3 3 3 10 2zm280 19l9-7 3-3 6-9v-10l-9-9-9-5-10-1-9 1-10 2-9-1-10 4 4 9 6 5 5 5 4 3 8 6 2 3 6 7 3 3zm118 9l4-4 6-5 4-4 7-6 2-2 10-2 4-5v-28l-4-3-10-5h-19l-9 3-8 5-2 1-9 3h-28l-6-4-4-3-7-6-2-5-4 5-6 4-2 5v9l2 3 10 2 9 2 4 2 3 10 2 9 1 1 7 9 2 1 10 7 1 1 8 3 9 2 10-1zm-844 19l8-7 2-3 6-9 1-2 5-7 4-5 6-5 4-2 9-5 10-1 9-1 10-3 9-1 10-2 4-4 4-9 1-4 2-5 7-9h3l-1-10h-2l-9-6-2-3-7-5-10-4h-5l-4-1-1 1-9 1-9 3-8 5-2 1-9 7-3 1-7 5-9 2-9 1-8 2h-2l-9 1-10-1h-2l-7-4-10-4-6-2-3-1h-10l-4 1v56l4 3 8 7 2 2 7 7 2 3 6 6 4 3 9 6 2 1 8 5 9-3zm352 37l4-10v-18l-2-9-4-10-3-2-9-1-9 3-8 10-2 4-1 5-1 9v9l2 6 3 4 7 5 9 4 9-3zm-99 28l9-6 3-3 2-10 1-9-3-10-3-1-6-8-3-1-9-7-2-1-8-5-9-4-10-6-9-2h-10l-9 4-10 3-3 1-6 2-9 3-10 1-9-3-8-3-2-1-9-7-3-2-7-3-9 1-1 2-5 10-3 6-2 3-5 9-3 5-4 4-5 6-4 4-6 5-9 3-4 1-6 5-3 5 3 3 8 6 2 1 9 1 6-2 4-2 5-7 4-5 8-5 2-1 1 1 8 2 9 2 10 1 8 5 1 1 10 6 9 2h11l8-3 9-6v-1l10-3 9-1h10l9 1 10 1 4 3 5 3 9 6zm591 9l4-4 6-5 4-6 3-3v-10l-3-4-4-5-6-4-9-6-10-4-9 1-7 3-2 2-6 8-3 9-1 5v7l3 7 7 3 9 6 9 7 10-2zm-277 19l8-5 4-4 4-10h1l7-9 2-6 3-3-2-10h-1l-9-9h-1l-8-8-3-2-7-4-8-5-1-1-10-8h-2l-7-2-10 2h-10l-9-8-1-1-9-2-9-2-9-1-9-5h-1l-5-9-4-6-8-3-2-1-1 1-6 9-2 4-2 5-3 10 5 9 9 2 10-1h9l10 4 7 4 2 2 8 7 1 2 10 4 5 4 5 3 4 6 3 10 1 9 1 5 1 4 2 10 3 9 4 3 9 2 10-2 9-2zm114 0l-1-9-2-1-9-1-2 2 1 9h1l9 2zm-329 9l-5-6-5 6 5 8zm94 0l-1-9-3-7-4-2-6-2-2 2-7 8-1 1 1 1 4 8 5 4h10zm-463 38l4-10-2-9-2-10-2-9-2-2-5-7-4-5-10-1-9 4-4 2-6 7-4 2v19l4 6 2 3 8 7 3 3 6 5 10 1 9-4zm103 37l2-9-3-10-2-5-3-4-6-8-3-1-7-5-9-5h-1l-9 5-2 5v9l2 6 2 3 8 9v1l9 9h1l9 4 9-2zm624 65l6-3 6-6 4-4 3-5 3-10 1-9v-10l-1-9-6-9-10-4-6 4-3 2-9 7-1 1-9 6-9 2-1 1-2-1h-7l-10-3-8-6h-1l-9-7-5-2-5-4-9 3-2 1-5 9-2 9 9 8 5 2 4 1 10 2 9 4 2 2 5 10 2 5 4 4 6 2 9 5 6 2 4 3h9l10-1zm-155 19h1l6-9v-10l-2-9-2-9-2-8-1-2-5-9-4-8-1-2-8-6-8-3h-13l-8 3h-9l-9-2h-10l-8 8-2 8-1 2 1 1 3 8 7 5 4 5 6 4 5 5 4 3 9 5 2 1 8 5 7 5 2 2 6 7 4 4 9 5zm-175 10l5-6 3-4 7-6 2-3 2-10v-9l4-9 1-2 10-7 1-1 8-5 9-1 5-3-1-10-4-1h-9l-9-3-10-1-9-2-3-2-7-5-3-4-6-8-1-1-9-9v-1l-5-9-4-8-10 1-4 7-5 8v14l3 6-3 9-7 9-2 5-6 5-4 5-3 4-2 10-4 9 9 4 10-2 9 5 4 2 5 4 7 6 3 6 4 3 4 10h1l10 2zM10 529l1-1 10-3 9-4 1-2 5-9 1-9-3-10-4-7-1-2-8-8-6-2H3l-1 1-3-1h-8l-8 2-9 7-1 1-4 9-2 10v9l3 9 4 6 7 4 2 1 9 1 10 1zm615 28v-9l-7-10-2-4-3-5-1-10 1-9-1-9-4-10-1-4-4-5-6-6-4-4-5-2-10-3-9 3-10 1-9-2-9 3v1h-10l-9 8v1l2 9 7 10 6 9 4 4 9 3 6 2 3 2 10 6 2 2 7 8 3 1 7 4 8 6h1l7 9 3 3 9 3zm-203 18l-4-9-10-3-8-6-2-1-1 1-8 8-1 1 1 1 9 6 5 2 5 2h9zm268 28v-9l-3-9-5-7-9-1-10 8-2 9 2 3 4 6 6 4 9 4zm103 75l2-1 10-4 9-4v-1l8-9 2-3 2-6 5-9 2-2 8-7 2-4 4-6v-47h-4l-10-6-5-3-1-9v-9l2-10 3-9 1-5 2-5-1-9-1-8v-23l1-7 2-8-3-9v-1l-1-9 1-2 4-8 4-9 2-7 4-2v-38h-4l-10-3-9-4-7-2-1-9-2-3-4-7-5-4-4-5-6-6-4-3-5-6-9 1-7 5-1 9 5 9 3 3 7 7 2 2 6 7 3 4 10 4 1 1-1 4-1 5 1 6v13l-4 10-6 8v1l-6 9-3 5-2 5-7 8-1 1-9 8-2 2-7 7-2 1-8 8-2 2-7 5-6 4-4 9v19l9 10h1l9 2h10l9 2 10 3 9 1 9 1h1l9 5 4 5v18l-1 9-3 3-4 7-6 9-5 9-4 5-4 5-5 9v42l-1 5-1 9 2 4 9 1zM16 697l-3-10-2-1-3-8-4-9-2-6-1-4-9-7-1-2-8-9-6-9-3-5-9-5h-1l-9-1-9 1h-1l-9 9v1l-7 9-3 2-6 7-3 7-2 2-1 10 3 8v1l9 6 5 3 5 4 8 6 1 1 10 1 4-2 5-2 10-3 9 1h9l10-1 8 5 1 1zm475 9l2-2 10-6 2-1 7-6 5-4 5-3 4-6 5-5 3-4 7-5 6-5 3-6 1-3v-18l-1-4-3-6-6-8-1-1-9-9-1-1-8-7-2-2-4-9-4-10-6-9-3-5-10-3-9 5-5 3-5 3-9 6h-1l1 3 1 7 6 9 2 3 6 6 4 5 3 5 4 9 2 3 2 7-1 9-1 3-2 6-2 9-4 10-1 4-4 5-6 9v1l-6 9 1 9 5 3 10 2zm-60 28l6-3 5-6 4-4 5-5 4-10-1-9-8-7-5-3-4-2-10-7-10-5-9-4v-1l-10-4-9-4-3-1-6-1-5 1-5 1-9 1-10-2-9-2h-19l-10-1-9 3h-9l-10-2-9 1-5 1-5 3-9 5-2 2-8 7-4 2-5 5-7-5-3-1-9-2-9-4-3-2-7-5-6-5-3-1-9-8h-1l-7-9-2-5-4-4-5-10-1-2-2-7v-10l2-6 2-3 4-9v-19l-6-6-2-3-7-8-2-1-4-10 2-9-1-10 4-9 1-2 7-7 2-3 10-5 3-2 6-4 3-5 1-10-2-8-2-3-5-7-4-4-6-5-4-3-7-7-2-4-4-5-4-9-2-3-5-7-4-4-9-5v-1l-10-6-5-3-4-1-10-1-9-3-7-4h-4l-8 9 9 5 8 5 2 1 5 8 4 6 6 4 4 4 3 5 2 9 4 8 1 2 2 9v10l-1 8-1 10v9l2 10-1 9 1 9 6 10 1 2 3 7-2 10h-1l-6 9-2 9-2 9 2 10-2 3-1 6-2 9 1 10v9l1 10 1 9v15l1 3 4 10 5 8 1 1 8 8 1 1 8 10v1l8 8 2 2 9 4 9 4h1l9 2 10-1 9-1h3l7-2 9-7v-1l9-9v-2l10-5 9 4 3 3 7 5 6 4 3 2 10 2 9 5 1 1 9 9 9 2 9-2 10-3 9-4 5-2 5-6 9-3 10 1 9 4 6 4 4 1 9 6 3 2 6 6 6 3 4 2 9 1 10-1zM48 762h1l10-4 7-5-6-10-1-1-8-8-2-4-9-5v-1l-1 1-9 6-3 3-5 9 4 10 4 5 7 4 3 1zm730 38l8-9v-1l2-9-2-6-2-4-5-9-2-4-2 4-8 9-9 6-8 4-2 2-2 7 2 4 10 3 9 1 6 2 4 1zm-822 18l-1-2-5-7-5-9v-1l2-9 2-9-2-10-1-9-1-9v-1l-5-9-4-3h-10l-8 3-1 1-6 9-4 6-4 3v19l4 3 3 6 5 10 2 1 6 8 3 5 5 4 5 5h19zm471 0v-1l-4-8-2-9-4-6-4-4-5-4-10-2-4 6-3 10-2 9 3 9 6 5h29zm213 0l4-7 2-2v-9l-1-10 1-9 1-10v-9l-2-9-1-4-1-6 1-4 1-5 2-9-3-8-1-1-7-10-1-1-10-1-6 2-3 1-9 3-8 6-2 1-6 8-3 7-1 2-5 9-4 4-9 5-2 1-8 5-4 4-5 6-2 3-6 10v9l5 10 3 2 9 6 6 1 4 1 8-1h1l10 3 9 6h1l9 5h28z" clip-path="url(#z)" transform="matrix(.97898 0 0 .97391 22 40)"/>
    <path fill="#cedab3" d="M807-106l-2-5v5zM59-87L49-97l-9-7-10 7v1l4 9 6 5h9zm470 0l-1-10-5-9-1-5h-10l-6 5-4 4-2 5 1 10 1 1 10 2 10 2zM-90-41l-3-7-4 7 4 3zm452 9l-1-1-2 1 2 2zM251-22l6-7 2-3 7-3 6-6 3-9-1-10 1-9v-9l-6-9-3-1-9-2-8-7-2-1-9-7h-10l-9 1-9 4-3 3-7 6-3 4-6 4-10 5-9 4-10 3-9 1-5 1-5 2h-9l-4-2-5-2-10-5-9-1-10 5-4 3 3 9 1 1 10 7 2 2 7 9v1l5 8 5 5 5 5 4 4h9l6-4 4-3 9-3 10-1 9-2 1-1 9-1 9-1 10 1 4 1 5 4 7 6 2 4 10 5 9-3zm500 56l7-7 1-3-1-1-9-8-1-1-3 1-6 9v2l-3 8 3 6 9-4zm-282 9v-9l-5-4-6 4 2 9 4 6zm365 0l9-6 4-3V15l-4-2-7 2-3 2-9 7h-2l-8 7-5 3 2 9 3 2 10 4 9-5zM624 62V52l-4-9-4-6-3-3-6-9-1-1-7-9-2-1-9-4-10-2h-19l-9 2-9 5h-1l-8 9-1 3-4 7-1 9 5 8 5 1 5 1h9l9 4 10 2 9-1 10 3 2 1 7 4 10 3 9-1zm-268 47l-2-10-3-1-8-8h-1l-10-3-3 3-6 9 2 10 7 2h10l9 1zm285 0l-6-4-3 4 3 2zm-234 27l-2-9-4-9-3-1-9-1-5 2-4 9 7 9 2 2 9 4zm290 19l4-4 3-5-2-10-1-1-9-8-10-2-9 1-5 1-5 4-5 5 5 5 4 5 6 5 5 4 4 4h10zm117 10v-1l10-8v-1l9-7 8-2 2-1 4-9v-9l-4-7-7-2-3-1h-9l-10-1-9 1-1 1-9 5-9 3h-9l-9 1h-1l-7 9v10l2 9 5 5 5 5 5 2 9 4 9 1h10zm-859 28l9-3 8-7 2-2 4-7 5-9 9-9 1-1 9-5 8-4 1-1 10-1 9-1 10-2 9-2 8-3 2-1 3-8 2-9 3-9 1-4v-6l-8-9-1-2-10-3h-9l-10 1-9 3-2 1-8 5-5 4-4 4-10 5-6 1h-3l-9 1-10 1-9 1-10-1-9-2v-1l-10-4-9-3-10 1-4 7v37l4 8 1 1 9 7 4 3 5 6 2 3 8 9 9 6 9 4zm478 0l-3-10-3-6-10-2-4 8-5 9v1l9 5 10-2zm33 9l-2-2-9-3-4 5 4 2 9 1zm-152 28l4-10 1-9-1-9-2-9-3-6-9-2-9 8-4 9-2 9v9l6 7 3 3 6 3 9-3zm-274 9h-1l1 3zm-2 10l-8-4-9 2-2 2 2 1 9 2zm188 0l2-10v-9l-2-10-7-7-1-2-8-5-7-4-3-2-9-4-10-3h-1l-8-3h-10l-9 3-10 2-9 5-8 2h-13l-7-2-10-4-5-3-4-3-10-5-9 3-3 5-5 9-1 5-2 4-4 9v10l6 1 9 5 7 3 2 1 10 2 9 3 6 4 4 2 9 1 10 1 9-3 2-1 7-4 10-3 9-1h19l10 1 9 5 2 2 8 5 9-1zm576 18h3l9-9h1l7-9v-10l-8-9h-1l-8-4-10-3-9-1-9 7-1 1-3 9-1 10 5 7 1 2 8 5 8 4 1 2zm-399 19l-5-3-2 3 2 5zm121 0l7-2 9-7h1l4-10 5-7 1-2 5-9-2-10-4-3-5-6-5-4-9-6-10-5-4-4-5-4-10-3-9 4-6 3-4 5-5 4 5 4 3 6 5 9 2 6 1 4 2 9 2 9 2 10 2 6 4 3 6 1 9-1zm-587 47l8-6 2-4v-9l-1-10-1-1-3-8-6-9h-3l-7-1-3 1-6 5-4 4-2 9v10l5 9 1 1 9 7 5 2h5zm112 28v-1l-3-9-5-9-1-2-10-4-5-3-4-2-3 2-2 9 4 9 1 1 5 9 4 3 10 5zm747 0l5-10-6-9-9-7-9 3-2 4 2 3 2 6 7 5 9 5zm-174 27l-6-2-7-7-2-1-10-5-7 6-2 7-1 2 1 1 9 4 10 2 9 1zm62 38l8-8 1-1 2-10 1-9v-10l-2-9-2-4-10-4-9 5-4 3-6 4-8 5-1 2-10 3h-9l-10-2-8 7 8 9v2l3 8 7 6 4 3 5 3 10 4 9 1 10-1 9-5zm-329 19l6-9v-1l1-9 1-9 7-8 2-2 5-9-7-9-1-1-8-1-10-5-4-3-5-6-4-3-5-9h-1l-7-10-2-5-10-1-3 6v10l3 7 2 2-2 2-2 7-7 7-2 2-4 10-3 9v4l-2 6 2 2 4 7 5 3 9 6h1l9 8 6 2 3 2h10l9 1zm162 0l4-4 3-6-1-9-2-5-1-4-3-10-5-9v-1l-6-9-4-2-9-4-10 1-9 3h-10l-9-1-8 3-1 1-4 9 3 9 1 1 8 9 1 1 9 8h1l9 5 9 4v1l10 5 7 4 2 3 10 1zm-371 65l7-9 9-7 5-3 5-3 7-6 2-10-2-8-7-10-10-7-2-2-7-7-2-3-7-9-1-3-3-6-6-7-7-3-2-1-10-3-4-5-5-3-10 1-1 2 1 6 2 3 8 5 9 4 1 1 2 9 3 9 2 10-2 9-1 10-1 8 1 10 2 9 3 9v1l3 9 6 9 9-3zm-122 9l6-5 3-4v-9l-3-9-1-1-6-9-2-2-10-3H2l-10-1-9 2-6 4-3 5-2 4-2 10v9l3 9 1 1 9 6 9 3H2l9-5 10-3zm800 19l4-9 1-10 1-9v-38l1-8-1-10-2-9 4-10 1-2 3-7 1-9 6-8 4-2v-19h-4l-10-7-9-1-10 4-3 4v19l-6 8-1 2-5 9-4 4-3 5-5 10-1 1-7 8-2 3-7 7-3 2-7 6-2 3-7 7-3 2-9 6-2 1-4 10v9l2 9 4 4 9 3 10 2 3 1 6 1 10 2 9 2h9l10 3 3 1 6 6 10-4zm-208 10v-1l-5-9-2-9-1-10 2-9-1-9-2-6-3-4-7-9h-1l-8-8-5-2h-8l-6 3h-10l-10-1-9 5-9 3-1 9 1 2 5 8 4 5 3 4 6 3 10 4 5 2 5 4 6 6 3 3 9 6h1l9 4 7 6 3 3zm65 46l-8-3-3 3 3 5zm122 75l2-1 9-4 4-5 4-9 2-2 4-7 5-5 4-4 6-8 4-2v-37l-4-4-10-6h-1l-8-4-8 4-2 1-8 9-1 1-5 8-5 6-1 3-8 9v1l-5 9v28l1 9 2 10 2 2h9zM-5 687l4-9-3-9-2-10-2-1-5-8-4-5-3-4-6-9v-1l-10-6h-9l-10 5-2 2-7 5-4 4-6 7-2 2-5 9-2 10 6 9 3 3 10 5 1 1 8 6 10 2 9-3 10-3h9l9-1zm500 10l7-5 7-5 3-3 9-6 9-9 1-1 9-7 2-2 5-9v-9l-1-9-5-10-1-1-5-8-4-5-7-5-3-3-6-6-3-9v-1l-4-9-6-9-9-4-7 4-3 1-9 7-2 1-1 10 3 5 2 4 7 8 1 1 6 10 3 4 3 5 3 10v9l-4 9-2 7-1 2-1 10-4 9-3 9-1 3-4 7 4 7 10-6zm-282 9l6-6 3-3 6-10-9-5-4-4-5-3-9-6-1-1-9-6-3-3-7-5-4-4-5-8-2-1-7-9-1-2-4-8-4-9v-10l4-9 4-9-5-10-2-9-2-5-1-4-9-9-9 2-6 7-2 9 3 9-3 10-1 1-6 8-3 9 2 10v9l-1 10 1 9v9l2 9 3 10 2 2 5 7 4 4 4 5 5 7 3 3 7 7 4 2 5 3 10 3 9 3 10-2 9-2 10-2zm224 19l9-9v-1l4-9-3-9-1-1-10-7-1-2-8-6-5-3-5-3-9-4-6-2-4-2-9-3-9-1-10 3-9-1-10-2-9-2-10-1h-19l-9 2-9 1-10-3-9 2-10 5-2 2-7 5-5 4-5 8-1 1 1 1 10 9 9 5 9 4h1l9 4 7 6 3 2 9 4h9l10-3 8-3 1-2 9-8 1-1 9-3 10 1 7 3 2 1 10 6 2 3 7 3 9 6v1l10 6 9 2 10-2 9-7zM53 753l1-10-5-5-7-4-2-1-2 1-8 8-1 1 1 5 2 5 8 5 9-3zm726 37l3-9-5-7-10 5-5 2v9l5 1 10 2zm-846 10l3-1 5-9 3-9-2-10-1-9-1-9-4-8-9-2h-1l-9 8-1 2-6 9-3 7-4 2 4 2 4 8 4 9 2 3 7 7 2 2zm488 18l-3-9-1-2-2-7-7-7h-10l-2 7-2 9 3 9 1 5h19zm211 0l3-5 3-4 1-9 1-10 2-9v-19l-1-9-3-10 2-9 2-9-4-9-3-5-10-2-9 2-9 3-2 2-8 5-3 4-4 9-2 8-1 1-9 8-4 2-5 3-10 6-8 9-2 3-3 7v9l3 6 5 4 5 2 10 3 9 1 10 2 2 1 7 4 10 2 4 3 5 5h9z" clip-path="url(#A)" transform="matrix(.97898 0 0 .97391 22 40)"/>
    <path fill="#c6d6b2" d="M522-97l-1-1-9-5-5 6 5 7 9-4zM242-22l5-4 6-6 4-3 9-5 1-1 3-9v-10l-1-9-2-9-1-1-9-6-3-2-7-6-4-4-5-3h-19l-7 3-2 1-9 9-1 1-9 6-4 2-6 3-9 4-8 2-2 1-9 2-10 5h-9l-9-4-7-4-3-1h-9l-3 1 1 9 2 1 9 9 5 9 5 6 2 3 7 6 9 2 10-5 7-3 2-1 10-2 9-1 10-1 9-1 10 2 9 3 2 1 7 7 6 3 4 2zm605 46l-4-3-10 3v1l10 2zM615 62l1-1 3-9-3-6-1-3-7-9-1-2-5-8-5-6-5-3-4-2-10-1-9-1-10 1-10 2-3 1-6 5-3 4-5 10v9l8 5h9l10 3 5 1 5 2 9 1 10 2 8 5h1l10 3zm-217 65l-9-1-1 1 1 1zm299 19l-3-10-2-2-10-4-9 4-4 2 4 5 3 5 6 5 10 1zm109 19l8-8 2-2 8-4 5-5 4-4 10-3 4-3v-9l-4-1-10-3h-9l-10-3-9 2-9 5h-1l-9 3-9 3-7 3-3 10 7 9 3 2 9 7 1 1 8 1 10-1zm-839 18l7-7v-2l6-9 3-5 6-5 3-3 10-5 2-1 7-4h10l9-1 10-3 4-2 5-1 9-8 1-3v-6l3-9 1-10-4-5-7-4-3-1h-9l-10 1h-1l-8 3-10 6v1l-9 9-10 3h-18l-10 2-9 1-10-1-9-3-6-2-4-2-9-2-10 2-4 2v37l4 3 6 6 4 3 9 6v1l7 9 3 3 5 6 4 2 10 4 9-3zm347 37l1-9-1-9-1-3-9-6-6 9-3 9 3 9 6 6 9-5zm-94 29l4-10v-9l-3-10-2-2-6-7-3-2-10-6-3-1-6-2-10-3-9-3h-10l-9 2-10 4-5 2-4 3-9 3-10-1-9-3-6-2-4-1-9-5-6-3-4-2-5 2-4 1-4 8-3 9v9l6 10h1l9 5 10 3 5 1 4 2 10 4 9 3h10l9-2 9-4 9-3h1l9-3 10 1 9 1h10l2 1 7 4 8 6 2 1 9-1zm590 9l4-5 4-4v-10l-4-4-9-4h-10l-9-1-7 9-2 10 8 9 1 1 9 5 10-2zm-276 19l7-9v-1l6-9 3-8v-3l-1-8-8-9-10-6-8-4h-1l-10-9h-1l-9-2-5 2-4 3-4 6 2 10 2 5 2 4 3 10 1 9 2 9 1 4 4 6 6 6 10-1 9-3zm-596 37l2-10-3-9-1-2-10-2-5 4-2 9 1 10 6 5 10 1zm103 47l-1-10h-2l-1 10 3 1zm637 65l4-3 6-6 4-5 1-5v-19l-1-6-4-3-6-3-6 3-3 1-10 7-3 1-6 6-10 3h-9l-1 1-3 9 3 10h1l9 7 3 2 7 3 9 1 10-1zm-323 9l2-9 1-9 3-5 2-5 5-9-7-4-8-6h-2l-9-7-8-2-2-1-6 1h-3l-10 4-5 5-4 8v2l-2 9-2 10 4 6 2 3 7 5 8 4 2 3 9 2h19zm163 0l1-9-2-9-4-10-1-2-4-7-6-8-2-2-7-2-10 1-5 1-4 1-10 1h-9l-7 8 1 9 6 6 3 4 6 5 7 4 3 2 9 4 8 3 2 1 9 5 10-1zm-371 66l6-4 7-6 2-2 10-6 1-1 4-10-2-8-3-5-6-5-4-3-7-6-2-2-9-8-1-1-6-8-3-7-7 7 4 9-2 10-3 9-1 3-2 7-1 8 2 10 1 1 3 8 4 10 2 4 9 1zM12 519l9-3 7-6 2-9-6-10-3-4-9-5-1-1-9 1-10-1h-9l-1 1-7 9-1 6-1 4v9l1 1 5 8 4 3 9 2H2l9-4zm592 10l1-10 2-6v-7l-1-5-6-10-3-3-7-6-2-2-10-3-10 4h-9l-10-1-3 2-6 6-2 3 2 5 2 5 7 8 1 1 9 4 9 4 3 1 7 8 2 2 8 5 9 3zm217 0l2-10 1-1 2-8 2-9v-10l-1-9v-10l1-8-1-10-3-9v-10l3-9 1-9 5-4 3-6 2-9-5-10h-11l-4 10 2 9-6 7-2 3-7 5-2 4-7 9-1 3-2 7-7 6-2 3-7 7-3 3-7 7-2 1-7 8-3 2-7 7-5 2-4 5-3 5v9l3 6 4 3 5 2 10 2 9 3 7 3 3 1 9 1h19l9 3zm-675 37l-3-9-7 9 7 8zm668 93l5-9 5-8 1-1 8-9h1l6-10 3-8 4-1v-19l-4-4-2-5-8-5-9-2-10 4-3 3-6 8-1 1-6 9-3 3-5 7-4 8v1l-1 10v18l1 5 1 4 8 7 10-1zm-309 19l7-4 10-3 2-2 7-5 6-5 4-3 3-6-1-9-2-9h-1l-3-10-5-9-1-1-9-7-3-2-7-7-1-2-3-9-3-10-3-3-9-6-10 6-4 3-3 10 5 9 2 3 6 6 4 8 1 2 5 9 3 8 1 2 1 9-2 2-2 7-2 9 1 10-2 9 5 4zm-537 9l6-2 9-3 6-4 1-9-1-10-6-9v-1l-6-8-3-6-6-3-4-3-9 1-4 2-6 2-8 7h-1l-8 9-2 2-4 7-1 10 5 7 2 2 8 5 7 4 2 2 10 3 9-3zm529 0l-4-5-1 5 1 2zm-298 19h1l10-3 6-6 1-10-7-5-3-4-7-5-7-4-2-2-9-8-1-1-7-8-2-3-7-6-3-4-4-5-5-8-1-2-5-9 2-10 3-9v-9l-9-8-2 8-7 3-8 6-1 4-2 5 2 9v1l-2 9-2 10v9l1 9 2 9 1 1 2 9 7 9 8 9 1 3 6 7 4 4 9 5h2l8 3 9 2 10-2zm232 19l5-5 5-4 4-10-3-9-6-5-5-5-4-3-10-6-9-4-10-4-7-1-2-1-9 1-10 2-9-2h-2l-8-2-9-2h-19l-10-1-9 1-9 1-10-2-9 3-4 2-6 6-6 3-3 5-2 4 2 2 9 6 2 2 8 3 9 5 2 1 8 6 4 4 5 2 9 1 10-2 3-1 6-7 4-3 6-6 9-3h10l9 4 6 5 4 3 8 7h1l9 5 6 4 4 2 9 3 10-2zM43 743l-3-1-2 1 2 6zm-108 47l1-1 3-8-1-10-1-9-1-9v-1l-10-3-4 4-5 6-2 3-3 9 3 10 2 3 5 6 4 4zm694 19l3-9 3-10 2-9 1-10v-9l-2-9-1-5-1-5v-9l1-6v-6l-6-6-4-2-9 1v1l-9 2-9 7-1 2-3 7-3 9-3 4-7 6-3 2-9 5-4 2-6 6-3 3-6 9-1 1v9h1l9 8 6 2 4 1 9 1 10 3 9 3 6 1 4 1 9 4 9 1z" clip-path="url(#B)" transform="matrix(.97898 0 0 .97391 22 40)"/>
    <path fill="#bdd2b1" d="M244-32l3-1 10-6 4-2 5-8 1-1-1-5v-5l-3-9-5-9h-1l-9-9-1-1-9-7-10-1-9 1-9 3-5 5-5 4-7 5-2 1-10 6-5 2-4 4-10 4h-9l-2 1-8 7h-9l-9-2-2 5 2 4 4 5 5 7 4 2 5 2 3-2 7-3 9-5 2-1 8-5 9 4h19l3 1 7 2 9 3 9 4v1l10 4zm369 84l-5-9-1-2-5-7-4-10h-1l-9-6-9-3h-1l-9-1-10 1h-3l-6 3-9 6v3l-3 7 3 7 9 1 2 1 7 3 10 3 9 1 5 2 5 2 9 4 10 1zm191 103h1l9-5 8-4 2-1 7-9-7-7-5-2-5-1-9 1h-1l-9 5-9 2-4 2-3 10 7 9 9 4zm-843 28l3-1 6-8 4-5 2-4 7-8 1-2 8-6 6-3 4-3 9-3 10-1 9-1 4-2 6-2 9-4 3-3 2-9 2-9 1-10-8-5H30l-9 3-3 2-7 8-2 2-7 5-10 1h-18l-10 2h-9l-10-1-9-3-10-3-9-1h-1l-9 3-4 6v18l4 7 2 3 8 7 2 2 7 4 6 6 4 6 2 3 7 7 4 2 6 2zm258 56v-11l-2-8-7-8-1-1-9-5-9-3-7-1h-3l-9-4h-10l-9 2-5 2-5 3-9 6-9 2-8-2h-2l-9-2-10-3-8-4h-1l-10-5-9 5-2 9 2 9 9 10 10 3 9 3 8 3 2 1 9 3 10 1 9-2 8-3 1-1 10-4 9-2 10 1 9 1 10 1 9 3 2 1 8 5 9-4zm585 19h1l8-9-2-10-6-3-10 2-2 1-7 5-2 5 2 2 7 7 2 2zm-280 19l7-3 4-7 6-5 2-4 4-9-2-10-4-5-6-4-4-3-9-3-10-3v-1l-9-3-5 3v10l1 9 2 10 2 7v2l3 9 6 9 2 1 8 1zm160 140l6-10 1-9-3-10-6-5-9 2-7 3-3 2-9 8v1l-10 5-6 3 3 10 3 2 10 6h9l10-2 9-5zm-332 9l1-9 2-10-1-9-3-2-6-8-3-1-10-2-9 3h-6l-4 2-3 8-2 9-2 10 7 9 10 5 9 3 10 1 9-7zm163 0l-1-9-2-4-4-6-4-9-1-2-10-6-10 1-9 2-10 1-9 2-2 2 1 9 1 2 7 8 2 2 10 5 4 2 5 3 10 2 10 4 9-2zm-361 65l8-5 6-4 4-7 1-3-1-3-2-5-8-8-2-2-7-6-5-3-5-4-8 4h-1l-5 9-3 10v8l2 10 5 9 1 3 9 4 10-6zM2 519l9-5 10-4 2-9-2-4-6-6-4-2-9-1-10-2-9 2-3 3-2 10 1 9 4 5 6 4 3 2 10-1zm814 0l6-9 2-4 1-5v-10l-1-9v-1l-1-9 1-2 1-6-1-7-1-3-7-9-2-10-9-2-2 2-2 10-6 2-6 7-3 2-7 8-2 2-7 6-3 3-7 7-2 2-8 7-2 4-6 6 2 9 4 3 10 5 1 1 8 4 10 3 9 1h9l10-1 9-2zm-218 10l3-10 3-9-1-9-6-8-2-2-7-6-10-3-9 3-10 1-9 1-5 4 2 10 3 3 8 6h1l10 4 8 5 1 2 8 8 2 1h9zm-463 74h-1v1zm396 56l9-9-2-9-4-9-1-10-2-4-4-5-5-5-9-5h-1l-6-9-2-9-1-5-3-5-7-3-7 3-3 4-2 6 2 4 4 5 6 9v1l6 9 4 8v1l4 10 4 9-4 9-2 9 7 5 10-1zm276 0l7-9 6-9 4-3 6-6 3-4 4-6 2-9v-19l-5-9-1-1-9-2-5 3-5 2-5 7-4 5-2 4-8 8-1 2-4 9v10l-1 9v9l5 9 1 1h10zm-850 28l7-2 10-4 4-3 5-8v-1l2-10-2-3-3-6-6-9v-2l-10-6-9 1-10 5-2 2-7 4-5 5-5 8-1 1v10l1 2 8 7 2 1 9 6 7 2 3 1zm228 19l6-2 9-4 9-3v-10l-7-9-2-1-9-5-7-3-3-2-4-8-5-6-3-3-7-7-2-2-7-8-1-1-7-10-2-3-9-3-3 6-6 8-1 2v9l1 3 1 6 3 9 3 10 2 2 4 7 5 7 2 2 7 10 1 1 9 5 10 3h2l7 1zm237 19l5-1 9-8h1l4-10-4-9-1-1-9-9-10-6-5-3-4-2-10-3-9-1-9 1-10 3-9-1-10-4-6-2-3-1-4 1-6 1-9-1h-1l-9-2-9 1-6 1h-9l-4-1-1 1-8 4-6 5-1 9 7 6 5 4 4 2 9 7 1 1 9 7 7 2h4l8-3 7-7 2-3 6-6 4-2 9-3 10-1 9 2 3 4 7 6 2 3 7 5 7 5 2 1 10 5 6 3 3 1zm-489 56l-2-10-2-9-3-5-3 5-6 9 5 10 4 5zm692 19l6-10 2-9 1-10v-9l-1-9-4-10-1-9v-9l-3-3-9-3-9 3-4 3-5 9-1 2-3 7-6 9-2 1-8 5-7 4-2 3-8 6-2 2-5 8 2 9 3 3 10 3 9 3v1l10 2 9 2 10 1 9 1z" clip-path="url(#C)" transform="matrix(.97898 0 0 .97391 22 40)"/>
    <path fill="#b4ceb1" d="M250-41l7-3 4-6v-10l-3-9-1-1-5-8-5-5-5-4-4-4-10-1h-9l-9 4-1 1-9 8-2 1-7 6-7 3-3 3-5 6 4 10h1l10 2h9l10 4 4 3 5 2 9 3 10 1 9-5zm350 93v-9l-3-9v-1l-8-9h-1l-10-2-9-4-10 1-9 5h-1v10h1l9 6 9 3h1l9 1 10 3 8 5 1 1zm206 94l8-6 5-4-5-2h-9l-10 1-2 1-6 10 8 5 10-5zm-840 28l7-9 1-1 7-9 2-3 8-6 1-1 10-5 9-3 3-1h7l9-2 10-4 5-3 4-9v-12l-6-7H29l-8 5-5 5-5 4-7 5-2 1H-8l-5-1-4-1h-9l-3 1-7 1-9 1-10-2h-1l-8-2-10-3-9-1-10 5-4 1v18l4 1 8 9 2 2 9 7h1l9 9v1l7 9 2 2 10 4 9-4zm164 65l4-1 9-6 7-2 3-3 9-1 10 2 5 2 4 1h10l9 2 10 6 4-9-2-10-2-2-6-7-4-2-9-2-10-1-9-4-10-1-3 1-6 3-8 6-2 4-9 4-9-1-10-2-9-2-10-2-4-1-5-1-10-5-4 6 4 8 1 1 9 6 5 4 4 2 10 3 9 3 4 1 6 1zm677 10l-2-4-10 1-3 3 3 3 10-1zm-278 18l2-1 8-8 2-3 2-6-2-10v-1l-10-7-4-1-5-2-9 2h-1l-7 9v10l2 9 3 9 2 2 10 2zM343 417l4-10-1-9-4-4-10-1-9 4-2 1-4 9-4 7v3l10 3 9 1 10-1zm331 0l8-6 2-4 1-9-3-7-9-1-10 5-3 3-6 8-3 1-1 10 4 2h9l10-2zm-165 9v-9l-5-10-1-2-6-7-4-2-9-1-10 2-9 1-6 9 6 7 2 3 7 4 10 4 5 1 4 1 10 2zm-364 65l8-3 9-6v-1l6-9-4-8-2-2-9-8-10-7-9 5-1 2-4 10-1 8 4 10 2 4 8 5 1 1zM3 510l7-9-8-3-10-4-5 7 3 9 2 2 10-1zm594 9l3-9v-9l-3-3-8-7-1-1-10-2-9 2-10 1h-1l-4 10 5 4 9 5h1l9 5 6 4 4 4 9-3zm211 0l6-5 3-4 5-9 1-10-3-9-1-10 1-8-3-10-3-3-9-1-10 4-9 6-3 4-6 8h-1l-9 8-2 2-7 7-2 2-6 10 4 9 4 2 9 6 2 1 8 3 9 1h9l10-2zm-312 66l-3-5-3 5 3 6zm36 65v-9l-1-2-3-7v-10l-5-9-1-1-10-4-8 5 3 9 5 10 8 9v9l2 1h9zm275 0l7-9h1l9-7 3-2 6-9 1-1 2-9-1-10-1-9-1-1-9-5-10 4-1 2-5 9-3 4-5 6-5 6-1 3v28l1 2 10 1zm-836 28l3-3 4-6 2-10-4-9-2-5-5-4-5-4-9 1-6 3-4 2-9 6-1 1-6 9v10l7 6 4 3 5 4 10 2 9-2zm227 19l2-3 3-7-3-4-6-5-3-2-10-2-5-5-4-10-9-9h-1l-9-9-7-9-3-4-9-1-4 5-1 9 1 9 4 9v2l3 8 5 9 1 2 5 7 5 7 4 3 5 3 10 2 9 1 10-3zm128 9l5-9 1-2 10-5 9-2 2-1 2-9-4-2-9-2-10 2-9-1-10-4-9 2-9 2h-10l-6 3-1 9 7 5 6 5 4 3 5 6 4 3 9 3 10-3zm105 10l5-9 1-1h-1l-4-9-5-5-5-5-5-3-9-4-4-2-6-2-9-1-9 3h-1l-6 9 7 10 9 9 9 5 9 5h1l9 4 10-2zm185 84l9-7 2-3 3-9v-10l1-9-2-9-4-9v-1l-3-9-4-9-2-1-4 1-5 2-5 7-3 9-2 2-6 8-3 3-10 5-1 1-8 8-2 1-8 8-1 2 1 3 5 6 5 2 9 2 10 5 2 1 7 1h10z" clip-path="url(#D)" transform="matrix(.97898 0 0 .97391 22 40)"/>
    <path fill="#a8c7ae" d="M253-50l3-10-4-9-5-8-1-1-8-8-10-1h-9l-9 4-6 5-4 4-8 5-1 3-4 6 4 3 9 2 6 5 4 2 9 5 9 2 10-3 9-3zm320 84l-1-10h-13v1l3 9 7 2zM-32 165l6-5 3-5 6-7 3-2 6-5 8-5 2-3 9-3 10 1 9-2 5-2 5-8v-3l-10-7-9 4-6 5-4 4-9 3-10-1-9-3h-9l-10 2h-9l-10-2-9-3-10-2h-9l-5 2-5 7-4 2 4 2 5 7 5 6 4 4 5 4 5 5 5 4 5 6 4 5 10 4 9-4zm237 55l-5-4-6-5h-3l-10-1-9-2h-10l-8 3 8 7 6 2 4 1 9 5h10l9-1zm-74 10l-6-3-9-7h-1l-9-1-10 1v1l10 7 1 2 8 2h10zm402 28l7-9-3-10-6-4-10-2-9 6-3 10 1 9 2 3 9 4 10-4zm143 149v-9l-3-2-4 2-6 7-1 2 1 1 10 2zm-176 10l-4-10-3-3-10-5-9 3-9 5 8 10h1l9 3h10zm-344 65l6-10-5-8-4-5-8-5-2-1-2 1-7 5-2 5v8l2 7 3 3 6 5 10-3zm440 28l-1-9-7-5-10-2-9 5-3 2 3 1 9 7 1 1 9 5zm201 9l8-3 7-6 2-2 5-7 1-10-3-9-2-10v-8l-1-2-9-5-10 2-7 5-2 1-5 7-4 6-5 4-5 4-6 5-3 10 5 9 4 3 10 4 7 2 2 1h9zM523 622l-2-3-9-1v5l9 5zm298 10l3-3 4-7 2-9-2-10-3-9-1-1-2 1-8 7-1 2-5 10-3 4-4 5v10l4 7 9-4zm-857 46l8-9 2-5v-10l-2-4-8-8-9 1-10 4-5 3-4 5-4 4 1 10 3 2 9 7 10 3zm222 19l5-4 5-6-5-4-10-3-2-2-7-6-3-3-4-10-3-2-9-7-7-9-3-4-9 1-1 3 1 4 3 5 3 9 3 10v2l3 7 5 9 2 3 9 7 10 2h9zm133 9l4-4 3-5 3-10-6-4-5-5-5-2-9 1-3 1-6 9 3 10 6 7 4 2 5 2zm111 0l-3-9-10-8-1-2-8-3-10-3-9-1-9 7 7 10 2 2 9 6 5 1 5 2 9 3 10-1zm192 84l3-5 1-4 1-10v-9l-1-9-1-2-6-8-3-9-9 1-4 8-6 8-1 2-8 6-5 3-5 5-4 4-5 8-2 2 2 2 9 7 10 4 9 3h10l9-2z" clip-path="url(#E)" transform="matrix(.97898 0 0 .97391 22 40)"/>
    <path fill="#9bbea9" d="M236-50l2-2 9-6 1-2-1-4-1-5-6-9-2-2h-10l-9-1-8 3-1 1-9 8 6 9 3 3 5 7 4 2h9zM-37 165l1-1 10-8v-1l7-9 2-4 8-6v-9l-8-2h-9l-10 1-9-1-10-1-9-3-10-3-9 2-5 7 5 8 1 1 8 8 1 2 9 9 9 9 3 1 7 3zm560 93l8-4 3-5-2-10h-1l-10-1-2 1-5 10 6 9 1 1zm-37 149l-3-1-4 1 4 5zm-342 75l9-4 3-6-3-5-3-3-7-5-6 5-2 8 8 10zm661 28l9-8 1-1 2-10-3-8v-1l-4-10-5-8h-10l-9 8-8 10-1 3-8 6-2 3-2 7 2 3 9 6h1l9 3 9 1 10-3zm17 112l-8-4-3 4 3 4zm-856 47l1-10-3-9h-12l-7 2-8 7 2 10 6 5 10 3 9-6zm214 18l-8-6-2-3-7-9-1-2-9-4-3 6 1 9 2 6 3 3 6 5 10 1zm225 0l-7-1-9 1v1l9 5zm-87 10l-3-10-2-1-2 1-4 10 6 3zm299 93l6-9v-10l1-9-3-9-5-8-9 1-7 7-3 3-9 6v1l-8 8v10l8 7 3 2 6 2 10 1 9-2z" clip-path="url(#F)" transform="matrix(.97898 0 0 .97391 22 40)"/>
    <path fill="#8cb3a3" d="M238-69h-2l2 1zM-31 155l5-6 1-3 5-10-6-3-10-2-9-2-6-2-4-1-9-1-10-1-8 3 7 9 1 1 6 9 4 4 4 5 5 5 10 3 9-3zm178 317l-4-4-1 4 1 2zm663 29l3-10-4-9-4-8-3-2-7-2-3 2-6 8-2 2-5 9 1 10 6 3 9 3 10-2zM-43 669l-2-7-5-3-5-1-1 1 1 10 10 2zm661 112v-19l-1-9-1-1h-9l-1 1-9 7-2 2-7 8-2 1 2 5 2 5 7 5 10 2 9-4z" clip-path="url(#G)" transform="matrix(.97898 0 0 .97391 22 40)"/>
    <path fill="#7ea89e" d="M-36 155l5-9-5-9-1-1-8-2-10-3-9-1-4 6 4 6 1 4 7 9 1 1 10 3zm844 336l-3-7-2-2-8-5-4 5-4 9 8 8 10-1zM609 781l1-10-3-9h-1l-9 7-3 2 3 5 6 5 4 1z" clip-path="url(#H)" transform="matrix(.97898 0 0 .97391 22 40)"/>
    <path fill="#709b99" d="M-39 146l-6-7-5-3-5-1-4 1 1 10 3 4 10 3z" clip-path="url(#I)" transform="matrix(.97898 0 0 .97391 22 40)"/>
  </g>
</svg>
